ISO-10303-21;
HEADER;
FILE_DESCRIPTION(('ViewDefinition [CoordinationView]'),'2;1');
FILE_NAME('','2026-08-23T19:07:28',(''),(''),'IfcOpenShell 0.8.4-e8eb5e4','IfcOpenShell 0.8.4-e8eb5e4','');
FILE_SCHEMA(('IFC4'));
ENDSEC;
DATA;
#1=IFCPERSON($,'','ryan@openingdesign.com',$,$,$,$,$);
#2=IFCORGANIZATION($,'','',$,$);
#3=IFCPERSONANDORGANIZATION(#1,#2,$);
#4=IFCAPPLICATION($,'0.8.3','Bonsai','Bonsai-0.8.3');
#5=IFCOWNERHISTORY(#3,#4,.READWRITE.,.MODIFIED.,1786125332,#3,#4,1759683330);
#6=IFCCARTESIANPOINT((0.,0.,0.));
#7=IFCDIRECTION((0.,0.,1.));
#8=IFCDIRECTION((1.,0.,0.));
#9=IFCAXIS2PLACEMENT3D(#6,#7,#8);
#10=IFCGEOMETRICREPRESENTATIONCONTEXT($,'Model',3,1.E-05,#9,$);
#11=IFCGEOMETRICREPRESENTATIONCONTEXT($,'Plan',2,1.E-05,$,$);
#12=IFCSIUNIT(*,.VOLUMEUNIT.,$,.CUBIC_METRE.);
#13=IFCSIUNIT(*,.LENGTHUNIT.,.MILLI.,.METRE.);
#14=IFCDIMENSIONALEXPONENTS(0,0,0,0,0,0,0);
#15=IFCSIUNIT(*,.PLANEANGLEUNIT.,$,.RADIAN.);
#16=IFCMEASUREWITHUNIT(IFCREAL(0.0174532925199433),#15);
#17=IFCCONVERSIONBASEDUNIT(#14,.PLANEANGLEUNIT.,'degree',#16);
#18=IFCSIUNIT(*,.AREAUNIT.,$,.SQUARE_METRE.);
#19=IFCUNITASSIGNMENT((#12,#13,#17,#18));
#20=IFCPROJECT('3hFmn2ED14Ofwsj$DzZ0HC',$,'My Project',$,$,$,$,(#10,#11),#19);
#21=IFCPERSON($,'','ryan@openingdesign.com',$,$,$,$,$);
#22=IFCORGANIZATION($,'','',$,$);
#23=IFCPERSONANDORGANIZATION(#21,#22,$);
#24=IFCACTORROLE(.USERDEFINED.,'CONTRIBUTOR',$);
#25=IFCTELECOMADDRESS(.USERDEFINED.,$,'WEBPAGE',$,$,$,$,'https://ifcopenshell.org',$);
#26=IFCORGANIZATION('IfcOpenShell','IfcOpenShell','IfcOpenShell is an open source software library that helps users and software developers to work with IFC data.',(#24),(#25));
#27=IFCAPPLICATION(#26,'0.8.4','Bonsai','Bonsai-0.8.4');
#28=IFCOWNERHISTORY(#23,#27,.READWRITE.,.MODIFIED.,1787483248,#3,#27,1766564208);
#65=IFCCARTESIANPOINTLIST3D(((97.4999618530273,-13.,-97.4999618530273),(97.5000228881836,-13.,97.5000381469727),(-97.5000381469727,-13.,-97.4999008178711),(-97.4999771118164,-13.,97.5000915527344),(97.5000228881836,-10.,97.5000381469727),(97.4999618530273,-10.,-97.4999618530273),(-97.5000381469727,-10.,-97.4999008178711),(-97.4999771118164,-10.,97.5000915527344)));
#66=IFCINDEXEDPOLYGONALFACE((1,2,4,3));
#67=IFCINDEXEDPOLYGONALFACE((1,6,5,2));
#68=IFCINDEXEDPOLYGONALFACE((2,5,8,4));
#69=IFCINDEXEDPOLYGONALFACE((4,8,7,3));
#70=IFCINDEXEDPOLYGONALFACE((3,7,6,1));
#71=IFCINDEXEDPOLYGONALFACE((6,7,8,5));
#72=IFCPOLYGONALFACESET(#65,$,(#66,#67,#68,#69,#70,#71),$);
#73=IFCCARTESIANPOINTLIST3D(((81.5,-10.,0.),(79.9340057373047,-10.,15.8998327255249),(81.5,47.,0.),(79.9339904785156,-10.,-15.899884223938),(75.2961654663086,-10.,-31.1887226104736),(79.9339904785156,47.,-15.8998804092407),(75.2961654663086,47.,-31.188720703125),(67.7647552490234,47.,-45.2789878845215),(57.6291847229004,47.,-57.6292114257812),(67.7647552490234,-10.,-45.2789878845215),(57.6291847229004,-10.,-57.6292114257812),(45.2789497375488,-10.,-67.764778137207),(31.1886787414551,-10.,-75.2961730957031),(45.2789535522461,47.,-67.764778137207),(31.1886749267578,47.,-75.2961730957031),(15.8998346328735,47.,-79.9339981079102),(0.,47.,-81.4999923706055),(15.8998374938965,-10.,-79.9339981079102),(0.,-10.,-81.4999923706055),(-15.8998823165894,-10.,-79.9339828491211),(-31.1887226104736,-10.,-75.2961578369141),(-15.8998861312866,47.,-79.9339828491211),(-31.1887264251709,47.,-75.2961578369141),(-45.2789916992188,47.,-67.7647476196289),(-57.6292114257812,47.,-57.6291809082031),(-45.2789878845215,-10.,-67.7647476196289),(-57.6292114257812,-10.,-57.6291809082031),(-67.7647857666016,-10.,-45.2789497375488),(-75.2961807250977,-10.,-31.1886749267578),(-67.7647857666016,47.,-45.2789535522461),(-75.2961807250977,47.,-31.1886730194092),(-79.9340057373047,47.,-15.8998308181763),(-81.5,47.,0.),(-79.9340057373047,-10.,-15.8998346328735),(-81.5,-10.,0.),(-79.9339904785156,-10.,15.8998823165894),(-75.2961654663086,-10.,31.1887226104736),(-79.9339904785156,47.,15.8998861312866),(-75.2961654663086,47.,31.1887245178223),(-67.7647552490234,47.,45.2789840698242),(-57.6291847229004,47.,57.629207611084),(-67.7647552490234,-10.,45.2789878845215),(-57.6291847229004,-10.,57.629207611084),(-45.2789535522461,-10.,67.764778137207),(-31.1886749267578,-10.,75.2961730957031),(-45.2789497375488,47.,67.764778137207),(-31.1886787414551,47.,75.2961730957031),(-15.8998374938965,47.,79.9339981079102),(0.,47.,81.4999923706055),(-15.8998346328735,-10.,79.9339981079102),(0.,-10.,81.4999923706055),(15.8998861312866,-10.,79.9339828491211),(31.1887264251709,-10.,75.2961578369141),(15.8998823165894,47.,79.9339828491211),(31.1887226104736,47.,75.2961578369141),(45.2789878845215,47.,67.7647476196289),(57.6292114257812,47.,57.6291770935059),(45.2789916992188,-10.,67.7647476196289),(57.6292114257812,-10.,57.6291770935059),(67.7647857666016,-10.,45.2789497375488),(75.2961807250977,-10.,31.1886749267578),(67.7647857666016,47.,45.2789459228516),(75.2961807250977,47.,31.1886768341064),(79.9340057373047,47.,15.8998355865479)));
#74=IFCINDEXEDPOLYGONALFACE((1,4,5,10,11,12,13,18,19,20,21,26,27,28,29,34,35,36,37,42,43,44,45,50,51,52,53,58,59,60,61,2));
#75=IFCINDEXEDPOLYGONALFACE((1,2,64,3));
#76=IFCINDEXEDPOLYGONALFACE((4,1,3,6));
#77=IFCINDEXEDPOLYGONALFACE((5,4,6,7));
#78=IFCINDEXEDPOLYGONALFACE((64,63,62,57,56,55,54,49,48,47,46,41,40,39,38,33,32,31,30,25,24,23,22,17,16,15,14,9,8,7,6,3));
#79=IFCINDEXEDPOLYGONALFACE((10,5,7,8));
#80=IFCINDEXEDPOLYGONALFACE((11,10,8,9));
#81=IFCINDEXEDPOLYGONALFACE((12,11,9,14));
#82=IFCINDEXEDPOLYGONALFACE((13,12,14,15));
#83=IFCINDEXEDPOLYGONALFACE((18,13,15,16));
#84=IFCINDEXEDPOLYGONALFACE((19,18,16,17));
#85=IFCINDEXEDPOLYGONALFACE((20,19,17,22));
#86=IFCINDEXEDPOLYGONALFACE((21,20,22,23));
#87=IFCINDEXEDPOLYGONALFACE((26,21,23,24));
#88=IFCINDEXEDPOLYGONALFACE((27,26,24,25));
#89=IFCINDEXEDPOLYGONALFACE((28,27,25,30));
#90=IFCINDEXEDPOLYGONALFACE((29,28,30,31));
#91=IFCINDEXEDPOLYGONALFACE((34,29,31,32));
#92=IFCINDEXEDPOLYGONALFACE((35,34,32,33));
#93=IFCINDEXEDPOLYGONALFACE((36,35,33,38));
#94=IFCINDEXEDPOLYGONALFACE((37,36,38,39));
#95=IFCINDEXEDPOLYGONALFACE((42,37,39,40));
#96=IFCINDEXEDPOLYGONALFACE((43,42,40,41));
#97=IFCINDEXEDPOLYGONALFACE((44,43,41,46));
#98=IFCINDEXEDPOLYGONALFACE((45,44,46,47));
#99=IFCINDEXEDPOLYGONALFACE((50,45,47,48));
#100=IFCINDEXEDPOLYGONALFACE((51,50,48,49));
#101=IFCINDEXEDPOLYGONALFACE((52,51,49,54));
#102=IFCINDEXEDPOLYGONALFACE((53,52,54,55));
#103=IFCINDEXEDPOLYGONALFACE((58,53,55,56));
#104=IFCINDEXEDPOLYGONALFACE((59,58,56,57));
#105=IFCINDEXEDPOLYGONALFACE((60,59,57,62));
#106=IFCINDEXEDPOLYGONALFACE((61,60,62,63));
#107=IFCINDEXEDPOLYGONALFACE((2,61,63,64));
#108=IFCPOLYGONALFACESET(#73,$,(#74,#75,#76,#77,#78,#79,#80,#81,#82,#83,#84,#85,#86,#87,#88,#89,#90,#91,#92,#93,#94,#95,#96,#97,#98,#99,#100,#101,#102,#103,#104,#105,#106,#107),$);
#109=IFCCARTESIANPOINTLIST3D(((95.,-193.,0.),(93.1742706298828,-193.,18.5334758758545),(95.,-147.,0.),(93.1742477416992,-193.,-18.5335445404053),(87.7682189941406,-193.,-36.3548278808594),(93.1742477416992,-147.,-18.533540725708),(87.7682189941406,-147.,-36.3548316955566),(78.9893035888672,-147.,-52.7790031433105),(67.1748809814453,-147.,-67.1749114990234),(78.9893035888672,-193.,-52.7789993286133),(67.1748809814453,-193.,-67.174919128418),(52.7789535522461,-193.,-78.9893417358398),(36.3547706604004,-193.,-87.7682418823242),(52.7789611816406,-147.,-78.9893417358398),(36.3547668457031,-147.,-87.7682418823242),(18.5334815979004,-147.,-93.1742706298828),(0.,-147.,-95.),(18.5334873199463,-193.,-93.1742706298828),(0.,-193.,-95.),(-18.5335388183594,-193.,-93.1742477416992),(-36.3548240661621,-193.,-87.7682189941406),(-18.5335426330566,-147.,-93.1742477416992),(-36.3548278808594,-147.,-87.7682189941406),(-52.7790031433105,-147.,-78.9893035888672),(-67.1749114990234,-147.,-67.1748809814453),(-52.7789993286133,-193.,-78.9893035888672),(-67.1749114990234,-193.,-67.1748809814453),(-78.9893417358398,-193.,-52.7789611816406),(-87.7682418823242,-193.,-36.3547706604004),(-78.9893417358398,-147.,-52.7789649963379),(-87.7682418823242,-147.,-36.3547744750977),(-93.1742706298828,-147.,-18.533483505249),(-95.,-147.,0.),(-93.1742706298828,-193.,-18.5334873199463),(-95.,-193.,0.),(-93.1742477416992,-193.,18.5335350036621),(-87.7682189941406,-193.,36.3548202514648),(-93.1742477416992,-147.,18.5335388183594),(-87.7682189941406,-147.,36.3548164367676),(-78.9893035888672,-147.,52.7789878845215),(-67.1748809814453,-147.,67.1749114990234),(-78.9893035888672,-193.,52.7789916992188),(-67.1748809814453,-193.,67.1749038696289),(-52.7789611816406,-193.,78.9893264770508),(-36.3547668457031,-193.,87.7682189941406),(-52.7789535522461,-147.,78.9893264770508),(-36.3547706604004,-147.,87.7682189941406),(-18.5334873199463,-147.,93.1742477416992),(0.,-147.,95.),(-18.5334815979004,-193.,93.1742477416992),(0.,-193.,95.),(18.5335426330566,-193.,93.1742324829102),(36.3548278808594,-193.,87.7682037353516),(18.5335388183594,-147.,93.1742324829102),(36.3548240661621,-147.,87.7682037353516),(52.7789993286133,-147.,78.9892959594727),(67.1749114990234,-147.,67.1748733520508),(52.7790031433105,-193.,78.9892959594727),(67.1749114990234,-193.,67.1748733520508),(78.9893417358398,-193.,52.7789497375488),(87.7682418823242,-193.,36.3547630310059),(78.9893417358398,-147.,52.7789459228516),(87.7682418823242,-147.,36.3547592163086),(93.1742706298828,-147.,18.5334796905518)));
#110=IFCINDEXEDPOLYGONALFACE((1,2,61,60,59,58,53,52,51,50,45,44,43,42,37,36,35,34,29,28,27,26,21,20,19,18,13,12,11,10,5,4));
#111=IFCINDEXEDPOLYGONALFACE((1,3,64,2));
#112=IFCINDEXEDPOLYGONALFACE((4,6,3,1));
#113=IFCINDEXEDPOLYGONALFACE((5,7,6,4));
#114=IFCINDEXEDPOLYGONALFACE((64,3,6,7,8,9,14,15,16,17,22,23,24,25,30,31,32,33,38,39,40,41,46,47,48,49,54,55,56,57,62,63));
#115=IFCINDEXEDPOLYGONALFACE((10,8,7,5));
#116=IFCINDEXEDPOLYGONALFACE((11,9,8,10));
#117=IFCINDEXEDPOLYGONALFACE((12,14,9,11));
#118=IFCINDEXEDPOLYGONALFACE((13,15,14,12));
#119=IFCINDEXEDPOLYGONALFACE((18,16,15,13));
#120=IFCINDEXEDPOLYGONALFACE((19,17,16,18));
#121=IFCINDEXEDPOLYGONALFACE((20,22,17,19));
#122=IFCINDEXEDPOLYGONALFACE((21,23,22,20));
#123=IFCINDEXEDPOLYGONALFACE((26,24,23,21));
#124=IFCINDEXEDPOLYGONALFACE((27,25,24,26));
#125=IFCINDEXEDPOLYGONALFACE((28,30,25,27));
#126=IFCINDEXEDPOLYGONALFACE((29,31,30,28));
#127=IFCINDEXEDPOLYGONALFACE((34,32,31,29));
#128=IFCINDEXEDPOLYGONALFACE((35,33,32,34));
#129=IFCINDEXEDPOLYGONALFACE((36,38,33,35));
#130=IFCINDEXEDPOLYGONALFACE((37,39,38,36));
#131=IFCINDEXEDPOLYGONALFACE((42,40,39,37));
#132=IFCINDEXEDPOLYGONALFACE((43,41,40,42));
#133=IFCINDEXEDPOLYGONALFACE((44,46,41,43));
#134=IFCINDEXEDPOLYGONALFACE((45,47,46,44));
#135=IFCINDEXEDPOLYGONALFACE((50,48,47,45));
#136=IFCINDEXEDPOLYGONALFACE((51,49,48,50));
#137=IFCINDEXEDPOLYGONALFACE((52,54,49,51));
#138=IFCINDEXEDPOLYGONALFACE((53,55,54,52));
#139=IFCINDEXEDPOLYGONALFACE((58,56,55,53));
#140=IFCINDEXEDPOLYGONALFACE((59,57,56,58));
#141=IFCINDEXEDPOLYGONALFACE((60,62,57,59));
#142=IFCINDEXEDPOLYGONALFACE((61,63,62,60));
#143=IFCINDEXEDPOLYGONALFACE((2,64,63,61));
#144=IFCPOLYGONALFACESET(#109,$,(#110,#111,#112,#113,#114,#115,#116,#117,#118,#119,#120,#121,#122,#123,#124,#125,#126,#127,#128,#129,#130,#131,#132,#133,#134,#135,#136,#137,#138,#139,#140,#141,#142,#143),$);
#145=IFCCARTESIANPOINTLIST3D(((-50.,-99.5090713500977,142.500106811523),(50.,-99.5090713500977,142.500106811523),(-50.,-41.7316627502441,142.500106811523),(-50.,-99.5090713500977,55.5569267272949),(50.,-99.5090713500977,55.5569267272949),(-50.,-41.7316627502441,55.5569267272949),(50.,-41.7316627502441,55.5569267272949),(50.,-41.7316627502441,142.500106811523)));
#146=IFCINDEXEDPOLYGONALFACE((2,1,4,5));
#147=IFCINDEXEDPOLYGONALFACE((2,8,3,1));
#148=IFCINDEXEDPOLYGONALFACE((1,3,6,4));
#149=IFCINDEXEDPOLYGONALFACE((5,4,6,7));
#150=IFCINDEXEDPOLYGONALFACE((3,8,7,6));
#151=IFCINDEXEDPOLYGONALFACE((8,2,5,7));
#152=IFCPOLYGONALFACESET(#145,$,(#146,#147,#148,#149,#150,#151),$);
#153=IFCCARTESIANPOINTLIST3D(((72.5908279418945,-21.6655246913433,-48.5036447644234),(80.6585550308228,-39.8186221718788,-53.894329816103),(68.5944631695747,-39.8186296224594,-68.5944631695747),(61.7334097623825,-21.6655246913433,-61.7334358394146),(52.4999238550663,-5.75418770313263,-52.4999424815178),(53.8943111896515,-39.8186221718788,-80.6585624814034),(48.5036261379719,-21.6655246913433,-72.5908204913139),(41.2489287555218,-5.75418025255203,-61.7334060370922),(37.1230468153954,-39.8186296224594,-89.6229967474937),(33.409871160984,-21.6655246913433,-80.6586146354675),(72.8195384144783,-59.5159083604813,-72.8195384144783),(57.2139397263527,-59.5159158110619,-85.6267213821411),(39.4096411764622,-59.5159083604813,-95.1433107256889),(18.9251583069563,-39.8186333477497,-95.1432734727859),(20.0908556580544,-59.5159158110619,-101.),(58.3348013460636,-80.,-87.3042047023773),(40.1816964149475,-80.,-97.),(20.4844437539577,-80.,-102.982342243195),(57.2139360010624,-100.484885275364,-85.6267213821411),(39.4096374511719,-100.484885275364,-95.1433032751083),(20.0908537954092,-100.484885275364,-101.),(53.8943074643612,-120.182149112225,-80.6585624814034),(37.1230430901051,-120.182149112225,-89.6229892969131),(18.9251601696014,-120.182149112225,-95.1432660222054),(48.5036298632622,-138.33524286747,-72.5908279418945),(33.4098786115646,-138.33524286747,-80.6586220860481),(17.0321986079216,-138.335257768631,-85.6267288327217),(28.4127555787563,-154.246598482132,-68.5944780707359),(14.484697021544,-154.246598482132,-72.8195086121559),(41.2489362061024,-154.246598482132,-61.7334060370922),(32.4090905487537,-167.304694652557,-48.5036335885525),(22.3237592726946,-167.304694652557,-53.8943484425545),(11.3805495202541,-167.304694652557,-57.2139285504818),(0.,-167.304694652557,-58.3348199725151),(0.,-154.246598482132,-74.2461234331131),(0.,-138.33524286747,-87.3042643070221),(-11.3805653527379,-167.304694652557,-57.2139360010624),(-14.484716579318,-154.246598482132,-72.8195086121559),(-17.0322302728891,-138.335257768631,-85.6267288327217),(-18.9251881092787,-120.182149112225,-95.1432660222054),(-28.4127797931433,-154.246598482132,-68.5944780707359),(-33.4099046885967,-138.33524286747,-80.6586146354675),(0.,-100.484885275364,-102.982379496098),(0.,-120.182149112225,-97.),(-37.1230840682983,-120.182149112225,-89.6229818463326),(-39.4096672534943,-100.484885275364,-95.1433107256889),(0.,-80.,-105.),(-20.0908817350864,-100.484885275364,-101.),(-40.1817373931408,-80.,-97.),(-20.0908798724413,-59.5159158110619,-101.),(-20.4844791442156,-80.,-102.982327342033),(0.,-59.5159158110619,-102.982379496098),(-18.9251899719238,-39.8186333477497,-95.1432734727859),(0.,-39.8186333477497,-97.),(0.,-21.6655246913433,-87.3042494058609),(-17.0322395861149,-21.6655246913433,-85.6267213821411),(17.0321930199862,-21.6655246913433,-85.6267213821411),(0.,-5.75418770313263,-74.2461234331131),(-14.4847203046083,-5.75418770313263,-72.8195011615753),(-11.3805737346411,7.30390101671219,-57.2139285504818),(11.3805430009961,7.30390101671219,-57.2139248251915),(14.4846895709634,-5.75418770313263,-72.8195011615753),(28.4127499908209,-5.75418770313263,-68.5944780707359),(22.3237555474043,7.30390101671219,-53.8943447172642),(7.83905200660229,17.,-39.4096486270428),(0.,7.30390846729279,-58.3348125219345),(0.,17.,-40.1817299425602),(15.3768677264452,17.,-37.123080343008),(4.,22.98204600811,-20.0908556580544),(-7.83908367156982,17.,-39.4096486270428),(-4.,22.98204600811,-20.0908575206995),(-22.3237872123718,7.30390101671219,-53.8943484425545),(-15.3768993914127,17.,-37.1230728924274),(-7.83906783908606,22.98204600811,-18.9251750707626),(0.,25.,0.),(-3.32302973646018E-19,22.98204600811,-20.4844605177641),(7.83906783908606,22.98204600811,18.9251843839884),(4.,22.98204600811,20.0908668339252),(-3.32302973646018E-19,22.98204600811,20.484471693635),(14.484697021544,22.98204600811,-14.4846979528666),(17.0321986079216,22.98204600811,-11.3805532455444),(18.9251638948917,22.98204600811,-7.83906131982803),(20.0908463448286,22.98204600811,-4.),(11.3805495202541,22.98204600811,-17.032204195857),(7.83906038850546,22.98204600811,-18.9251694828272),(-11.3805653527379,22.98204600811,-17.0322097837925),(-14.4847128540277,22.98204600811,-14.4847026094794),(-17.0322135090828,22.98204600811,-11.3805569708347),(-18.9251862466335,22.98204600811,-7.83906318247318),(-20.0908686965704,22.98204600811,-4.),(-20.4844735562801,22.98204600811,0.),(-20.0908686965704,22.9820534586906,4.),(-18.9251862466335,22.9820385575294,7.8390697017312),(-14.4847128540277,22.98204600811,14.48471006006),(-17.0322135090828,22.98204600811,11.3805634900928),(-11.3805653527379,22.98204600811,17.0322135090828),(-7.83906783908606,22.98204600811,18.9251825213432),(-4.,22.98204600811,20.0908668339252),(11.3805653527379,22.98204600811,17.0322153717279),(14.4847128540277,22.98204600811,14.48471006006),(17.0322209596634,22.98204600811,11.3805625587702),(18.9251936972141,22.98204600811,7.83906597644091),(20.4844735562801,22.98204600811,0.),(20.0908798724413,22.98204600811,4.),(39.4096374511719,17.,-7.83907063305378),(37.1230654418468,17.,-15.3768863528967),(40.181752294302,17.,0.),(57.2139210999012,7.30390101671219,-11.3805579021573),(53.8943223655224,7.30390101671219,-22.3237667232752),(58.3348721265793,7.30390101671219,0.),(39.4096747040749,17.,7.83906038850546),(57.2139769792557,7.30390101671219,11.3805495202541),(72.8196054697037,-5.75418025255203,14.4846923649311),(74.2461159825325,-5.75418025255203,0.),(72.8194862604141,-5.75418025255203,-14.4847091287374),(87.3043015599251,-21.6655246913433,0.),(85.6267064809799,-21.6655246913433,-17.0322153717279),(85.6267809867859,-21.6655246913433,17.0321930199862),(95.1433703303337,-39.8186221718788,18.9251620322466),(97.,-39.8186221718788,0.),(95.143236219883,-39.8186221718788,-18.9251750707626),(89.6229818463326,-39.8186296224594,-37.1230617165565),(80.6586146354675,-21.6655246913433,-33.4098935127258),(68.5944780707359,-5.75418025255203,-28.4127686172724),(61.7333874106407,-5.75418025255203,-41.2489399313927),(48.5036224126816,7.30390101671219,-32.4090868234634),(41.2489362061024,7.30390101671219,-41.248943656683),(28.4127648919821,17.,-28.4127742052078),(32.4090830981731,7.30390101671219,-48.5036298632622),(22.3237592726946,17.,-33.4098860621452),(33.409871160984,17.,-22.3237741738558),(101.,-59.5159158110619,-20.0908649712801),(95.1433032751083,-59.5159083604813,-39.4096523523331),(85.6267288327217,-59.5159083604813,-57.2139546275139),(87.3042047023773,-80.,-58.3348125219345),(74.2461234331131,-80.,-74.2461234331131),(97.,-80.,-40.1817224919796),(85.6267288327217,-100.484877824783,-57.2139509022236),(72.8195384144783,-100.484877824783,-72.8195384144783),(95.1433032751083,-100.484877824783,-39.4096523523331),(68.5944557189941,-120.182149112225,-68.5944557189941),(80.6585550308228,-120.182149112225,-53.894329816103),(61.7334172129631,-138.33524286747,-61.7334358394146),(72.5908279418945,-138.33524286747,-48.5036447644234),(80.6586146354675,-138.33524286747,-33.4098935127258),(89.6229818463326,-120.182149112225,-37.1230654418468),(95.1432287693024,-120.182149112225,-18.9251787960529),(85.6266990303993,-138.33524286747,-17.0322190970182),(97.,-120.182149112225,0.),(101.,-100.484885275364,-20.0908686965704),(87.3043015599251,-138.33524286747,0.),(85.6267809867859,-138.33524286747,17.0321892946959),(101.,-100.484885275364,20.0908407568932),(95.1433628797531,-120.182149112225,18.9251583069563),(80.6586667895317,-138.33524286747,33.4098748862743),(95.1433777809143,-100.484885275364,39.4096337258816),(89.6230936050415,-120.182149112225,37.1230579912663),(68.5945674777031,-154.246598482132,28.4127667546272),(72.8196129202843,-154.246598482132,14.4846895709634),(74.2462277412415,-154.246598482132,0.),(53.8943894207478,-167.304694652557,22.32376486063),(57.2139918804169,-167.304694652557,11.3805467262864),(58.3348758518696,-167.304694652557,0.),(72.8194937109947,-154.246598482132,-14.4847109913826),(57.2139285504818,-167.304694652557,-11.3805616274476),(68.5944855213165,-154.246598482132,-28.4127723425627),(53.8943260908127,-167.304694652557,-22.3237704485655),(61.7333948612213,-154.246598482132,-41.248943656683),(48.5036261379719,-167.304694652557,-32.4090905487537),(52.4999350309372,-154.246598482132,-52.4999499320984),(41.248943656683,-167.304694652557,-41.2489473819733),(28.4127797931433,-177.,-28.4127779304981),(22.32376486063,-177.,-33.4098935127258),(33.4098823368549,-177.,-22.3237778991461),(14.4847044721246,-182.982832193375,-14.4847026094794),(11.3805579021573,-182.982832193375,-17.0322060585022),(17.0322060585022,-182.982832193375,-11.3805588334799),(0.,-185.,0.),(18.9251713454723,-182.982832193375,-7.83906690776348),(20.0908537954092,-182.982832193375,-4.),(7.83906783908606,-182.982832193375,-18.9251732081175),(4.,-182.982832193375,-20.0908575206995),(0.,-182.982832193375,-20.4844642430544),(-7.83906038850546,-182.982832193375,-18.9251787960529),(-4.,-182.982832193375,-20.0908593833447),(-11.3805579021573,-182.982832193375,-17.0322116464376),(-14.4847044721246,-182.982832193375,-14.4847091287374),(-17.0322060585022,-182.982832193375,-11.3805625587702),(-18.9251787960529,-182.982832193375,-7.83906783908606),(-20.0908612459898,-182.982832193375,-4.),(-20.4844567924738,-182.982832193375,0.),(-20.0908612459898,-182.982832193375,4.),(-18.9251787960529,-182.982832193375,7.83906504511833),(-17.0322060585022,-182.982832193375,11.3805579021573),(-11.3805579021573,-182.982832193375,17.0322116464376),(-14.4847044721246,-182.982832193375,14.4847044721246),(-7.83906038850546,-182.982832193375,18.9251787960529),(0.,-182.982832193375,20.4844679683447),(-4.,-182.982832193375,20.0908649712801),(7.83907528966665,-182.982832193375,18.9251806586981),(4.,-182.982832193375,20.0908649712801),(14.4847203046083,-182.982832193375,14.4847044721246),(11.3805737346411,-182.982832193375,17.0322135090828),(17.0322302728891,-182.982832193375,11.3805569708347),(20.0908873230219,-182.982832193375,4.),(18.9252030104399,-182.982832193375,7.83906131982803),(20.4844903200865,-182.982832193375,0.),(39.4096523523331,-177.,-7.83907528966665),(37.1230728924274,-177.,-15.3768910095096),(40.1817671954632,-177.,0.),(39.4096821546555,-177.,7.83905480057001),(37.1231250464916,-177.,15.3768770396709),(48.5036708414555,-167.304694652557,32.4090905487537),(33.4099195897579,-177.,22.3237723112106),(28.4128114581108,-177.,28.4127779304981),(52.5000132620335,-154.246598482132,52.4999760091305),(41.248980909586,-167.304694652557,41.2489511072636),(61.7334879934788,-138.33524286747,61.7334321141243),(61.7334879934788,-154.246598482132,41.2489548325539),(72.5908875465393,-138.33524286747,48.5036410391331),(80.6586518883705,-120.182149112225,53.8943596184254),(72.8195831179619,-100.484885275364,72.8195458650589),(68.5945376753807,-120.182149112225,68.5945078730583),(85.6267735362053,-100.484885275364,57.213943451643),(87.3043015599251,-80.,58.3348274230957),(72.8195831179619,-59.5159158110619,72.8195458650589),(74.2462128400803,-80.,74.2461606860161),(97.,-80.,40.181715041399),(95.1433777809143,-59.5159158110619,39.4096337258816),(85.6267735362053,-59.5159158110619,57.2139397263527),(80.6586518883705,-39.81863707304,53.8943596184254),(61.7334805428982,-21.6655246913433,61.7334321141243),(68.5945451259613,-39.8186296224594,68.5945004224777),(89.6230936050415,-39.8186296224594,37.1230617165565),(80.6586742401123,-21.6655246913433,33.4098748862743),(101.,-59.5159158110619,20.0908444821835),(72.5908875465393,-21.6655246913433,48.5036410391331),(68.5945600271225,-5.75418025255203,28.4127704799175),(48.5036671161652,7.30390101671219,32.409094274044),(61.7334768176079,-5.75418025255203,41.2489585578442),(52.5000020861626,-5.75418770313263,52.4999797344208),(28.4127946943045,17.,28.4127816557884),(41.2489734590054,7.30390101671219,41.2489548325539),(53.8943856954575,7.30390101671219,22.3237685859203),(37.1231101453304,17.,15.3768807649612),(33.4099158644676,17.,22.3237760365009),(32.4091129004955,7.30390101671219,48.5036447644234),(22.3237965255976,17.,33.4098972380161),(15.3768993914127,17.,37.1230877935886),(22.3237928003073,7.30390101671219,53.894367069006),(28.4128040075302,-5.75418770313263,68.5945302248001),(41.2489920854568,-5.75419515371323,61.7334432899952),(48.5036820173264,-21.6655246913433,72.5908428430557),(33.4099233150482,-21.6655321419239,80.6586369872093),(37.1231064200401,-39.81863707304,89.6230489015579),(53.8943894207478,-39.81863707304,80.6586220860481),(57.2139844298363,-59.5159158110619,85.6267288327217),(39.4096858799458,-59.5159158110619,95.1433330774307),(40.1817709207535,-80.,97.),(58.3348795771599,-80.,87.3042643070221),(39.4096896052361,-100.484885275364,95.1433405280113),(57.2139881551266,-100.484885275364,85.6267288327217),(53.8943856954575,-120.182149112225,80.6586220860481),(37.1231026947498,-120.182156562805,89.6230563521385),(33.4099307656288,-138.335257768631,80.6586295366287),(48.5036931931973,-138.33524286747,72.5908353924751),(28.4128114581108,-154.246598482132,68.5945302248001),(41.2489995360374,-154.246598482132,61.7334432899952),(32.4091203510761,-167.304694652557,48.5036410391331),(22.3238039761782,-167.304694652557,53.894367069006),(15.3769068419933,-177.,37.1230840682983),(22.3238039761782,-177.,33.4098935127258),(7.83908367156982,-177.,39.4096560776234),(0.,-177.,40.1817448437214),(11.3805821165442,-167.304694652557,57.2139509022236),(0.,-154.246598482132,74.2461755871773),(0.,-167.304694652557,58.3348385989666),(14.4847286865115,-154.246598482132,72.8195533156395),(17.0322544872761,-138.335257768631,85.6267362833023),(0.,-138.335257768631,87.3042717576027),(18.9251992851496,-120.182149112225,95.1433256268501),(0.,-100.484885275364,102.98240929842),(0.,-120.182149112225,97.),(20.0909022241831,-100.484885275364,101.),(20.4844959080219,-80.,102.982394397259),(20.0909003615379,-59.5159158110619,101.),(0.,-59.5159158110619,102.98240929842),(0.,-80.,105.),(18.9251974225044,-39.8186333477497,95.1433181762695),(0.,-21.6655321419239,87.3042866587639),(0.,-39.8186333477497,97.),(17.0322470366955,-21.6655246913433,85.6267437338829),(14.4847240298986,-5.75418770313263,72.8195607662201),(0.,7.30389356613159,58.3348460495472),(0.,-5.75418770313263,74.2461755871773),(11.3805737346411,7.30390101671219,57.2139546275139),(7.83907528966665,17.,39.4096598029137),(0.,17.,40.1817448437214),(-7.83906038850546,17.,39.409663528204),(-11.3805495202541,7.30390101671219,57.2139546275139),(-15.376883558929,17.,37.1230989694595),(-22.3237723112106,7.30390101671219,53.8943707942963),(-28.4127723425627,-5.75418770313263,68.5945153236389),(-14.484697021544,-5.75418770313263,72.8195607662201),(-17.0321986079216,-21.6655246913433,85.6267437338829),(-33.4098786115646,-21.6655321419239,80.6586518883705),(-37.1230579912663,-39.81863707304,89.6230340003967),(-18.925167620182,-39.8186333477497,95.1433107256889),(-39.4096374511719,-59.5159158110619,95.1433405280113),(-20.0908463448286,-59.5159158110619,101.),(-40.1817113161087,-80.,97.),(-20.484447479248,-80.,102.982394397259),(-39.4096374511719,-100.484885275364,95.1433479785919),(-20.0908482074738,-100.484885275364,101.),(-37.1230579912663,-120.182149112225,89.6230489015579),(-18.9251657575369,-120.182149112225,95.1433181762695),(-33.4098748862743,-138.335257768631,80.6586444377899),(-17.0321930199862,-138.335257768631,85.6267362833023),(-14.4846895709634,-154.246598482132,72.8195533156395),(-28.4127648919821,-154.246598482132,68.5945153236389),(-22.3237611353397,-167.304694652557,53.894367069006),(-11.3805430009961,-167.304694652557,57.2139509022236),(-15.3768770396709,-177.,37.1230915188789),(-7.83905200660229,-177.,39.4096598029137),(-22.3237723112106,-177.,33.4098972380161),(-28.4127797931433,-177.,28.4127853810787),(-32.4090905487537,-167.304694652557,48.5036447644234),(-41.2489511072636,-167.304694652557,41.2489585578442),(-41.2489473819733,-154.246598482132,61.7334358394146),(-48.5036373138428,-167.304694652557,32.4091054499149),(-33.4098860621452,-177.,22.3237816244364),(-52.4999611079693,-154.246598482132,52.4999722838402),(-72.5908353924751,-138.335257768631,48.5036633908749),(-61.7334172129631,-154.246598482132,41.2489585578442),(-61.7334246635437,-138.335257768631,61.7334581911564),(-68.5944855213165,-120.182156562805,68.5945078730583),(-48.5036373138428,-138.335257768631,72.5908502936363),(-85.6267288327217,-100.484892725945,57.2139732539654),(-80.6585922837257,-120.182171463966,53.8943633437157),(-53.8943447172642,-120.182171463966,80.6586146354675),(-57.213943451643,-100.484885275364,85.6267437338829),(-74.2461383342743,-80.,74.2461681365967),(-72.8195458650589,-100.484892725945,72.8195682168007),(-87.3042419552803,-80.,58.3348423242569),(-89.6230265498161,-120.182156562805,37.1230840682983),(-95.1433330774307,-100.484892725945,39.4096709787846),(-72.8195458650589,-59.5159232616425,72.8195682168007),(-95.1433330774307,-59.5159232616425,39.4096709787846),(-97.,-80.,40.1817448437214),(-85.6267288327217,-59.5159232616425,57.2139695286751),(-80.6586071848869,-39.8186407983303,53.8943633437157),(-68.5944855213165,-39.81863707304,68.5945004224777),(-61.7334358394146,-21.6655321419239,61.7334581911564),(-80.6586295366287,-21.6655321419239,33.409908413887),(-89.6230265498161,-39.81863707304,37.1230877935886),(-72.5908279418945,-21.6655321419239,48.5036633908749),(-61.7334246635437,-5.75418770313263,41.2489622831345),(-53.8943409919739,-39.8186407983303,80.6586146354675),(-48.5036447644234,-21.6655321419239,72.5908577442169),(-41.2489585578442,-5.75419515371323,61.7334358394146),(-48.5036410391331,7.30390101671219,32.4091091752052),(-52.4999722838402,-5.75418770313263,52.4999760091305),(-41.2489585578442,7.30390101671219,41.2489622831345),(-28.4127797931433,17.,28.412789106369),(-32.4090979993343,7.30390101671219,48.5036484897137),(-22.3237797617912,17.,33.4099009633064),(-33.4099009633064,17.,22.3237853497267),(-37.1230915188789,17.,15.3768975287676),(-53.8943633437157,7.30390101671219,22.3237834870815),(-68.5945004224777,-5.75418770313263,28.412789106369),(-57.2139471769333,7.30390101671219,11.3805709406734),(-72.8195309638977,-5.75418770313263,14.4847221672535),(-85.6267288327217,-21.6655321419239,17.0322395861149),(-74.2461606860161,-5.75418770313263,0.),(-87.3042717576027,-21.6655321419239,0.),(-72.8195458650589,-5.75418770313263,-14.4846886396408),(-85.6267288327217,-21.6655321419239,-17.0321930199862),(-57.2139620780945,7.30390101671219,-11.3805504515767),(-97.,-39.81863707304,0.),(-95.1432883739471,-39.81863707304,18.925191834569),(-95.1433032751083,-39.81863707304,-18.9251620322466),(-80.6586369872093,-21.6655321419239,-33.4098748862743),(-89.6230265498161,-39.81863707304,-37.1230505406857),(-101.,-59.5159232616425,-20.0908500701189),(-102.982401847839,-59.5159158110619,0.),(-95.1433330774307,-59.5159158110619,-39.4096374511719),(-97.,-80.,-40.1817038655281),(-102.982372045517,-80.,-20.4844456166029),(-105.,-80.,0.),(-101.,-59.5159158110619,20.090889185667),(-102.982364594936,-80.,20.4844828695059),(-101.,-100.484885275364,-20.0908537954092),(-102.982401847839,-100.484885275364,0.),(-101.,-100.484885275364,20.0908854603767),(-97.,-120.182171463966,0.),(-95.1432958245277,-120.182171463966,18.9251881092787),(-95.1433032751083,-120.182156562805,-18.9251657575369),(-87.3042717576027,-138.335257768631,0.),(-85.6267288327217,-138.335257768631,17.0322339981794),(-80.6586295366287,-138.335257768631,33.409908413887),(-74.2461457848549,-154.246598482132,0.),(-72.8195309638977,-154.246598482132,14.4847193732858),(-68.5945004224777,-154.246598482132,28.4127853810787),(-58.3348348736763,-167.304694652557,0.),(-57.213943451643,-167.304694652557,11.3805672153831),(-53.8943596184254,-167.304694652557,22.3237797617912),(-40.1817373931408,-177.,0.),(-39.4096523523331,-177.,7.8390734270215),(-37.1230840682983,-177.,15.3768919408321),(-39.4096598029137,-177.,-7.83906411379576),(-53.894367069006,-167.304694652557,-22.3237667232752),(-37.1230877935886,-177.,-15.3768816962838),(-57.2139471769333,-167.304694652557,-11.3805551081896),(-72.8195384144783,-154.246598482132,-14.4846914336085),(-85.6267362833023,-138.33524286747,-17.0321986079216),(-80.6586369872093,-138.33524286747,-33.4098748862743),(-68.5945004224777,-154.246598482132,-28.4127593040466),(-89.6230265498161,-120.182156562805,-37.123054265976),(-80.6586071848869,-120.182149112225,-53.8943335413933),(-72.5908502936363,-138.335257768631,-48.5036335885525),(-95.1433330774307,-100.484885275364,-39.4096374511719),(-87.3042419552803,-80.,-58.3348050713539),(-85.6267362833023,-100.484885275364,-57.2139360010624),(-72.8195607662201,-59.5159158110619,-72.8195309638977),(-74.2461606860161,-80.,-74.2461159825325),(-72.8195607662201,-100.484885275364,-72.8195309638977),(-57.2139658033848,-59.5159158110619,-85.6267213821411),(-58.3348385989666,-80.,-87.3042121529579),(-57.2139658033848,-100.484885275364,-85.6267213821411),(-53.8943558931351,-120.182149112225,-80.6585624814034),(-68.5945004224777,-120.182156562805,-68.5944631695747),(-61.7334470152855,-138.335257768631,-61.7334172129631),(-48.5036559402943,-138.335257768631,-72.5908279418945),(-41.2489548325539,-154.246598482132,-61.7334060370922),(-52.4999648332596,-154.246598482132,-52.4999499320984),(-22.3237760365009,-167.304694652557,-53.8943558931351),(-32.4090979993343,-167.304694652557,-48.5036335885525),(-41.2489511072636,-167.304694652557,-41.2489473819733),(-48.5036373138428,-167.304694652557,-32.4090905487537),(-61.7334172129631,-154.246598482132,-41.2489399313927),(-28.4127797931433,-177.,-28.4127779304981),(-33.4098972380161,-177.,-22.3237741738558),(-22.3237797617912,-177.,-33.4098935127258),(-15.3768910095096,-177.,-37.123080343008),(-7.83907528966665,-177.,-39.4096523523331),(3.13022481059496E-19,-177.,-40.1817299425602),(7.83906038850546,-177.,-39.4096523523331),(15.3768770396709,-177.,-37.1230840682983),(-68.5945004224777,-39.81863707304,-68.5944706201553),(-85.6267362833023,-59.5159158110619,-57.2139397263527),(-39.4096672534943,-59.5159158110619,-95.1433181762695),(-53.8943596184254,-39.8186333477497,-80.6585624814034),(-37.1230840682983,-39.8186296224594,-89.6229892969131),(-48.5036596655846,-21.6655321419239,-72.5908204913139),(-61.7334581911564,-21.6655321419239,-61.7334172129631),(-52.4999722838402,-5.75418770313263,-52.4999424815178),(-28.4127872437239,-5.75418770313263,-68.5944780707359),(-33.4099158644676,-21.6655246913433,-80.6586071848869),(-41.2489585578442,-5.75418025255203,-61.7334060370922),(-32.4091054499149,7.30390101671219,-48.5036298632622),(-22.3237872123718,17.,-33.4098860621452),(-41.2489585578442,7.30390101671219,-41.248943656683),(-28.4127872437239,17.,-28.4127742052078),(-48.5036410391331,7.30390101671219,-32.4090868234634),(-33.4099009633064,17.,-22.3237704485655),(-37.1230915188789,17.,-15.3768770396709),(-53.8943745195866,7.30390101671219,-22.3237629979849),(-61.7334246635437,-5.75418770313263,-41.2489362061024),(-68.5945004224777,-5.75418770313263,-28.4127537161112),(-39.4096672534943,17.,-7.83905945718288),(-72.5908428430557,-21.6655321419239,-48.5036335885525),(-58.3348423242569,7.30390101671219,0.),(-40.1817485690117,17.,0.),(-39.4096523523331,17.,7.83907901495695),(-80.6586071848869,-39.8186333477497,-53.8943335413933),(-57.213943451643,-59.5159158110619,85.6267437338829),(-58.3348162472248,-80.,87.3042643070221),(102.982431650162,-59.5159158110619,0.),(102.982439100742,-80.,20.4844456166029),(105.,-80.,0.),(102.982327342033,-80.,-20.4844661056995),(102.982431650162,-100.484885275364,0.)));
#154=IFCINDEXEDPOLYGONALFACE((1,2,3));
#155=IFCINDEXEDPOLYGONALFACE((1,4,5));
#156=IFCINDEXEDPOLYGONALFACE((3,6,7));
#157=IFCINDEXEDPOLYGONALFACE((4,7,8));
#158=IFCINDEXEDPOLYGONALFACE((7,6,9));
#159=IFCINDEXEDPOLYGONALFACE((8,7,10));
#160=IFCINDEXEDPOLYGONALFACE((3,11,12));
#161=IFCINDEXEDPOLYGONALFACE((12,13,9));
#162=IFCINDEXEDPOLYGONALFACE((10,9,14));
#163=IFCINDEXEDPOLYGONALFACE((9,13,15));
#164=IFCINDEXEDPOLYGONALFACE((12,16,17));
#165=IFCINDEXEDPOLYGONALFACE((13,17,18));
#166=IFCINDEXEDPOLYGONALFACE((19,20,17));
#167=IFCINDEXEDPOLYGONALFACE((17,20,21));
#168=IFCINDEXEDPOLYGONALFACE((19,22,23));
#169=IFCINDEXEDPOLYGONALFACE((23,24,21));
#170=IFCINDEXEDPOLYGONALFACE((22,25,26));
#171=IFCINDEXEDPOLYGONALFACE((26,27,24));
#172=IFCINDEXEDPOLYGONALFACE((26,28,29));
#173=IFCINDEXEDPOLYGONALFACE((30,28,26));
#174=IFCINDEXEDPOLYGONALFACE((30,31,32));
#175=IFCINDEXEDPOLYGONALFACE((32,33,29));
#176=IFCINDEXEDPOLYGONALFACE((29,33,34));
#177=IFCINDEXEDPOLYGONALFACE((29,35,36));
#178=IFCINDEXEDPOLYGONALFACE((34,37,38));
#179=IFCINDEXEDPOLYGONALFACE((36,35,38));
#180=IFCINDEXEDPOLYGONALFACE((24,27,36));
#181=IFCINDEXEDPOLYGONALFACE((36,39,40));
#182=IFCINDEXEDPOLYGONALFACE((38,41,42));
#183=IFCINDEXEDPOLYGONALFACE((40,39,42));
#184=IFCINDEXEDPOLYGONALFACE((43,44,40));
#185=IFCINDEXEDPOLYGONALFACE((40,45,46));
#186=IFCINDEXEDPOLYGONALFACE((47,43,48));
#187=IFCINDEXEDPOLYGONALFACE((48,46,49));
#188=IFCINDEXEDPOLYGONALFACE((50,51,49));
#189=IFCINDEXEDPOLYGONALFACE((47,51,50));
#190=IFCINDEXEDPOLYGONALFACE((18,47,52));
#191=IFCINDEXEDPOLYGONALFACE((18,21,43));
#192=IFCINDEXEDPOLYGONALFACE((14,15,52));
#193=IFCINDEXEDPOLYGONALFACE((52,50,53));
#194=IFCINDEXEDPOLYGONALFACE((14,54,55));
#195=IFCINDEXEDPOLYGONALFACE((54,53,56));
#196=IFCINDEXEDPOLYGONALFACE((57,55,58));
#197=IFCINDEXEDPOLYGONALFACE((58,55,56));
#198=IFCINDEXEDPOLYGONALFACE((58,59,60));
#199=IFCINDEXEDPOLYGONALFACE((61,62,58));
#200=IFCINDEXEDPOLYGONALFACE((63,10,57));
#201=IFCINDEXEDPOLYGONALFACE((64,63,62));
#202=IFCINDEXEDPOLYGONALFACE((64,61,65));
#203=IFCINDEXEDPOLYGONALFACE((61,66,67));
#204=IFCINDEXEDPOLYGONALFACE((68,65,69));
#205=IFCINDEXEDPOLYGONALFACE((69,65,67));
#206=IFCINDEXEDPOLYGONALFACE((67,66,60));
#207=IFCINDEXEDPOLYGONALFACE((67,70,71));
#208=IFCINDEXEDPOLYGONALFACE((70,60,72));
#209=IFCINDEXEDPOLYGONALFACE((70,73,74));
#210=IFCINDEXEDPOLYGONALFACE((71,75,76));
#211=IFCINDEXEDPOLYGONALFACE((74,75,71));
#212=IFCINDEXEDPOLYGONALFACE((77,75,78));
#213=IFCINDEXEDPOLYGONALFACE((78,75,79));
#214=IFCINDEXEDPOLYGONALFACE((80,75,81));
#215=IFCINDEXEDPOLYGONALFACE((81,75,82));
#216=IFCINDEXEDPOLYGONALFACE((82,75,83));
#217=IFCINDEXEDPOLYGONALFACE((84,75,80));
#218=IFCINDEXEDPOLYGONALFACE((69,75,85));
#219=IFCINDEXEDPOLYGONALFACE((85,75,84));
#220=IFCINDEXEDPOLYGONALFACE((76,75,69));
#221=IFCINDEXEDPOLYGONALFACE((86,75,74));
#222=IFCINDEXEDPOLYGONALFACE((87,75,86));
#223=IFCINDEXEDPOLYGONALFACE((88,75,87));
#224=IFCINDEXEDPOLYGONALFACE((89,75,88));
#225=IFCINDEXEDPOLYGONALFACE((90,75,89));
#226=IFCINDEXEDPOLYGONALFACE((91,75,90));
#227=IFCINDEXEDPOLYGONALFACE((92,75,91));
#228=IFCINDEXEDPOLYGONALFACE((93,75,92));
#229=IFCINDEXEDPOLYGONALFACE((94,75,95));
#230=IFCINDEXEDPOLYGONALFACE((95,75,93));
#231=IFCINDEXEDPOLYGONALFACE((96,75,94));
#232=IFCINDEXEDPOLYGONALFACE((97,75,96));
#233=IFCINDEXEDPOLYGONALFACE((98,75,97));
#234=IFCINDEXEDPOLYGONALFACE((79,75,98));
#235=IFCINDEXEDPOLYGONALFACE((99,75,77));
#236=IFCINDEXEDPOLYGONALFACE((100,75,99));
#237=IFCINDEXEDPOLYGONALFACE((101,75,100));
#238=IFCINDEXEDPOLYGONALFACE((102,75,101));
#239=IFCINDEXEDPOLYGONALFACE((103,75,104));
#240=IFCINDEXEDPOLYGONALFACE((104,75,102));
#241=IFCINDEXEDPOLYGONALFACE((83,75,103));
#242=IFCINDEXEDPOLYGONALFACE((83,105,106));
#243=IFCINDEXEDPOLYGONALFACE((103,107,105));
#244=IFCINDEXEDPOLYGONALFACE((108,109,106));
#245=IFCINDEXEDPOLYGONALFACE((110,108,105));
#246=IFCINDEXEDPOLYGONALFACE((111,112,110));
#247=IFCINDEXEDPOLYGONALFACE((104,111,107));
#248=IFCINDEXEDPOLYGONALFACE((113,114,110));
#249=IFCINDEXEDPOLYGONALFACE((110,114,115));
#250=IFCINDEXEDPOLYGONALFACE((116,117,115));
#251=IFCINDEXEDPOLYGONALFACE((113,118,116));
#252=IFCINDEXEDPOLYGONALFACE((119,120,116));
#253=IFCINDEXEDPOLYGONALFACE((116,120,121));
#254=IFCINDEXEDPOLYGONALFACE((117,121,122));
#255=IFCINDEXEDPOLYGONALFACE((117,123,124));
#256=IFCINDEXEDPOLYGONALFACE((122,2,1));
#257=IFCINDEXEDPOLYGONALFACE((124,123,1));
#258=IFCINDEXEDPOLYGONALFACE((124,125,126));
#259=IFCINDEXEDPOLYGONALFACE((108,115,124));
#260=IFCINDEXEDPOLYGONALFACE((126,125,5));
#261=IFCINDEXEDPOLYGONALFACE((126,127,128));
#262=IFCINDEXEDPOLYGONALFACE((106,109,126));
#263=IFCINDEXEDPOLYGONALFACE((5,8,129));
#264=IFCINDEXEDPOLYGONALFACE((128,127,129));
#265=IFCINDEXEDPOLYGONALFACE((80,128,130));
#266=IFCINDEXEDPOLYGONALFACE((131,128,80));
#267=IFCINDEXEDPOLYGONALFACE((129,64,68));
#268=IFCINDEXEDPOLYGONALFACE((130,68,85));
#269=IFCINDEXEDPOLYGONALFACE((129,8,63));
#270=IFCINDEXEDPOLYGONALFACE((106,131,81));
#271=IFCINDEXEDPOLYGONALFACE((132,133,122));
#272=IFCINDEXEDPOLYGONALFACE((122,133,134));
#273=IFCINDEXEDPOLYGONALFACE((134,11,3));
#274=IFCINDEXEDPOLYGONALFACE((134,135,136));
#275=IFCINDEXEDPOLYGONALFACE((137,135,134));
#276=IFCINDEXEDPOLYGONALFACE((138,139,136));
#277=IFCINDEXEDPOLYGONALFACE((137,140,138));
#278=IFCINDEXEDPOLYGONALFACE((136,16,12));
#279=IFCINDEXEDPOLYGONALFACE((139,19,16));
#280=IFCINDEXEDPOLYGONALFACE((139,141,22));
#281=IFCINDEXEDPOLYGONALFACE((142,141,139));
#282=IFCINDEXEDPOLYGONALFACE((143,25,22));
#283=IFCINDEXEDPOLYGONALFACE((142,144,143));
#284=IFCINDEXEDPOLYGONALFACE((145,144,142));
#285=IFCINDEXEDPOLYGONALFACE((146,142,138));
#286=IFCINDEXEDPOLYGONALFACE((147,146,140));
#287=IFCINDEXEDPOLYGONALFACE((147,148,145));
#288=IFCINDEXEDPOLYGONALFACE((149,147,150));
#289=IFCINDEXEDPOLYGONALFACE((149,151,148));
#290=IFCINDEXEDPOLYGONALFACE((152,151,149));
#291=IFCINDEXEDPOLYGONALFACE((153,154,149));
#292=IFCINDEXEDPOLYGONALFACE((155,152,154));
#293=IFCINDEXEDPOLYGONALFACE((156,157,154));
#294=IFCINDEXEDPOLYGONALFACE((155,158,159));
#295=IFCINDEXEDPOLYGONALFACE((159,160,151));
#296=IFCINDEXEDPOLYGONALFACE((158,161,162));
#297=IFCINDEXEDPOLYGONALFACE((162,163,160));
#298=IFCINDEXEDPOLYGONALFACE((160,164,148));
#299=IFCINDEXEDPOLYGONALFACE((160,163,165));
#300=IFCINDEXEDPOLYGONALFACE((148,164,166));
#301=IFCINDEXEDPOLYGONALFACE((165,167,166));
#302=IFCINDEXEDPOLYGONALFACE((166,168,144));
#303=IFCINDEXEDPOLYGONALFACE((166,167,169));
#304=IFCINDEXEDPOLYGONALFACE((144,168,170));
#305=IFCINDEXEDPOLYGONALFACE((169,171,170));
#306=IFCINDEXEDPOLYGONALFACE((143,170,30));
#307=IFCINDEXEDPOLYGONALFACE((171,31,30));
#308=IFCINDEXEDPOLYGONALFACE((172,173,31));
#309=IFCINDEXEDPOLYGONALFACE((169,174,172));
#310=IFCINDEXEDPOLYGONALFACE((172,175,176));
#311=IFCINDEXEDPOLYGONALFACE((174,177,175));
#312=IFCINDEXEDPOLYGONALFACE((178,176,175));
#313=IFCINDEXEDPOLYGONALFACE((178,175,177));
#314=IFCINDEXEDPOLYGONALFACE((178,177,179));
#315=IFCINDEXEDPOLYGONALFACE((178,179,180));
#316=IFCINDEXEDPOLYGONALFACE((178,181,176));
#317=IFCINDEXEDPOLYGONALFACE((178,182,181));
#318=IFCINDEXEDPOLYGONALFACE((178,183,182));
#319=IFCINDEXEDPOLYGONALFACE((178,184,185));
#320=IFCINDEXEDPOLYGONALFACE((178,185,183));
#321=IFCINDEXEDPOLYGONALFACE((178,186,184));
#322=IFCINDEXEDPOLYGONALFACE((178,187,186));
#323=IFCINDEXEDPOLYGONALFACE((178,188,187));
#324=IFCINDEXEDPOLYGONALFACE((178,189,188));
#325=IFCINDEXEDPOLYGONALFACE((178,190,189));
#326=IFCINDEXEDPOLYGONALFACE((178,191,190));
#327=IFCINDEXEDPOLYGONALFACE((178,192,191));
#328=IFCINDEXEDPOLYGONALFACE((178,193,192));
#329=IFCINDEXEDPOLYGONALFACE((178,194,193));
#330=IFCINDEXEDPOLYGONALFACE((178,195,196));
#331=IFCINDEXEDPOLYGONALFACE((178,196,194));
#332=IFCINDEXEDPOLYGONALFACE((178,197,195));
#333=IFCINDEXEDPOLYGONALFACE((178,198,199));
#334=IFCINDEXEDPOLYGONALFACE((178,199,197));
#335=IFCINDEXEDPOLYGONALFACE((178,200,201));
#336=IFCINDEXEDPOLYGONALFACE((178,201,198));
#337=IFCINDEXEDPOLYGONALFACE((178,202,203));
#338=IFCINDEXEDPOLYGONALFACE((178,203,200));
#339=IFCINDEXEDPOLYGONALFACE((178,204,202));
#340=IFCINDEXEDPOLYGONALFACE((178,205,206));
#341=IFCINDEXEDPOLYGONALFACE((178,206,204));
#342=IFCINDEXEDPOLYGONALFACE((178,207,205));
#343=IFCINDEXEDPOLYGONALFACE((178,180,207));
#344=IFCINDEXEDPOLYGONALFACE((208,180,179));
#345=IFCINDEXEDPOLYGONALFACE((207,180,208));
#346=IFCINDEXEDPOLYGONALFACE((165,208,209));
#347=IFCINDEXEDPOLYGONALFACE((163,210,208));
#348=IFCINDEXEDPOLYGONALFACE((211,205,207));
#349=IFCINDEXEDPOLYGONALFACE((162,211,210));
#350=IFCINDEXEDPOLYGONALFACE((212,211,162));
#351=IFCINDEXEDPOLYGONALFACE((212,206,205));
#352=IFCINDEXEDPOLYGONALFACE((213,214,212));
#353=IFCINDEXEDPOLYGONALFACE((204,206,212));
#354=IFCINDEXEDPOLYGONALFACE((213,161,158));
#355=IFCINDEXEDPOLYGONALFACE((215,214,213));
#356=IFCINDEXEDPOLYGONALFACE((216,217,213));
#357=IFCINDEXEDPOLYGONALFACE((218,216,219));
#358=IFCINDEXEDPOLYGONALFACE((220,219,158));
#359=IFCINDEXEDPOLYGONALFACE((218,220,221));
#360=IFCINDEXEDPOLYGONALFACE((220,155,157));
#361=IFCINDEXEDPOLYGONALFACE((222,223,221));
#362=IFCINDEXEDPOLYGONALFACE((221,157,156));
#363=IFCINDEXEDPOLYGONALFACE((222,224,225));
#364=IFCINDEXEDPOLYGONALFACE((225,224,156));
#365=IFCINDEXEDPOLYGONALFACE((226,227,225));
#366=IFCINDEXEDPOLYGONALFACE((225,228,229));
#367=IFCINDEXEDPOLYGONALFACE((226,230,231));
#368=IFCINDEXEDPOLYGONALFACE((231,230,229));
#369=IFCINDEXEDPOLYGONALFACE((232,233,231));
#370=IFCINDEXEDPOLYGONALFACE((231,234,235));
#371=IFCINDEXEDPOLYGONALFACE((235,234,119));
#372=IFCINDEXEDPOLYGONALFACE((234,229,236));
#373=IFCINDEXEDPOLYGONALFACE((237,235,238));
#374=IFCINDEXEDPOLYGONALFACE((235,118,113));
#375=IFCINDEXEDPOLYGONALFACE((238,113,112));
#376=IFCINDEXEDPOLYGONALFACE((239,240,238));
#377=IFCINDEXEDPOLYGONALFACE((241,240,239));
#378=IFCINDEXEDPOLYGONALFACE((241,232,237));
#379=IFCINDEXEDPOLYGONALFACE((242,243,239));
#380=IFCINDEXEDPOLYGONALFACE((239,244,245));
#381=IFCINDEXEDPOLYGONALFACE((246,245,102));
#382=IFCINDEXEDPOLYGONALFACE((242,246,101));
#383=IFCINDEXEDPOLYGONALFACE((247,243,242));
#384=IFCINDEXEDPOLYGONALFACE((248,242,100));
#385=IFCINDEXEDPOLYGONALFACE((249,248,99));
#386=IFCINDEXEDPOLYGONALFACE((249,250,247));
#387=IFCINDEXEDPOLYGONALFACE((250,251,252));
#388=IFCINDEXEDPOLYGONALFACE((252,241,243));
#389=IFCINDEXEDPOLYGONALFACE((252,253,232));
#390=IFCINDEXEDPOLYGONALFACE((254,253,252));
#391=IFCINDEXEDPOLYGONALFACE((254,255,256));
#392=IFCINDEXEDPOLYGONALFACE((256,233,232));
#393=IFCINDEXEDPOLYGONALFACE((256,257,226));
#394=IFCINDEXEDPOLYGONALFACE((258,257,256));
#395=IFCINDEXEDPOLYGONALFACE((258,259,260));
#396=IFCINDEXEDPOLYGONALFACE((260,227,226));
#397=IFCINDEXEDPOLYGONALFACE((261,262,260));
#398=IFCINDEXEDPOLYGONALFACE((260,262,222));
#399=IFCINDEXEDPOLYGONALFACE((262,263,223));
#400=IFCINDEXEDPOLYGONALFACE((261,264,263));
#401=IFCINDEXEDPOLYGONALFACE((264,265,266));
#402=IFCINDEXEDPOLYGONALFACE((263,266,218));
#403=IFCINDEXEDPOLYGONALFACE((267,268,266));
#404=IFCINDEXEDPOLYGONALFACE((268,216,218));
#405=IFCINDEXEDPOLYGONALFACE((269,217,216));
#406=IFCINDEXEDPOLYGONALFACE((270,269,268));
#407=IFCINDEXEDPOLYGONALFACE((270,271,272));
#408=IFCINDEXEDPOLYGONALFACE((269,272,215));
#409=IFCINDEXEDPOLYGONALFACE((200,203,272));
#410=IFCINDEXEDPOLYGONALFACE((203,202,215));
#411=IFCINDEXEDPOLYGONALFACE((215,202,204));
#412=IFCINDEXEDPOLYGONALFACE((273,201,200));
#413=IFCINDEXEDPOLYGONALFACE((273,271,270));
#414=IFCINDEXEDPOLYGONALFACE((274,273,275));
#415=IFCINDEXEDPOLYGONALFACE((274,198,201));
#416=IFCINDEXEDPOLYGONALFACE((275,270,267));
#417=IFCINDEXEDPOLYGONALFACE((276,277,275));
#418=IFCINDEXEDPOLYGONALFACE((276,278,279));
#419=IFCINDEXEDPOLYGONALFACE((279,278,267));
#420=IFCINDEXEDPOLYGONALFACE((280,279,281));
#421=IFCINDEXEDPOLYGONALFACE((281,279,265));
#422=IFCINDEXEDPOLYGONALFACE((281,264,261));
#423=IFCINDEXEDPOLYGONALFACE((282,283,281));
#424=IFCINDEXEDPOLYGONALFACE((282,284,285));
#425=IFCINDEXEDPOLYGONALFACE((285,284,261));
#426=IFCINDEXEDPOLYGONALFACE((286,285,259));
#427=IFCINDEXEDPOLYGONALFACE((287,288,285));
#428=IFCINDEXEDPOLYGONALFACE((287,286,289));
#429=IFCINDEXEDPOLYGONALFACE((286,258,255));
#430=IFCINDEXEDPOLYGONALFACE((289,255,254));
#431=IFCINDEXEDPOLYGONALFACE((290,291,289));
#432=IFCINDEXEDPOLYGONALFACE((290,292,293));
#433=IFCINDEXEDPOLYGONALFACE((293,292,254));
#434=IFCINDEXEDPOLYGONALFACE((294,295,293));
#435=IFCINDEXEDPOLYGONALFACE((296,293,251));
#436=IFCINDEXEDPOLYGONALFACE((294,296,297));
#437=IFCINDEXEDPOLYGONALFACE((296,250,249));
#438=IFCINDEXEDPOLYGONALFACE((297,249,77));
#439=IFCINDEXEDPOLYGONALFACE((298,297,78));
#440=IFCINDEXEDPOLYGONALFACE((299,300,294));
#441=IFCINDEXEDPOLYGONALFACE((299,298,79));
#442=IFCINDEXEDPOLYGONALFACE((301,302,300));
#443=IFCINDEXEDPOLYGONALFACE((301,299,98));
#444=IFCINDEXEDPOLYGONALFACE((302,303,304));
#445=IFCINDEXEDPOLYGONALFACE((304,295,294));
#446=IFCINDEXEDPOLYGONALFACE((304,305,290));
#447=IFCINDEXEDPOLYGONALFACE((306,305,304));
#448=IFCINDEXEDPOLYGONALFACE((306,307,308));
#449=IFCINDEXEDPOLYGONALFACE((308,291,290));
#450=IFCINDEXEDPOLYGONALFACE((307,309,310));
#451=IFCINDEXEDPOLYGONALFACE((310,287,291));
#452=IFCINDEXEDPOLYGONALFACE((311,312,310));
#453=IFCINDEXEDPOLYGONALFACE((312,288,287));
#454=IFCINDEXEDPOLYGONALFACE((313,314,312));
#455=IFCINDEXEDPOLYGONALFACE((312,314,282));
#456=IFCINDEXEDPOLYGONALFACE((313,315,316));
#457=IFCINDEXEDPOLYGONALFACE((316,283,282));
#458=IFCINDEXEDPOLYGONALFACE((317,318,316));
#459=IFCINDEXEDPOLYGONALFACE((316,318,280));
#460=IFCINDEXEDPOLYGONALFACE((318,319,276));
#461=IFCINDEXEDPOLYGONALFACE((317,320,319));
#462=IFCINDEXEDPOLYGONALFACE((321,322,319));
#463=IFCINDEXEDPOLYGONALFACE((322,277,276));
#464=IFCINDEXEDPOLYGONALFACE((321,323,324));
#465=IFCINDEXEDPOLYGONALFACE((322,324,274));
#466=IFCINDEXEDPOLYGONALFACE((323,197,199));
#467=IFCINDEXEDPOLYGONALFACE((199,198,274));
#468=IFCINDEXEDPOLYGONALFACE((195,197,323));
#469=IFCINDEXEDPOLYGONALFACE((325,323,321));
#470=IFCINDEXEDPOLYGONALFACE((326,196,195));
#471=IFCINDEXEDPOLYGONALFACE((326,325,327));
#472=IFCINDEXEDPOLYGONALFACE((327,321,320));
#473=IFCINDEXEDPOLYGONALFACE((328,327,329));
#474=IFCINDEXEDPOLYGONALFACE((330,331,326));
#475=IFCINDEXEDPOLYGONALFACE((330,328,332));
#476=IFCINDEXEDPOLYGONALFACE((333,334,332));
#477=IFCINDEXEDPOLYGONALFACE((335,332,329));
#478=IFCINDEXEDPOLYGONALFACE((333,335,336));
#479=IFCINDEXEDPOLYGONALFACE((336,335,337));
#480=IFCINDEXEDPOLYGONALFACE((338,339,336));
#481=IFCINDEXEDPOLYGONALFACE((336,340,341));
#482=IFCINDEXEDPOLYGONALFACE((342,343,341));
#483=IFCINDEXEDPOLYGONALFACE((344,338,343));
#484=IFCINDEXEDPOLYGONALFACE((345,339,338));
#485=IFCINDEXEDPOLYGONALFACE((346,338,344));
#486=IFCINDEXEDPOLYGONALFACE((344,342,347));
#487=IFCINDEXEDPOLYGONALFACE((348,349,344));
#488=IFCINDEXEDPOLYGONALFACE((348,350,351));
#489=IFCINDEXEDPOLYGONALFACE((351,350,347));
#490=IFCINDEXEDPOLYGONALFACE((351,352,353));
#491=IFCINDEXEDPOLYGONALFACE((354,355,351));
#492=IFCINDEXEDPOLYGONALFACE((354,356,357));
#493=IFCINDEXEDPOLYGONALFACE((357,356,353));
#494=IFCINDEXEDPOLYGONALFACE((353,352,358));
#495=IFCINDEXEDPOLYGONALFACE((353,359,360));
#496=IFCINDEXEDPOLYGONALFACE((361,357,362));
#497=IFCINDEXEDPOLYGONALFACE((363,362,360));
#498=IFCINDEXEDPOLYGONALFACE((360,303,302));
#499=IFCINDEXEDPOLYGONALFACE((360,359,306));
#500=IFCINDEXEDPOLYGONALFACE((364,363,365));
#501=IFCINDEXEDPOLYGONALFACE((365,302,301));
#502=IFCINDEXEDPOLYGONALFACE((94,364,366));
#503=IFCINDEXEDPOLYGONALFACE((96,366,301));
#504=IFCINDEXEDPOLYGONALFACE((367,364,94));
#505=IFCINDEXEDPOLYGONALFACE((367,361,363));
#506=IFCINDEXEDPOLYGONALFACE((368,369,361));
#507=IFCINDEXEDPOLYGONALFACE((93,368,367));
#508=IFCINDEXEDPOLYGONALFACE((369,370,357));
#509=IFCINDEXEDPOLYGONALFACE((371,369,368));
#510=IFCINDEXEDPOLYGONALFACE((371,372,370));
#511=IFCINDEXEDPOLYGONALFACE((373,354,370));
#512=IFCINDEXEDPOLYGONALFACE((374,375,373));
#513=IFCINDEXEDPOLYGONALFACE((374,372,371));
#514=IFCINDEXEDPOLYGONALFACE((376,377,375));
#515=IFCINDEXEDPOLYGONALFACE((378,376,374));
#516=IFCINDEXEDPOLYGONALFACE((379,380,373));
#517=IFCINDEXEDPOLYGONALFACE((381,379,375));
#518=IFCINDEXEDPOLYGONALFACE((382,383,381));
#519=IFCINDEXEDPOLYGONALFACE((382,377,376));
#520=IFCINDEXEDPOLYGONALFACE((384,385,379));
#521=IFCINDEXEDPOLYGONALFACE((383,386,384));
#522=IFCINDEXEDPOLYGONALFACE((386,387,388));
#523=IFCINDEXEDPOLYGONALFACE((384,388,389));
#524=IFCINDEXEDPOLYGONALFACE((379,385,390));
#525=IFCINDEXEDPOLYGONALFACE((385,389,391));
#526=IFCINDEXEDPOLYGONALFACE((388,392,393));
#527=IFCINDEXEDPOLYGONALFACE((393,394,391));
#528=IFCINDEXEDPOLYGONALFACE((393,395,396));
#529=IFCINDEXEDPOLYGONALFACE((397,395,393));
#530=IFCINDEXEDPOLYGONALFACE((394,396,345));
#531=IFCINDEXEDPOLYGONALFACE((394,346,349));
#532=IFCINDEXEDPOLYGONALFACE((398,399,396));
#533=IFCINDEXEDPOLYGONALFACE((399,400,345));
#534=IFCINDEXEDPOLYGONALFACE((398,401,402));
#535=IFCINDEXEDPOLYGONALFACE((399,402,403));
#536=IFCINDEXEDPOLYGONALFACE((404,405,402));
#537=IFCINDEXEDPOLYGONALFACE((405,406,403));
#538=IFCINDEXEDPOLYGONALFACE((407,408,405));
#539=IFCINDEXEDPOLYGONALFACE((405,408,409));
#540=IFCINDEXEDPOLYGONALFACE((403,406,330));
#541=IFCINDEXEDPOLYGONALFACE((409,331,330));
#542=IFCINDEXEDPOLYGONALFACE((192,193,409));
#543=IFCINDEXEDPOLYGONALFACE((193,194,331));
#544=IFCINDEXEDPOLYGONALFACE((331,194,196));
#545=IFCINDEXEDPOLYGONALFACE((407,191,192));
#546=IFCINDEXEDPOLYGONALFACE((410,407,404));
#547=IFCINDEXEDPOLYGONALFACE((190,191,407));
#548=IFCINDEXEDPOLYGONALFACE((411,412,410));
#549=IFCINDEXEDPOLYGONALFACE((189,190,410));
#550=IFCINDEXEDPOLYGONALFACE((411,413,414));
#551=IFCINDEXEDPOLYGONALFACE((414,413,404));
#552=IFCINDEXEDPOLYGONALFACE((415,414,401));
#553=IFCINDEXEDPOLYGONALFACE((416,417,414));
#554=IFCINDEXEDPOLYGONALFACE((416,415,397));
#555=IFCINDEXEDPOLYGONALFACE((415,398,395));
#556=IFCINDEXEDPOLYGONALFACE((418,397,392));
#557=IFCINDEXEDPOLYGONALFACE((419,420,416));
#558=IFCINDEXEDPOLYGONALFACE((419,418,421));
#559=IFCINDEXEDPOLYGONALFACE((422,423,421));
#560=IFCINDEXEDPOLYGONALFACE((387,421,392));
#561=IFCINDEXEDPOLYGONALFACE((422,387,386));
#562=IFCINDEXEDPOLYGONALFACE((424,425,422));
#563=IFCINDEXEDPOLYGONALFACE((426,423,422));
#564=IFCINDEXEDPOLYGONALFACE((427,428,425));
#565=IFCINDEXEDPOLYGONALFACE((429,426,425));
#566=IFCINDEXEDPOLYGONALFACE((430,431,426));
#567=IFCINDEXEDPOLYGONALFACE((426,431,419));
#568=IFCINDEXEDPOLYGONALFACE((432,420,419));
#569=IFCINDEXEDPOLYGONALFACE((430,433,432));
#570=IFCINDEXEDPOLYGONALFACE((42,433,430));
#571=IFCINDEXEDPOLYGONALFACE((45,430,429));
#572=IFCINDEXEDPOLYGONALFACE((42,41,434));
#573=IFCINDEXEDPOLYGONALFACE((434,435,432));
#574=IFCINDEXEDPOLYGONALFACE((436,437,434));
#575=IFCINDEXEDPOLYGONALFACE((434,437,438));
#576=IFCINDEXEDPOLYGONALFACE((435,438,439));
#577=IFCINDEXEDPOLYGONALFACE((435,440,420));
#578=IFCINDEXEDPOLYGONALFACE((440,417,416));
#579=IFCINDEXEDPOLYGONALFACE((440,439,411));
#580=IFCINDEXEDPOLYGONALFACE((441,442,439));
#581=IFCINDEXEDPOLYGONALFACE((442,412,411));
#582=IFCINDEXEDPOLYGONALFACE((187,188,442));
#583=IFCINDEXEDPOLYGONALFACE((442,188,189));
#584=IFCINDEXEDPOLYGONALFACE((443,186,187));
#585=IFCINDEXEDPOLYGONALFACE((437,443,441));
#586=IFCINDEXEDPOLYGONALFACE((436,444,443));
#587=IFCINDEXEDPOLYGONALFACE((444,184,186));
#588=IFCINDEXEDPOLYGONALFACE((445,444,436));
#589=IFCINDEXEDPOLYGONALFACE((445,185,184));
#590=IFCINDEXEDPOLYGONALFACE((38,37,436));
#591=IFCINDEXEDPOLYGONALFACE((34,446,445));
#592=IFCINDEXEDPOLYGONALFACE((183,185,445));
#593=IFCINDEXEDPOLYGONALFACE((447,446,34));
#594=IFCINDEXEDPOLYGONALFACE((447,182,183));
#595=IFCINDEXEDPOLYGONALFACE((448,181,182));
#596=IFCINDEXEDPOLYGONALFACE((32,448,447));
#597=IFCINDEXEDPOLYGONALFACE((31,173,448));
#598=IFCINDEXEDPOLYGONALFACE((173,176,181));
#599=IFCINDEXEDPOLYGONALFACE((49,46,429));
#600=IFCINDEXEDPOLYGONALFACE((449,424,450));
#601=IFCINDEXEDPOLYGONALFACE((427,424,449));
#602=IFCINDEXEDPOLYGONALFACE((451,49,428));
#603=IFCINDEXEDPOLYGONALFACE((451,427,452));
#604=IFCINDEXEDPOLYGONALFACE((453,452,454));
#605=IFCINDEXEDPOLYGONALFACE((454,452,449));
#606=IFCINDEXEDPOLYGONALFACE((454,455,456));
#607=IFCINDEXEDPOLYGONALFACE((457,458,454));
#608=IFCINDEXEDPOLYGONALFACE((56,458,457));
#609=IFCINDEXEDPOLYGONALFACE((56,53,453));
#610=IFCINDEXEDPOLYGONALFACE((72,457,459));
#611=IFCINDEXEDPOLYGONALFACE((59,457,72));
#612=IFCINDEXEDPOLYGONALFACE((72,460,461));
#613=IFCINDEXEDPOLYGONALFACE((461,460,462));
#614=IFCINDEXEDPOLYGONALFACE((460,459,456));
#615=IFCINDEXEDPOLYGONALFACE((73,461,86));
#616=IFCINDEXEDPOLYGONALFACE((461,463,87));
#617=IFCINDEXEDPOLYGONALFACE((463,462,464));
#618=IFCINDEXEDPOLYGONALFACE((87,463,465));
#619=IFCINDEXEDPOLYGONALFACE((465,466,89));
#620=IFCINDEXEDPOLYGONALFACE((465,464,467));
#621=IFCINDEXEDPOLYGONALFACE((456,468,464));
#622=IFCINDEXEDPOLYGONALFACE((468,469,467));
#623=IFCINDEXEDPOLYGONALFACE((467,469,376));
#624=IFCINDEXEDPOLYGONALFACE((467,378,470));
#625=IFCINDEXEDPOLYGONALFACE((468,471,382));
#626=IFCINDEXEDPOLYGONALFACE((378,472,473));
#627=IFCINDEXEDPOLYGONALFACE((470,473,91));
#628=IFCINDEXEDPOLYGONALFACE((89,466,470));
#629=IFCINDEXEDPOLYGONALFACE((473,472,371));
#630=IFCINDEXEDPOLYGONALFACE((473,474,92));
#631=IFCINDEXEDPOLYGONALFACE((92,474,368));
#632=IFCINDEXEDPOLYGONALFACE((455,471,468));
#633=IFCINDEXEDPOLYGONALFACE((455,449,475));
#634=IFCINDEXEDPOLYGONALFACE((475,383,382));
#635=IFCINDEXEDPOLYGONALFACE((450,386,383));
#636=IFCINDEXEDPOLYGONALFACE((53,50,451));
#637=IFCINDEXEDPOLYGONALFACE((403,334,333));
#638=IFCINDEXEDPOLYGONALFACE((345,400,333));
#639=IFCINDEXEDPOLYGONALFACE((391,349,348));
#640=IFCINDEXEDPOLYGONALFACE((380,390,348));
#641=IFCINDEXEDPOLYGONALFACE((373,380,355));
#642=IFCINDEXEDPOLYGONALFACE((358,307,306));
#643=IFCINDEXEDPOLYGONALFACE((347,476,358));
#644=IFCINDEXEDPOLYGONALFACE((358,476,309));
#645=IFCINDEXEDPOLYGONALFACE((477,311,309));
#646=IFCINDEXEDPOLYGONALFACE((347,342,477));
#647=IFCINDEXEDPOLYGONALFACE((477,341,313));
#648=IFCINDEXEDPOLYGONALFACE((341,340,315));
#649=IFCINDEXEDPOLYGONALFACE((337,317,315));
#650=IFCINDEXEDPOLYGONALFACE((329,320,317));
#651=IFCINDEXEDPOLYGONALFACE((245,111,104));
#652=IFCINDEXEDPOLYGONALFACE((245,244,112));
#653=IFCINDEXEDPOLYGONALFACE((119,236,478));
#654=IFCINDEXEDPOLYGONALFACE((228,479,236));
#655=IFCINDEXEDPOLYGONALFACE((479,480,478));
#656=IFCINDEXEDPOLYGONALFACE((480,481,132));
#657=IFCINDEXEDPOLYGONALFACE((478,132,121));
#658=IFCINDEXEDPOLYGONALFACE((132,481,137));
#659=IFCINDEXEDPOLYGONALFACE((480,482,150));
#660=IFCINDEXEDPOLYGONALFACE((481,150,140));
#661=IFCINDEXEDPOLYGONALFACE((479,153,482));
#662=IFCINDEXEDPOLYGONALFACE((156,153,479));
#663=IFCINDEXEDPOLYGONALFACE((209,179,177));
#664=IFCINDEXEDPOLYGONALFACE((209,174,169));
#665=IFCINDEXEDPOLYGONALFACE((24,44,43));
#666=IFCINDEXEDPOLYGONALFACE((3,4,1));
#667=IFCINDEXEDPOLYGONALFACE((5,125,1));
#668=IFCINDEXEDPOLYGONALFACE((7,4,3));
#669=IFCINDEXEDPOLYGONALFACE((8,5,4));
#670=IFCINDEXEDPOLYGONALFACE((9,10,7));
#671=IFCINDEXEDPOLYGONALFACE((10,63,8));
#672=IFCINDEXEDPOLYGONALFACE((12,6,3));
#673=IFCINDEXEDPOLYGONALFACE((9,6,12));
#674=IFCINDEXEDPOLYGONALFACE((14,57,10));
#675=IFCINDEXEDPOLYGONALFACE((15,14,9));
#676=IFCINDEXEDPOLYGONALFACE((17,13,12));
#677=IFCINDEXEDPOLYGONALFACE((18,15,13));
#678=IFCINDEXEDPOLYGONALFACE((17,16,19));
#679=IFCINDEXEDPOLYGONALFACE((21,18,17));
#680=IFCINDEXEDPOLYGONALFACE((23,20,19));
#681=IFCINDEXEDPOLYGONALFACE((21,20,23));
#682=IFCINDEXEDPOLYGONALFACE((26,23,22));
#683=IFCINDEXEDPOLYGONALFACE((24,23,26));
#684=IFCINDEXEDPOLYGONALFACE((29,27,26));
#685=IFCINDEXEDPOLYGONALFACE((26,25,30));
#686=IFCINDEXEDPOLYGONALFACE((32,28,30));
#687=IFCINDEXEDPOLYGONALFACE((29,28,32));
#688=IFCINDEXEDPOLYGONALFACE((34,35,29));
#689=IFCINDEXEDPOLYGONALFACE((36,27,29));
#690=IFCINDEXEDPOLYGONALFACE((38,35,34));
#691=IFCINDEXEDPOLYGONALFACE((38,39,36));
#692=IFCINDEXEDPOLYGONALFACE((36,44,24));
#693=IFCINDEXEDPOLYGONALFACE((40,44,36));
#694=IFCINDEXEDPOLYGONALFACE((42,39,38));
#695=IFCINDEXEDPOLYGONALFACE((42,45,40));
#696=IFCINDEXEDPOLYGONALFACE((40,48,43));
#697=IFCINDEXEDPOLYGONALFACE((46,48,40));
#698=IFCINDEXEDPOLYGONALFACE((48,51,47));
#699=IFCINDEXEDPOLYGONALFACE((49,51,48));
#700=IFCINDEXEDPOLYGONALFACE((49,451,50));
#701=IFCINDEXEDPOLYGONALFACE((50,52,47));
#702=IFCINDEXEDPOLYGONALFACE((52,15,18));
#703=IFCINDEXEDPOLYGONALFACE((43,47,18));
#704=IFCINDEXEDPOLYGONALFACE((52,54,14));
#705=IFCINDEXEDPOLYGONALFACE((53,54,52));
#706=IFCINDEXEDPOLYGONALFACE((55,57,14));
#707=IFCINDEXEDPOLYGONALFACE((56,55,54));
#708=IFCINDEXEDPOLYGONALFACE((58,62,57));
#709=IFCINDEXEDPOLYGONALFACE((56,59,58));
#710=IFCINDEXEDPOLYGONALFACE((60,66,58));
#711=IFCINDEXEDPOLYGONALFACE((58,66,61));
#712=IFCINDEXEDPOLYGONALFACE((57,62,63));
#713=IFCINDEXEDPOLYGONALFACE((62,61,64));
#714=IFCINDEXEDPOLYGONALFACE((65,68,64));
#715=IFCINDEXEDPOLYGONALFACE((67,65,61));
#716=IFCINDEXEDPOLYGONALFACE((69,85,68));
#717=IFCINDEXEDPOLYGONALFACE((67,76,69));
#718=IFCINDEXEDPOLYGONALFACE((60,70,67));
#719=IFCINDEXEDPOLYGONALFACE((71,76,67));
#720=IFCINDEXEDPOLYGONALFACE((72,73,70));
#721=IFCINDEXEDPOLYGONALFACE((74,71,70));
#722=IFCINDEXEDPOLYGONALFACE((106,82,83));
#723=IFCINDEXEDPOLYGONALFACE((105,83,103));
#724=IFCINDEXEDPOLYGONALFACE((106,105,108));
#725=IFCINDEXEDPOLYGONALFACE((105,107,110));
#726=IFCINDEXEDPOLYGONALFACE((110,107,111));
#727=IFCINDEXEDPOLYGONALFACE((107,103,104));
#728=IFCINDEXEDPOLYGONALFACE((110,112,113));
#729=IFCINDEXEDPOLYGONALFACE((115,108,110));
#730=IFCINDEXEDPOLYGONALFACE((115,114,116));
#731=IFCINDEXEDPOLYGONALFACE((116,114,113));
#732=IFCINDEXEDPOLYGONALFACE((116,118,119));
#733=IFCINDEXEDPOLYGONALFACE((121,117,116));
#734=IFCINDEXEDPOLYGONALFACE((122,123,117));
#735=IFCINDEXEDPOLYGONALFACE((124,115,117));
#736=IFCINDEXEDPOLYGONALFACE((1,123,122));
#737=IFCINDEXEDPOLYGONALFACE((1,125,124));
#738=IFCINDEXEDPOLYGONALFACE((126,109,124));
#739=IFCINDEXEDPOLYGONALFACE((124,109,108));
#740=IFCINDEXEDPOLYGONALFACE((5,127,126));
#741=IFCINDEXEDPOLYGONALFACE((128,131,126));
#742=IFCINDEXEDPOLYGONALFACE((126,131,106));
#743=IFCINDEXEDPOLYGONALFACE((129,127,5));
#744=IFCINDEXEDPOLYGONALFACE((129,130,128));
#745=IFCINDEXEDPOLYGONALFACE((130,84,80));
#746=IFCINDEXEDPOLYGONALFACE((80,81,131));
#747=IFCINDEXEDPOLYGONALFACE((68,130,129));
#748=IFCINDEXEDPOLYGONALFACE((85,84,130));
#749=IFCINDEXEDPOLYGONALFACE((63,64,129));
#750=IFCINDEXEDPOLYGONALFACE((81,82,106));
#751=IFCINDEXEDPOLYGONALFACE((122,121,132));
#752=IFCINDEXEDPOLYGONALFACE((134,2,122));
#753=IFCINDEXEDPOLYGONALFACE((3,2,134));
#754=IFCINDEXEDPOLYGONALFACE((136,11,134));
#755=IFCINDEXEDPOLYGONALFACE((134,133,137));
#756=IFCINDEXEDPOLYGONALFACE((136,135,138));
#757=IFCINDEXEDPOLYGONALFACE((138,135,137));
#758=IFCINDEXEDPOLYGONALFACE((12,11,136));
#759=IFCINDEXEDPOLYGONALFACE((16,136,139));
#760=IFCINDEXEDPOLYGONALFACE((22,19,139));
#761=IFCINDEXEDPOLYGONALFACE((139,138,142));
#762=IFCINDEXEDPOLYGONALFACE((22,141,143));
#763=IFCINDEXEDPOLYGONALFACE((143,141,142));
#764=IFCINDEXEDPOLYGONALFACE((142,146,145));
#765=IFCINDEXEDPOLYGONALFACE((138,140,146));
#766=IFCINDEXEDPOLYGONALFACE((140,150,147));
#767=IFCINDEXEDPOLYGONALFACE((145,146,147));
#768=IFCINDEXEDPOLYGONALFACE((150,482,149));
#769=IFCINDEXEDPOLYGONALFACE((148,147,149));
#770=IFCINDEXEDPOLYGONALFACE((149,154,152));
#771=IFCINDEXEDPOLYGONALFACE((149,482,153));
#772=IFCINDEXEDPOLYGONALFACE((154,157,155));
#773=IFCINDEXEDPOLYGONALFACE((154,153,156));
#774=IFCINDEXEDPOLYGONALFACE((159,152,155));
#775=IFCINDEXEDPOLYGONALFACE((151,152,159));
#776=IFCINDEXEDPOLYGONALFACE((162,159,158));
#777=IFCINDEXEDPOLYGONALFACE((160,159,162));
#778=IFCINDEXEDPOLYGONALFACE((148,151,160));
#779=IFCINDEXEDPOLYGONALFACE((165,164,160));
#780=IFCINDEXEDPOLYGONALFACE((166,145,148));
#781=IFCINDEXEDPOLYGONALFACE((166,164,165));
#782=IFCINDEXEDPOLYGONALFACE((144,145,166));
#783=IFCINDEXEDPOLYGONALFACE((169,168,166));
#784=IFCINDEXEDPOLYGONALFACE((170,143,144));
#785=IFCINDEXEDPOLYGONALFACE((170,168,169));
#786=IFCINDEXEDPOLYGONALFACE((30,25,143));
#787=IFCINDEXEDPOLYGONALFACE((30,170,171));
#788=IFCINDEXEDPOLYGONALFACE((31,171,172));
#789=IFCINDEXEDPOLYGONALFACE((172,171,169));
#790=IFCINDEXEDPOLYGONALFACE((176,173,172));
#791=IFCINDEXEDPOLYGONALFACE((175,172,174));
#792=IFCINDEXEDPOLYGONALFACE((179,209,208));
#793=IFCINDEXEDPOLYGONALFACE((208,210,207));
#794=IFCINDEXEDPOLYGONALFACE((209,167,165));
#795=IFCINDEXEDPOLYGONALFACE((208,165,163));
#796=IFCINDEXEDPOLYGONALFACE((207,210,211));
#797=IFCINDEXEDPOLYGONALFACE((210,163,162));
#798=IFCINDEXEDPOLYGONALFACE((162,161,212));
#799=IFCINDEXEDPOLYGONALFACE((205,211,212));
#800=IFCINDEXEDPOLYGONALFACE((212,161,213));
#801=IFCINDEXEDPOLYGONALFACE((212,214,204));
#802=IFCINDEXEDPOLYGONALFACE((158,219,213));
#803=IFCINDEXEDPOLYGONALFACE((213,217,215));
#804=IFCINDEXEDPOLYGONALFACE((213,219,216));
#805=IFCINDEXEDPOLYGONALFACE((219,220,218));
#806=IFCINDEXEDPOLYGONALFACE((158,155,220));
#807=IFCINDEXEDPOLYGONALFACE((221,223,218));
#808=IFCINDEXEDPOLYGONALFACE((157,221,220));
#809=IFCINDEXEDPOLYGONALFACE((221,224,222));
#810=IFCINDEXEDPOLYGONALFACE((156,224,221));
#811=IFCINDEXEDPOLYGONALFACE((225,227,222));
#812=IFCINDEXEDPOLYGONALFACE((156,228,225));
#813=IFCINDEXEDPOLYGONALFACE((225,230,226));
#814=IFCINDEXEDPOLYGONALFACE((229,230,225));
#815=IFCINDEXEDPOLYGONALFACE((231,233,226));
#816=IFCINDEXEDPOLYGONALFACE((229,234,231));
#817=IFCINDEXEDPOLYGONALFACE((231,237,232));
#818=IFCINDEXEDPOLYGONALFACE((235,237,231));
#819=IFCINDEXEDPOLYGONALFACE((119,118,235));
#820=IFCINDEXEDPOLYGONALFACE((236,119,234));
#821=IFCINDEXEDPOLYGONALFACE((238,240,237));
#822=IFCINDEXEDPOLYGONALFACE((113,238,235));
#823=IFCINDEXEDPOLYGONALFACE((112,244,238));
#824=IFCINDEXEDPOLYGONALFACE((238,244,239));
#825=IFCINDEXEDPOLYGONALFACE((239,243,241));
#826=IFCINDEXEDPOLYGONALFACE((237,240,241));
#827=IFCINDEXEDPOLYGONALFACE((239,246,242));
#828=IFCINDEXEDPOLYGONALFACE((245,246,239));
#829=IFCINDEXEDPOLYGONALFACE((102,101,246));
#830=IFCINDEXEDPOLYGONALFACE((101,100,242));
#831=IFCINDEXEDPOLYGONALFACE((242,248,247));
#832=IFCINDEXEDPOLYGONALFACE((100,99,248));
#833=IFCINDEXEDPOLYGONALFACE((99,77,249));
#834=IFCINDEXEDPOLYGONALFACE((247,248,249));
#835=IFCINDEXEDPOLYGONALFACE((252,247,250));
#836=IFCINDEXEDPOLYGONALFACE((243,247,252));
#837=IFCINDEXEDPOLYGONALFACE((232,241,252));
#838=IFCINDEXEDPOLYGONALFACE((252,251,254));
#839=IFCINDEXEDPOLYGONALFACE((256,253,254));
#840=IFCINDEXEDPOLYGONALFACE((232,253,256));
#841=IFCINDEXEDPOLYGONALFACE((226,233,256));
#842=IFCINDEXEDPOLYGONALFACE((256,255,258));
#843=IFCINDEXEDPOLYGONALFACE((260,257,258));
#844=IFCINDEXEDPOLYGONALFACE((226,257,260));
#845=IFCINDEXEDPOLYGONALFACE((260,259,261));
#846=IFCINDEXEDPOLYGONALFACE((222,227,260));
#847=IFCINDEXEDPOLYGONALFACE((223,222,262));
#848=IFCINDEXEDPOLYGONALFACE((263,262,261));
#849=IFCINDEXEDPOLYGONALFACE((266,263,264));
#850=IFCINDEXEDPOLYGONALFACE((218,223,263));
#851=IFCINDEXEDPOLYGONALFACE((266,265,267));
#852=IFCINDEXEDPOLYGONALFACE((218,266,268));
#853=IFCINDEXEDPOLYGONALFACE((216,268,269));
#854=IFCINDEXEDPOLYGONALFACE((268,267,270));
#855=IFCINDEXEDPOLYGONALFACE((272,269,270));
#856=IFCINDEXEDPOLYGONALFACE((215,217,269));
#857=IFCINDEXEDPOLYGONALFACE((272,271,200));
#858=IFCINDEXEDPOLYGONALFACE((215,272,203));
#859=IFCINDEXEDPOLYGONALFACE((204,214,215));
#860=IFCINDEXEDPOLYGONALFACE((200,271,273));
#861=IFCINDEXEDPOLYGONALFACE((270,275,273));
#862=IFCINDEXEDPOLYGONALFACE((275,277,274));
#863=IFCINDEXEDPOLYGONALFACE((201,273,274));
#864=IFCINDEXEDPOLYGONALFACE((267,278,275));
#865=IFCINDEXEDPOLYGONALFACE((275,278,276));
#866=IFCINDEXEDPOLYGONALFACE((279,280,276));
#867=IFCINDEXEDPOLYGONALFACE((267,265,279));
#868=IFCINDEXEDPOLYGONALFACE((281,283,280));
#869=IFCINDEXEDPOLYGONALFACE((265,264,281));
#870=IFCINDEXEDPOLYGONALFACE((261,284,281));
#871=IFCINDEXEDPOLYGONALFACE((281,284,282));
#872=IFCINDEXEDPOLYGONALFACE((285,288,282));
#873=IFCINDEXEDPOLYGONALFACE((261,259,285));
#874=IFCINDEXEDPOLYGONALFACE((259,258,286));
#875=IFCINDEXEDPOLYGONALFACE((285,286,287));
#876=IFCINDEXEDPOLYGONALFACE((289,291,287));
#877=IFCINDEXEDPOLYGONALFACE((255,289,286));
#878=IFCINDEXEDPOLYGONALFACE((254,292,289));
#879=IFCINDEXEDPOLYGONALFACE((289,292,290));
#880=IFCINDEXEDPOLYGONALFACE((293,295,290));
#881=IFCINDEXEDPOLYGONALFACE((254,251,293));
#882=IFCINDEXEDPOLYGONALFACE((293,296,294));
#883=IFCINDEXEDPOLYGONALFACE((251,250,296));
#884=IFCINDEXEDPOLYGONALFACE((297,298,294));
#885=IFCINDEXEDPOLYGONALFACE((249,297,296));
#886=IFCINDEXEDPOLYGONALFACE((77,78,297));
#887=IFCINDEXEDPOLYGONALFACE((78,79,298));
#888=IFCINDEXEDPOLYGONALFACE((294,298,299));
#889=IFCINDEXEDPOLYGONALFACE((79,98,299));
#890=IFCINDEXEDPOLYGONALFACE((300,299,301));
#891=IFCINDEXEDPOLYGONALFACE((98,97,301));
#892=IFCINDEXEDPOLYGONALFACE((304,300,302));
#893=IFCINDEXEDPOLYGONALFACE((294,300,304));
#894=IFCINDEXEDPOLYGONALFACE((290,295,304));
#895=IFCINDEXEDPOLYGONALFACE((304,303,306));
#896=IFCINDEXEDPOLYGONALFACE((308,305,306));
#897=IFCINDEXEDPOLYGONALFACE((290,305,308));
#898=IFCINDEXEDPOLYGONALFACE((310,308,307));
#899=IFCINDEXEDPOLYGONALFACE((291,308,310));
#900=IFCINDEXEDPOLYGONALFACE((310,309,311));
#901=IFCINDEXEDPOLYGONALFACE((287,310,312));
#902=IFCINDEXEDPOLYGONALFACE((312,311,313));
#903=IFCINDEXEDPOLYGONALFACE((282,288,312));
#904=IFCINDEXEDPOLYGONALFACE((316,314,313));
#905=IFCINDEXEDPOLYGONALFACE((282,314,316));
#906=IFCINDEXEDPOLYGONALFACE((316,315,317));
#907=IFCINDEXEDPOLYGONALFACE((280,283,316));
#908=IFCINDEXEDPOLYGONALFACE((276,280,318));
#909=IFCINDEXEDPOLYGONALFACE((319,318,317));
#910=IFCINDEXEDPOLYGONALFACE((319,320,321));
#911=IFCINDEXEDPOLYGONALFACE((276,319,322));
#912=IFCINDEXEDPOLYGONALFACE((324,322,321));
#913=IFCINDEXEDPOLYGONALFACE((274,277,322));
#914=IFCINDEXEDPOLYGONALFACE((199,324,323));
#915=IFCINDEXEDPOLYGONALFACE((274,324,199));
#916=IFCINDEXEDPOLYGONALFACE((323,325,195));
#917=IFCINDEXEDPOLYGONALFACE((321,327,325));
#918=IFCINDEXEDPOLYGONALFACE((195,325,326));
#919=IFCINDEXEDPOLYGONALFACE((327,328,326));
#920=IFCINDEXEDPOLYGONALFACE((320,329,327));
#921=IFCINDEXEDPOLYGONALFACE((329,332,328));
#922=IFCINDEXEDPOLYGONALFACE((326,328,330));
#923=IFCINDEXEDPOLYGONALFACE((332,334,330));
#924=IFCINDEXEDPOLYGONALFACE((332,335,333));
#925=IFCINDEXEDPOLYGONALFACE((329,337,335));
#926=IFCINDEXEDPOLYGONALFACE((336,339,333));
#927=IFCINDEXEDPOLYGONALFACE((337,340,336));
#928=IFCINDEXEDPOLYGONALFACE((336,343,338));
#929=IFCINDEXEDPOLYGONALFACE((341,343,336));
#930=IFCINDEXEDPOLYGONALFACE((341,477,342));
#931=IFCINDEXEDPOLYGONALFACE((343,342,344));
#932=IFCINDEXEDPOLYGONALFACE((338,346,345));
#933=IFCINDEXEDPOLYGONALFACE((344,349,346));
#934=IFCINDEXEDPOLYGONALFACE((347,350,344));
#935=IFCINDEXEDPOLYGONALFACE((344,350,348));
#936=IFCINDEXEDPOLYGONALFACE((351,355,348));
#937=IFCINDEXEDPOLYGONALFACE((347,352,351));
#938=IFCINDEXEDPOLYGONALFACE((353,356,351));
#939=IFCINDEXEDPOLYGONALFACE((351,356,354));
#940=IFCINDEXEDPOLYGONALFACE((357,370,354));
#941=IFCINDEXEDPOLYGONALFACE((353,362,357));
#942=IFCINDEXEDPOLYGONALFACE((358,359,353));
#943=IFCINDEXEDPOLYGONALFACE((360,362,353));
#944=IFCINDEXEDPOLYGONALFACE((362,363,361));
#945=IFCINDEXEDPOLYGONALFACE((360,365,363));
#946=IFCINDEXEDPOLYGONALFACE((302,365,360));
#947=IFCINDEXEDPOLYGONALFACE((306,303,360));
#948=IFCINDEXEDPOLYGONALFACE((365,366,364));
#949=IFCINDEXEDPOLYGONALFACE((301,366,365));
#950=IFCINDEXEDPOLYGONALFACE((366,96,94));
#951=IFCINDEXEDPOLYGONALFACE((301,97,96));
#952=IFCINDEXEDPOLYGONALFACE((94,95,367));
#953=IFCINDEXEDPOLYGONALFACE((363,364,367));
#954=IFCINDEXEDPOLYGONALFACE((361,367,368));
#955=IFCINDEXEDPOLYGONALFACE((367,95,93));
#956=IFCINDEXEDPOLYGONALFACE((357,361,369));
#957=IFCINDEXEDPOLYGONALFACE((368,474,371));
#958=IFCINDEXEDPOLYGONALFACE((370,369,371));
#959=IFCINDEXEDPOLYGONALFACE((370,372,373));
#960=IFCINDEXEDPOLYGONALFACE((373,372,374));
#961=IFCINDEXEDPOLYGONALFACE((371,472,374));
#962=IFCINDEXEDPOLYGONALFACE((375,374,376));
#963=IFCINDEXEDPOLYGONALFACE((374,472,378));
#964=IFCINDEXEDPOLYGONALFACE((373,375,379));
#965=IFCINDEXEDPOLYGONALFACE((375,377,381));
#966=IFCINDEXEDPOLYGONALFACE((381,377,382));
#967=IFCINDEXEDPOLYGONALFACE((376,469,382));
#968=IFCINDEXEDPOLYGONALFACE((379,381,384));
#969=IFCINDEXEDPOLYGONALFACE((384,381,383));
#970=IFCINDEXEDPOLYGONALFACE((388,384,386));
#971=IFCINDEXEDPOLYGONALFACE((389,385,384));
#972=IFCINDEXEDPOLYGONALFACE((390,380,379));
#973=IFCINDEXEDPOLYGONALFACE((391,390,385));
#974=IFCINDEXEDPOLYGONALFACE((393,389,388));
#975=IFCINDEXEDPOLYGONALFACE((391,389,393));
#976=IFCINDEXEDPOLYGONALFACE((396,394,393));
#977=IFCINDEXEDPOLYGONALFACE((393,392,397));
#978=IFCINDEXEDPOLYGONALFACE((345,346,394));
#979=IFCINDEXEDPOLYGONALFACE((349,391,394));
#980=IFCINDEXEDPOLYGONALFACE((396,395,398));
#981=IFCINDEXEDPOLYGONALFACE((345,396,399));
#982=IFCINDEXEDPOLYGONALFACE((402,399,398));
#983=IFCINDEXEDPOLYGONALFACE((403,400,399));
#984=IFCINDEXEDPOLYGONALFACE((402,401,404));
#985=IFCINDEXEDPOLYGONALFACE((403,402,405));
#986=IFCINDEXEDPOLYGONALFACE((405,404,407));
#987=IFCINDEXEDPOLYGONALFACE((409,406,405));
#988=IFCINDEXEDPOLYGONALFACE((330,334,403));
#989=IFCINDEXEDPOLYGONALFACE((330,406,409));
#990=IFCINDEXEDPOLYGONALFACE((409,408,192));
#991=IFCINDEXEDPOLYGONALFACE((331,409,193));
#992=IFCINDEXEDPOLYGONALFACE((196,326,331));
#993=IFCINDEXEDPOLYGONALFACE((192,408,407));
#994=IFCINDEXEDPOLYGONALFACE((404,413,410));
#995=IFCINDEXEDPOLYGONALFACE((407,410,190));
#996=IFCINDEXEDPOLYGONALFACE((410,413,411));
#997=IFCINDEXEDPOLYGONALFACE((410,412,189));
#998=IFCINDEXEDPOLYGONALFACE((414,417,411));
#999=IFCINDEXEDPOLYGONALFACE((404,401,414));
#1000=IFCINDEXEDPOLYGONALFACE((401,398,415));
#1001=IFCINDEXEDPOLYGONALFACE((414,415,416));
#1002=IFCINDEXEDPOLYGONALFACE((397,418,416));
#1003=IFCINDEXEDPOLYGONALFACE((395,397,415));
#1004=IFCINDEXEDPOLYGONALFACE((392,421,418));
#1005=IFCINDEXEDPOLYGONALFACE((416,418,419));
#1006=IFCINDEXEDPOLYGONALFACE((421,423,419));
#1007=IFCINDEXEDPOLYGONALFACE((421,387,422));
#1008=IFCINDEXEDPOLYGONALFACE((392,388,387));
#1009=IFCINDEXEDPOLYGONALFACE((386,450,422));
#1010=IFCINDEXEDPOLYGONALFACE((422,450,424));
#1011=IFCINDEXEDPOLYGONALFACE((422,425,426));
#1012=IFCINDEXEDPOLYGONALFACE((425,424,427));
#1013=IFCINDEXEDPOLYGONALFACE((425,428,429));
#1014=IFCINDEXEDPOLYGONALFACE((426,429,430));
#1015=IFCINDEXEDPOLYGONALFACE((419,423,426));
#1016=IFCINDEXEDPOLYGONALFACE((419,431,432));
#1017=IFCINDEXEDPOLYGONALFACE((432,431,430));
#1018=IFCINDEXEDPOLYGONALFACE((430,45,42));
#1019=IFCINDEXEDPOLYGONALFACE((429,46,45));
#1020=IFCINDEXEDPOLYGONALFACE((434,433,42));
#1021=IFCINDEXEDPOLYGONALFACE((432,433,434));
#1022=IFCINDEXEDPOLYGONALFACE((434,41,436));
#1023=IFCINDEXEDPOLYGONALFACE((438,435,434));
#1024=IFCINDEXEDPOLYGONALFACE((439,440,435));
#1025=IFCINDEXEDPOLYGONALFACE((420,432,435));
#1026=IFCINDEXEDPOLYGONALFACE((416,420,440));
#1027=IFCINDEXEDPOLYGONALFACE((411,417,440));
#1028=IFCINDEXEDPOLYGONALFACE((439,438,441));
#1029=IFCINDEXEDPOLYGONALFACE((411,439,442));
#1030=IFCINDEXEDPOLYGONALFACE((442,441,187));
#1031=IFCINDEXEDPOLYGONALFACE((189,412,442));
#1032=IFCINDEXEDPOLYGONALFACE((187,441,443));
#1033=IFCINDEXEDPOLYGONALFACE((441,438,437));
#1034=IFCINDEXEDPOLYGONALFACE((443,437,436));
#1035=IFCINDEXEDPOLYGONALFACE((186,443,444));
#1036=IFCINDEXEDPOLYGONALFACE((436,37,445));
#1037=IFCINDEXEDPOLYGONALFACE((184,444,445));
#1038=IFCINDEXEDPOLYGONALFACE((436,41,38));
#1039=IFCINDEXEDPOLYGONALFACE((445,37,34));
#1040=IFCINDEXEDPOLYGONALFACE((445,446,183));
#1041=IFCINDEXEDPOLYGONALFACE((34,33,447));
#1042=IFCINDEXEDPOLYGONALFACE((183,446,447));
#1043=IFCINDEXEDPOLYGONALFACE((182,447,448));
#1044=IFCINDEXEDPOLYGONALFACE((447,33,32));
#1045=IFCINDEXEDPOLYGONALFACE((448,32,31));
#1046=IFCINDEXEDPOLYGONALFACE((181,448,173));
#1047=IFCINDEXEDPOLYGONALFACE((429,428,49));
#1048=IFCINDEXEDPOLYGONALFACE((450,475,449));
#1049=IFCINDEXEDPOLYGONALFACE((449,452,427));
#1050=IFCINDEXEDPOLYGONALFACE((428,427,451));
#1051=IFCINDEXEDPOLYGONALFACE((452,453,451));
#1052=IFCINDEXEDPOLYGONALFACE((454,458,453));
#1053=IFCINDEXEDPOLYGONALFACE((449,455,454));
#1054=IFCINDEXEDPOLYGONALFACE((456,459,454));
#1055=IFCINDEXEDPOLYGONALFACE((454,459,457));
#1056=IFCINDEXEDPOLYGONALFACE((457,59,56));
#1057=IFCINDEXEDPOLYGONALFACE((453,458,56));
#1058=IFCINDEXEDPOLYGONALFACE((459,460,72));
#1059=IFCINDEXEDPOLYGONALFACE((72,60,59));
#1060=IFCINDEXEDPOLYGONALFACE((461,73,72));
#1061=IFCINDEXEDPOLYGONALFACE((462,463,461));
#1062=IFCINDEXEDPOLYGONALFACE((456,462,460));
#1063=IFCINDEXEDPOLYGONALFACE((86,74,73));
#1064=IFCINDEXEDPOLYGONALFACE((87,86,461));
#1065=IFCINDEXEDPOLYGONALFACE((464,465,463));
#1066=IFCINDEXEDPOLYGONALFACE((465,88,87));
#1067=IFCINDEXEDPOLYGONALFACE((89,88,465));
#1068=IFCINDEXEDPOLYGONALFACE((467,466,465));
#1069=IFCINDEXEDPOLYGONALFACE((464,462,456));
#1070=IFCINDEXEDPOLYGONALFACE((467,464,468));
#1071=IFCINDEXEDPOLYGONALFACE((376,378,467));
#1072=IFCINDEXEDPOLYGONALFACE((470,466,467));
#1073=IFCINDEXEDPOLYGONALFACE((382,469,468));
#1074=IFCINDEXEDPOLYGONALFACE((473,470,378));
#1075=IFCINDEXEDPOLYGONALFACE((91,90,470));
#1076=IFCINDEXEDPOLYGONALFACE((470,90,89));
#1077=IFCINDEXEDPOLYGONALFACE((371,474,473));
#1078=IFCINDEXEDPOLYGONALFACE((92,91,473));
#1079=IFCINDEXEDPOLYGONALFACE((368,93,92));
#1080=IFCINDEXEDPOLYGONALFACE((468,456,455));
#1081=IFCINDEXEDPOLYGONALFACE((475,471,455));
#1082=IFCINDEXEDPOLYGONALFACE((382,471,475));
#1083=IFCINDEXEDPOLYGONALFACE((383,475,450));
#1084=IFCINDEXEDPOLYGONALFACE((451,453,53));
#1085=IFCINDEXEDPOLYGONALFACE((333,400,403));
#1086=IFCINDEXEDPOLYGONALFACE((333,339,345));
#1087=IFCINDEXEDPOLYGONALFACE((348,390,391));
#1088=IFCINDEXEDPOLYGONALFACE((348,355,380));
#1089=IFCINDEXEDPOLYGONALFACE((355,354,373));
#1090=IFCINDEXEDPOLYGONALFACE((306,359,358));
#1091=IFCINDEXEDPOLYGONALFACE((358,352,347));
#1092=IFCINDEXEDPOLYGONALFACE((309,307,358));
#1093=IFCINDEXEDPOLYGONALFACE((309,476,477));
#1094=IFCINDEXEDPOLYGONALFACE((477,476,347));
#1095=IFCINDEXEDPOLYGONALFACE((313,311,477));
#1096=IFCINDEXEDPOLYGONALFACE((315,313,341));
#1097=IFCINDEXEDPOLYGONALFACE((315,340,337));
#1098=IFCINDEXEDPOLYGONALFACE((317,337,329));
#1099=IFCINDEXEDPOLYGONALFACE((104,102,245));
#1100=IFCINDEXEDPOLYGONALFACE((112,111,245));
#1101=IFCINDEXEDPOLYGONALFACE((478,120,119));
#1102=IFCINDEXEDPOLYGONALFACE((236,229,228));
#1103=IFCINDEXEDPOLYGONALFACE((478,236,479));
#1104=IFCINDEXEDPOLYGONALFACE((132,478,480));
#1105=IFCINDEXEDPOLYGONALFACE((121,120,478));
#1106=IFCINDEXEDPOLYGONALFACE((137,133,132));
#1107=IFCINDEXEDPOLYGONALFACE((150,481,480));
#1108=IFCINDEXEDPOLYGONALFACE((140,137,481));
#1109=IFCINDEXEDPOLYGONALFACE((482,480,479));
#1110=IFCINDEXEDPOLYGONALFACE((479,228,156));
#1111=IFCINDEXEDPOLYGONALFACE((177,174,209));
#1112=IFCINDEXEDPOLYGONALFACE((169,167,209));
#1113=IFCINDEXEDPOLYGONALFACE((43,21,24));
#1114=IFCPOLYGONALFACESET(#153,$,(#154,#155,#156,#157,#158,#159,#160,#161,#162,#163,#164,#165,#166,#167,#168,#169,#170,#171,#172,#173,#174,#175,#176,#177,#178,#179,#180,#181,#182,#183,#184,#185,#186,#187,#188,#189,#190,#191,#192,#193,#194,#195,#196,#197,#198,#199,#200,#201,#202,#203,#204,#205,#206,#207,#208,#209,#210,#211,#212,#213,#214,#215,#216,#217,#218,#219,#220,#221,#222,#223,#224,#225,#226,#227,#228,#229,#230,#231,#232,#233,#234,#235,#236,#237,#238,#239,#240,#241,#242,#243,#244,#245,#246,#247,#248,#249,#250,#251,#252,#253,#254,#255,#256,#257,#258,#259,#260,#261,#262,#263,#264,#265,#266,#267,#268,#269,#270,#271,#272,#273,#274,#275,#276,#277,#278,#279,#280,#281,#282,#283,#284,#285,#286,#287,#288,#289,#290,#291,#292,#293,#294,#295,#296,#297,#298,#299,#300,#301,#302,#303,#304,#305,#306,#307,#308,#309,#310,#311,#312,#313,#314,#315,#316,#317,#318,#319,#320,#321,#322,#323,#324,#325,#326,#327,#328,#329,#330,#331,#332,#333,#334,#335,#336,#337,#338,#339,#340,#341,#342,#343,#344,#345,#346,#347,#348,#349,#350,#351,#352,#353,#354,#355,#356,#357,#358,#359,#360,#361,#362,#363,#364,#365,#366,#367,#368,#369,#370,#371,#372,#373,#374,#375,#376,#377,#378,#379,#380,#381,#382,#383,#384,#385,#386,#387,#388,#389,#390,#391,#392,#393,#394,#395,#396,#397,#398,#399,#400,#401,#402,#403,#404,#405,#406,#407,#408,#409,#410,#411,#412,#413,#414,#415,#416,#417,#418,#419,#420,#421,#422,#423,#424,#425,#426,#427,#428,#429,#430,#431,#432,#433,#434,#435,#436,#437,#438,#439,#440,#441,#442,#443,#444,#445,#446,#447,#448,#449,#450,#451,#452,#453,#454,#455,#456,#457,#458,#459,#460,#461,#462,#463,#464,#465,#466,#467,#468,#469,#470,#471,#472,#473,#474,#475,#476,#477,#478,#479,#480,#481,#482,#483,#484,#485,#486,#487,#488,#489,#490,#491,#492,#493,#494,#495,#496,#497,#498,#499,#500,#501,#502,#503,#504,#505,#506,#507,#508,#509,#510,#511,#512,#513,#514,#515,#516,#517,#518,#519,#520,#521,#522,#523,#524,#525,#526,#527,#528,#529,#530,#531,#532,#533,#534,#535,#536,#537,#538,#539,#540,#541,#542,#543,#544,#545,#546,#547,#548,#549,#550,#551,#552,#553,#554,#555,#556,#557,#558,#559,#560,#561,#562,#563,#564,#565,#566,#567,#568,#569,#570,#571,#572,#573,#574,#575,#576,#577,#578,#579,#580,#581,#582,#583,#584,#585,#586,#587,#588,#589,#590,#591,#592,#593,#594,#595,#596,#597,#598,#599,#600,#601,#602,#603,#604,#605,#606,#607,#608,#609,#610,#611,#612,#613,#614,#615,#616,#617,#618,#619,#620,#621,#622,#623,#624,#625,#626,#627,#628,#629,#630,#631,#632,#633,#634,#635,#636,#637,#638,#639,#640,#641,#642,#643,#644,#645,#646,#647,#648,#649,#650,#651,#652,#653,#654,#655,#656,#657,#658,#659,#660,#661,#662,#663,#664,#665,#666,#667,#668,#669,#670,#671,#672,#673,#674,#675,#676,#677,#678,#679,#680,#681,#682,#683,#684,#685,#686,#687,#688,#689,#690,#691,#692,#693,#694,#695,#696,#697,#698,#699,#700,#701,#702,#703,#704,#705,#706,#707,#708,#709,#710,#711,#712,#713,#714,#715,#716,#717,#718,#719,#720,#721,#722,#723,#724,#725,#726,#727,#728,#729,#730,#731,#732,#733,#734,#735,#736,#737,#738,#739,#740,#741,#742,#743,#744,#745,#746,#747,#748,#749,#750,#751,#752,#753,#754,#755,#756,#757,#758,#759,#760,#761,#762,#763,#764,#765,#766,#767,#768,#769,#770,#771,#772,#773,#774,#775,#776,#777,#778,#779,#780,#781,#782,#783,#784,#785,#786,#787,#788,#789,#790,#791,#792,#793,#794,#795,#796,#797,#798,#799,#800,#801,#802,#803,#804,#805,#806,#807,#808,#809,#810,#811,#812,#813,#814,#815,#816,#817,#818,#819,#820,#821,#822,#823,#824,#825,#826,#827,#828,#829,#830,#831,#832,#833,#834,#835,#836,#837,#838,#839,#840,#841,#842,#843,#844,#845,#846,#847,#848,#849,#850,#851,#852,#853,#854,#855,#856,#857,#858,#859,#860,#861,#862,#863,#864,#865,#866,#867,#868,#869,#870,#871,#872,#873,#874,#875,#876,#877,#878,#879,#880,#881,#882,#883,#884,#885,#886,#887,#888,#889,#890,#891,#892,#893,#894,#895,#896,#897,#898,#899,#900,#901,#902,#903,#904,#905,#906,#907,#908,#909,#910,#911,#912,#913,#914,#915,#916,#917,#918,#919,#920,#921,#922,#923,#924,#925,#926,#927,#928,#929,#930,#931,#932,#933,#934,#935,#936,#937,#938,#939,#940,#941,#942,#943,#944,#945,#946,#947,#948,#949,#950,#951,#952,#953,#954,#955,#956,#957,#958,#959,#960,#961,#962,#963,#964,#965,#966,#967,#968,#969,#970,#971,#972,#973,#974,#975,#976,#977,#978,#979,#980,#981,#982,#983,#984,#985,#986,#987,#988,#989,#990,#991,#992,#993,#994,#995,#996,#997,#998,#999,#1000,#1001,#1002,#1003,#1004,#1005,#1006,#1007,#1008,#1009,#1010,#1011,#1012,#1013,#1014,#1015,#1016,#1017,#1018,#1019,#1020,#1021,#1022,#1023,#1024,#1025,#1026,#1027,#1028,#1029,#1030,#1031,#1032,#1033,#1034,#1035,#1036,#1037,#1038,#1039,#1040,#1041,#1042,#1043,#1044,#1045,#1046,#1047,#1048,#1049,#1050,#1051,#1052,#1053,#1054,#1055,#1056,#1057,#1058,#1059,#1060,#1061,#1062,#1063,#1064,#1065,#1066,#1067,#1068,#1069,#1070,#1071,#1072,#1073,#1074,#1075,#1076,#1077,#1078,#1079,#1080,#1081,#1082,#1083,#1084,#1085,#1086,#1087,#1088,#1089,#1090,#1091,#1092,#1093,#1094,#1095,#1096,#1097,#1098,#1099,#1100,#1101,#1102,#1103,#1104,#1105,#1106,#1107,#1108,#1109,#1110,#1111,#1112,#1113),$);
#1115=IFCSHAPEREPRESENTATION(#1219,'Body','Tessellation',(#72,#108,#144,#152,#1114));
#1116=IFCPRODUCTDEFINITIONSHAPE($,$,(#1115));
#1117=IFCBUILDINGELEMENTPROXY('1faflkXXH6M9cnYPE9Liir',#28,'Electric flue check valve',$,$,#1225,#1116,$,.COMPLEX.);
#1118=IFCRELVOIDSELEMENT('3mXDzWeV57tx24Xa6xYK7S',#1119,$,$,#1117,#1168);
#1119=IFCOWNERHISTORY(#23,#27,.READWRITE.,.ADDED.,1766564342,#23,#27,1766564342);
#1120=IFCOWNERHISTORY(#23,#27,.READWRITE.,.MODIFIED.,1766564342,#23,#27,1766564342);
#1121=IFCCARTESIANPOINT((-3.99680288865056E-12,-73.,0.));
#1122=IFCDIRECTION((-4.37113333998342E-08,0.999999999999999,2.38497749987298E-08));
#1123=IFCDIRECTION((3.13916473260162E-07,-2.3849761277021E-08,0.99999999999995));
#1124=IFCAXIS2PLACEMENT3D(#1121,#1122,#1123);
#1125=IFCLOCALPLACEMENT(#1225,#1124);
#1127=IFCCARTESIANPOINT((-77.,-77.,-150.));
#1128=IFCBOUNDINGBOX(#1127,154.,154.,300.);
#1129=IFCSHAPEREPRESENTATION(#1220,'Box','BoundingBox',(#1128));
#1130=IFCCARTESIANPOINTLIST3D(((0.,77.,-150.),(0.,77.,150.),(15.0219554901123,75.5204696655273,-150.),(15.0219554901123,75.5204696655273,150.),(29.4666271209717,71.1387176513672,-150.),(29.4666271209717,71.1387176513672,150.),(42.7789115905762,64.0231628417969,-150.),(42.7789115905762,64.0231628417969,150.),(54.4472236633301,54.4472236633301,-150.),(54.4472236633301,54.4472236633301,150.),(64.0231628417969,42.7789115905762,-150.),(64.0231628417969,42.7789115905762,150.),(71.1387176513672,29.4666271209717,-150.),(71.1387176513672,29.4666271209717,150.),(75.5204696655273,15.0219554901123,-150.),(75.5204696655273,15.0219554901123,150.),(77.,0.,-150.),(77.,0.,150.),(75.5204696655273,-15.0219554901123,-150.),(75.5204696655273,-15.0219554901123,150.),(71.1387176513672,-29.4666271209717,-150.),(71.1387176513672,-29.4666271209717,150.),(64.0231628417969,-42.7789115905762,-150.),(64.0231628417969,-42.7789115905762,150.),(54.4472236633301,-54.4472236633301,-150.),(54.4472236633301,-54.4472236633301,150.),(42.7789115905762,-64.0231628417969,-150.),(42.7789115905762,-64.0231628417969,150.),(29.4666271209717,-71.1387176513672,-150.),(29.4666271209717,-71.1387176513672,150.),(15.0219554901123,-75.5204696655273,-150.),(15.0219554901123,-75.5204696655273,150.),(0.,-77.,-150.),(0.,-77.,150.),(-15.0219554901123,-75.5204696655273,-150.),(-15.0219554901123,-75.5204696655273,150.),(-29.4666271209717,-71.1387176513672,-150.),(-29.4666271209717,-71.1387176513672,150.),(-42.7789115905762,-64.0231628417969,-150.),(-42.7789115905762,-64.0231628417969,150.),(-54.4472236633301,-54.4472236633301,-150.),(-54.4472236633301,-54.4472236633301,150.),(-64.0231628417969,-42.7789115905762,-150.),(-64.0231628417969,-42.7789115905762,150.),(-71.1387176513672,-29.4666271209717,-150.),(-71.1387176513672,-29.4666271209717,150.),(-75.5204696655273,-15.0219554901123,-150.),(-75.5204696655273,-15.0219554901123,150.),(-77.,0.,-150.),(-77.,0.,150.),(-75.5204696655273,15.0219554901123,-150.),(-75.5204696655273,15.0219554901123,150.),(-71.1387176513672,29.4666271209717,-150.),(-71.1387176513672,29.4666271209717,150.),(-64.0231628417969,42.7789115905762,-150.),(-64.0231628417969,42.7789115905762,150.),(-54.4472236633301,54.4472236633301,-150.),(-54.4472236633301,54.4472236633301,150.),(-42.7789115905762,64.0231628417969,-150.),(-42.7789115905762,64.0231628417969,150.),(-29.4666271209717,71.1387176513672,-150.),(-29.4666271209717,71.1387176513672,150.),(-15.0219554901123,75.5204696655273,-150.),(-15.0219554901123,75.5204696655273,150.)));
#1131=IFCINDEXEDPOLYGONALFACE((1,2,4,3));
#1132=IFCINDEXEDPOLYGONALFACE((3,4,6,5));
#1133=IFCINDEXEDPOLYGONALFACE((5,6,8,7));
#1134=IFCINDEXEDPOLYGONALFACE((7,8,10,9));
#1135=IFCINDEXEDPOLYGONALFACE((9,10,12,11));
#1136=IFCINDEXEDPOLYGONALFACE((11,12,14,13));
#1137=IFCINDEXEDPOLYGONALFACE((13,14,16,15));
#1138=IFCINDEXEDPOLYGONALFACE((15,16,18,17));
#1139=IFCINDEXEDPOLYGONALFACE((17,18,20,19));
#1140=IFCINDEXEDPOLYGONALFACE((19,20,22,21));
#1141=IFCINDEXEDPOLYGONALFACE((21,22,24,23));
#1142=IFCINDEXEDPOLYGONALFACE((23,24,26,25));
#1143=IFCINDEXEDPOLYGONALFACE((25,26,28,27));
#1144=IFCINDEXEDPOLYGONALFACE((27,28,30,29));
#1145=IFCINDEXEDPOLYGONALFACE((29,30,32,31));
#1146=IFCINDEXEDPOLYGONALFACE((31,32,34,33));
#1147=IFCINDEXEDPOLYGONALFACE((33,34,36,35));
#1148=IFCINDEXEDPOLYGONALFACE((35,36,38,37));
#1149=IFCINDEXEDPOLYGONALFACE((37,38,40,39));
#1150=IFCINDEXEDPOLYGONALFACE((39,40,42,41));
#1151=IFCINDEXEDPOLYGONALFACE((41,42,44,43));
#1152=IFCINDEXEDPOLYGONALFACE((43,44,46,45));
#1153=IFCINDEXEDPOLYGONALFACE((45,46,48,47));
#1154=IFCINDEXEDPOLYGONALFACE((47,48,50,49));
#1155=IFCINDEXEDPOLYGONALFACE((49,50,52,51));
#1156=IFCINDEXEDPOLYGONALFACE((51,52,54,53));
#1157=IFCINDEXEDPOLYGONALFACE((53,54,56,55));
#1158=IFCINDEXEDPOLYGONALFACE((55,56,58,57));
#1159=IFCINDEXEDPOLYGONALFACE((57,58,60,59));
#1160=IFCINDEXEDPOLYGONALFACE((59,60,62,61));
#1161=IFCINDEXEDPOLYGONALFACE((4,2,64,62,60,58,56,54,52,50,48,46,44,42,40,38,36,34,32,30,28,26,24,22,20,18,16,14,12,10,8,6));
#1162=IFCINDEXEDPOLYGONALFACE((61,62,64,63));
#1163=IFCINDEXEDPOLYGONALFACE((63,64,2,1));
#1164=IFCINDEXEDPOLYGONALFACE((1,3,5,7,9,11,13,15,17,19,21,23,25,27,29,31,33,35,37,39,41,43,45,47,49,51,53,55,57,59,61,63));
#1165=IFCPOLYGONALFACESET(#1130,.T.,(#1131,#1132,#1133,#1134,#1135,#1136,#1137,#1138,#1139,#1140,#1141,#1142,#1143,#1144,#1145,#1146,#1147,#1148,#1149,#1150,#1151,#1152,#1153,#1154,#1155,#1156,#1157,#1158,#1159,#1160,#1161,#1162,#1163,#1164),$);
#1166=IFCSHAPEREPRESENTATION(#1219,'Body','Tessellation',(#1165));
#1167=IFCPRODUCTDEFINITIONSHAPE($,$,(#1129,#1166));
#1168=IFCOPENINGELEMENT('2bbQdsVLT1RP1Q8TX8OnW0',#1120,'Cylinder',$,$,#1125,#1167,$,$);
#1169=IFCRELVOIDSELEMENT('1X04VpgjD8eA7vmmw4bhpH',#1170,$,$,#1117,#1218);
#1170=IFCOWNERHISTORY(#23,#27,.READWRITE.,.ADDED.,1766564521,#23,#27,1766564521);
#1171=IFCOWNERHISTORY(#23,#27,.READWRITE.,.MODIFIED.,1766564521,#23,#27,1766564520);
#1172=IFCCARTESIANPOINT((-1.15463194561016E-11,-207.,0.));
#1173=IFCDIRECTION((1.,0.,0.));
#1174=IFCDIRECTION((0.,0.,1.));
#1175=IFCAXIS2PLACEMENT3D(#1172,#1173,#1174);
#1176=IFCLOCALPLACEMENT(#1225,#1175);
#1177=IFCCARTESIANPOINT((-85.,-35.,-85.));
#1178=IFCBOUNDINGBOX(#1177,170.,95.,170.);
#1179=IFCSHAPEREPRESENTATION(#1220,'Box','BoundingBox',(#1178));
#1180=IFCCARTESIANPOINTLIST3D(((0.,60.,85.),(0.,-35.,85.),(16.5826759338379,60.,83.3667373657227),(16.5826759338379,-35.,83.3667373657227),(32.5280952453613,60.,78.5297546386719),(32.5280952453613,-35.,78.5297546386719),(47.2234687805176,60.,70.6749114990234),(47.2234687805176,-35.,70.6749114990234),(60.1040725708008,60.,60.104076385498),(60.1040725708008,-35.,60.1040725708008),(70.6749114990234,60.,47.2234725952148),(70.6749114990234,-35.,47.2234687805176),(78.5297546386719,60.,32.5280952453613),(78.5297546386719,-35.,32.5280952453613),(83.3667373657227,60.,16.5826778411865),(83.3667373657227,-35.,16.5826740264893),(85.,60.,0.),(85.,-35.,0.),(83.3667373657227,60.,-16.5826740264893),(83.3667373657227,-35.,-16.5826778411865),(78.5297546386719,60.,-32.5280914306641),(78.5297546386719,-35.,-32.5280952453613),(70.6749114990234,60.,-47.2234649658203),(70.6749114990234,-35.,-47.2234687805176),(60.1040725708008,60.,-60.1040687561035),(60.1040725708008,-35.,-60.1040725708008),(47.2234687805176,60.,-70.6749114990234),(47.2234687805176,-35.,-70.6749114990234),(32.5280952453613,60.,-78.5297546386719),(32.5280952453613,-35.,-78.5297546386719),(16.5826759338379,60.,-83.3667373657227),(16.5826759338379,-35.,-83.3667373657227),(0.,60.,-85.),(0.,-35.,-85.),(-16.5826759338379,60.,-83.3667373657227),(-16.5826759338379,-35.,-83.3667373657227),(-32.5280952453613,60.,-78.5297546386719),(-32.5280952453613,-35.,-78.5297546386719),(-47.2234687805176,60.,-70.6749114990234),(-47.2234687805176,-35.,-70.6749114990234),(-60.1040725708008,60.,-60.1040687561035),(-60.1040725708008,-35.,-60.1040725708008),(-70.6749114990234,60.,-47.2234649658203),(-70.6749114990234,-35.,-47.2234687805176),(-78.5297546386719,60.,-32.5280914306641),(-78.5297546386719,-35.,-32.5280952453613),(-83.3667373657227,60.,-16.5826740264893),(-83.3667373657227,-35.,-16.5826778411865),(-85.,60.,0.),(-85.,-35.,0.),(-83.3667373657227,60.,16.5826778411865),(-83.3667373657227,-35.,16.5826740264893),(-78.5297546386719,60.,32.5280952453613),(-78.5297546386719,-35.,32.5280952453613),(-70.6749114990234,60.,47.2234725952148),(-70.6749114990234,-35.,47.2234687805176),(-60.1040725708008,60.,60.104076385498),(-60.1040725708008,-35.,60.1040725708008),(-47.2234687805176,60.,70.6749114990234),(-47.2234687805176,-35.,70.6749114990234),(-32.5280952453613,60.,78.5297546386719),(-32.5280952453613,-35.,78.5297546386719),(-16.5826759338379,60.,83.3667373657227),(-16.5826759338379,-35.,83.3667373657227)));
#1181=IFCINDEXEDPOLYGONALFACE((1,2,4,3));
#1182=IFCINDEXEDPOLYGONALFACE((3,4,6,5));
#1183=IFCINDEXEDPOLYGONALFACE((5,6,8,7));
#1184=IFCINDEXEDPOLYGONALFACE((7,8,10,9));
#1185=IFCINDEXEDPOLYGONALFACE((9,10,12,11));
#1186=IFCINDEXEDPOLYGONALFACE((11,12,14,13));
#1187=IFCINDEXEDPOLYGONALFACE((13,14,16,15));
#1188=IFCINDEXEDPOLYGONALFACE((15,16,18,17));
#1189=IFCINDEXEDPOLYGONALFACE((17,18,20,19));
#1190=IFCINDEXEDPOLYGONALFACE((19,20,22,21));
#1191=IFCINDEXEDPOLYGONALFACE((21,22,24,23));
#1192=IFCINDEXEDPOLYGONALFACE((23,24,26,25));
#1193=IFCINDEXEDPOLYGONALFACE((25,26,28,27));
#1194=IFCINDEXEDPOLYGONALFACE((27,28,30,29));
#1195=IFCINDEXEDPOLYGONALFACE((29,30,32,31));
#1196=IFCINDEXEDPOLYGONALFACE((31,32,34,33));
#1197=IFCINDEXEDPOLYGONALFACE((33,34,36,35));
#1198=IFCINDEXEDPOLYGONALFACE((35,36,38,37));
#1199=IFCINDEXEDPOLYGONALFACE((37,38,40,39));
#1200=IFCINDEXEDPOLYGONALFACE((39,40,42,41));
#1201=IFCINDEXEDPOLYGONALFACE((41,42,44,43));
#1202=IFCINDEXEDPOLYGONALFACE((43,44,46,45));
#1203=IFCINDEXEDPOLYGONALFACE((45,46,48,47));
#1204=IFCINDEXEDPOLYGONALFACE((47,48,50,49));
#1205=IFCINDEXEDPOLYGONALFACE((49,50,52,51));
#1206=IFCINDEXEDPOLYGONALFACE((51,52,54,53));
#1207=IFCINDEXEDPOLYGONALFACE((53,54,56,55));
#1208=IFCINDEXEDPOLYGONALFACE((55,56,58,57));
#1209=IFCINDEXEDPOLYGONALFACE((57,58,60,59));
#1210=IFCINDEXEDPOLYGONALFACE((59,60,62,61));
#1211=IFCINDEXEDPOLYGONALFACE((4,2,64,62,60,58,56,54,52,50,48,46,44,42,40,38,36,34,32,30,28,26,24,22,20,18,16,14,12,10,8,6));
#1212=IFCINDEXEDPOLYGONALFACE((61,62,64,63));
#1213=IFCINDEXEDPOLYGONALFACE((63,64,2,1));
#1214=IFCINDEXEDPOLYGONALFACE((1,3,5,7,9,11,13,15,17,19,21,23,25,27,29,31,33,35,37,39,41,43,45,47,49,51,53,55,57,59,61,63));
#1215=IFCPOLYGONALFACESET(#1180,.T.,(#1181,#1182,#1183,#1184,#1185,#1186,#1187,#1188,#1189,#1190,#1191,#1192,#1193,#1194,#1195,#1196,#1197,#1198,#1199,#1200,#1201,#1202,#1203,#1204,#1205,#1206,#1207,#1208,#1209,#1210,#1211,#1212,#1213,#1214),$);
#1216=IFCSHAPEREPRESENTATION(#1219,'Body','Tessellation',(#1215));
#1217=IFCPRODUCTDEFINITIONSHAPE($,$,(#1179,#1216));
#1218=IFCOPENINGELEMENT('2GHoRh1GDCAQc1HXxUCAiN',#1171,'Cylinder',$,$,#1176,#1217,$,$);
#1219=IFCGEOMETRICREPRESENTATIONSUBCONTEXT('Body','Model',*,*,*,*,#10,$,.MODEL_VIEW.,$);
#1220=IFCGEOMETRICREPRESENTATIONSUBCONTEXT('Box','Model',*,*,*,*,#10,$,.MODEL_VIEW.,$);
#1221=IFCCARTESIANPOINT((2845.1828956604,-5198.93360137939,2665.));
#1222=IFCDIRECTION((0.99999999999995,-2.38497612770049E-08,-3.13916473260163E-07));
#1223=IFCDIRECTION((3.13916473260163E-07,-5.48869015016559E-14,0.999999999999951));
#1224=IFCAXIS2PLACEMENT3D(#1221,#1222,#1223);
#1225=IFCLOCALPLACEMENT($,#1224);
#1226=IFCOWNERHISTORY(#23,#27,.READWRITE.,.MODIFIED.,1787483248,#3,#27,1767458491);
#1227=IFCBUILDINGSTOREY('02ceDLwADB5eZJ$wQIxNrD',#1226,'ELEC',$,$,#1232,$,$,$,$);
#1228=IFCCARTESIANPOINT((0.,0.,0.));
#1229=IFCDIRECTION((0.,0.,1.));
#1230=IFCDIRECTION((1.,0.,0.));
#1231=IFCAXIS2PLACEMENT3D(#1228,#1229,#1230);
#1232=IFCLOCALPLACEMENT($,#1231);
#1233=IFCOWNERHISTORY(#23,#4,.READWRITE.,.MODIFIED.,1787483248,#3,#27,1762412096);
#1234=IFCBUILDINGSTOREY('22zTIYgzr47fDMM4$n34hF',#1233,'KITCHEN',$,$,#1239,$,$,$,$);
#1235=IFCCARTESIANPOINT((0.,0.,0.));
#1236=IFCDIRECTION((0.,0.,1.));
#1237=IFCDIRECTION((1.,0.,0.));
#1238=IFCAXIS2PLACEMENT3D(#1235,#1236,#1237);
#1239=IFCLOCALPLACEMENT($,#1238);
#1240=IFCOWNERHISTORY(#23,#4,.READWRITE.,.MODIFIED.,1787483248,#3,#27,1761750327);
#1241=IFCBUILDINGSTOREY('1VjEk5I8XFmfiAYaLk_F_7',#1240,'FUR',$,$,#1246,$,$,$,$);
#1242=IFCCARTESIANPOINT((0.,0.,0.));
#1243=IFCDIRECTION((0.,0.,1.));
#1244=IFCDIRECTION((1.,0.,0.));
#1245=IFCAXIS2PLACEMENT3D(#1242,#1243,#1244);
#1246=IFCLOCALPLACEMENT($,#1245);
#1247=IFCOWNERHISTORY(#23,#4,.READWRITE.,.MODIFIED.,1787483248,#3,#27,1759986564);
#1248=IFCBUILDING('0aVVbcf_9A9x07_Nod0gAP',#1247,'My Building',$,$,#1253,$,$,$,$,$,$);
#1249=IFCCARTESIANPOINT((0.,0.,0.));
#1250=IFCDIRECTION((0.,0.,1.));
#1251=IFCDIRECTION((1.,0.,0.));
#1252=IFCAXIS2PLACEMENT3D(#1249,#1250,#1251);
#1253=IFCLOCALPLACEMENT($,#1252);
#1254=IFCSITE('3iWnpcHW54tQCcUMk_yOsj',#1260,'My Site',$,$,#1259,$,$,$,$,$,$,$,$);
#1255=IFCCARTESIANPOINT((0.,0.,0.));
#1256=IFCDIRECTION((0.,0.,1.));
#1257=IFCDIRECTION((1.,0.,0.));
#1258=IFCAXIS2PLACEMENT3D(#1255,#1256,#1257);
#1259=IFCLOCALPLACEMENT($,#1258);
#1260=IFCOWNERHISTORY(#3,#27,.READWRITE.,.ADDED.,1787483248,#3,#27,1787483248);
#1261=IFCRELCONTAINEDINSPATIALSTRUCTURE('3d2HZmTPbFxeydpgLKxxOf',#5,$,$,(#1117),#1227);
#1262=IFCRELAGGREGATES('2j8buY$wTFzf9eWeqpWKaN',#5,$,$,#1234,(#1227));
#1263=IFCRELAGGREGATES('3RoysgEUL1BuC5Ep1kIxE$',#5,$,$,#1241,(#1234));
#1264=IFCRELAGGREGATES('23KuQIZtH3lxlKGQChPAzB',#5,$,$,#1248,(#1241));
#1265=IFCRELAGGREGATES('0CQm9Lk4H2f9784JWlA9h6',#5,$,$,#1254,(#1248));
#1266=IFCRELAGGREGATES('3LzAotv_P8DArc_q8zBhtB',#5,$,$,#20,(#1254));
ENDSEC;
END-ISO-10303-21;
