<svg xmlns="http://www.w3.org/2000/svg" width="1400" height="800" viewBox="0 0 1400 800">
<rect width="1400" height="800" fill="#f8fafc"/>
<text x="60" y="60" class="title">E-304｜玄关柜路由器定位取证</text>
<text x="60" y="96" class="subtitle">官方 CAD 机械提取｜只确认平面柜位，不虚构产品与安装高度</text>
<rect x="40" y="115" width="830" height="610" rx="16" class="panel"/>
<text x="65" y="155" class="section">玄关 / 过道高柜平面局部</text>
<path d="M 202.20 426.15 L 458.95 426.15 L 458.95 486.46 L 202.20 486.46 Z" fill="none" stroke="#14213d" stroke-width="2"/><path d="M 206.15 430.46 L 455.00 430.46 L 455.00 482.15 L 206.15 482.15 Z" fill="none" stroke="#14213d" stroke-width="2"/><path d="M 206.15 482.15 L 455.00 430.46" fill="none" stroke="#14213d" stroke-width="2"/><path d="M 206.15 430.46 L 455.00 482.15" fill="none" stroke="#14213d" stroke-width="2"/><path d="M 458.95 426.15 L 707.80 426.15 L 707.80 486.46 L 458.95 486.46 Z" fill="none" stroke="#14213d" stroke-width="2"/><path d="M 462.90 430.46 L 703.85 430.46 L 703.85 482.15 L 462.90 482.15 Z" fill="none" stroke="#14213d" stroke-width="2"/><path d="M 462.90 482.15 L 703.85 430.46" fill="none" stroke="#14213d" stroke-width="2"/><path d="M 462.90 430.46 L 703.85 482.15" fill="none" stroke="#14213d" stroke-width="2"/><text x="376.54" y="281.79" class="plan-text">玄关</text><text x="364.15" y="314.70" class="plan-text">FOYER</text><text x="377.84" y="343.70" class="plan-text">A:4.5</text><text x="453.53" y="449.53" class="plan-text">+300</text><text x="603.00" y="175.13" class="plan-text">+1300</text><path d="M 718.98 190.51 L 710.94 190.51 L 710.94 187.17 L 708.12 187.17 L 708.12 411.08 L 710.93 411.08 L 710.93 407.74 L 718.99 407.74 Z" fill="none" stroke="#5c677d" stroke-width="2"/><path d="M 751.25 424.00 L 754.18 424.00 L 754.38 423.79 L 754.38 414.53 L 754.18 414.31 L 751.22 414.31 L 751.22 411.30 L 751.02 411.08 L 730.31 411.08 L 730.32 404.84 L 730.12 404.62 L 720.05 404.62 L 719.85 404.84 L 719.85 408.71 L 711.75 408.71 L 711.55 408.93 L 711.55 411.08 L 708.00 411.08 L 707.80 411.30 L 707.80 414.31 L 704.94 414.31 L 704.64 414.64 L 704.64 423.57 L 705.04 424.00 L 707.80 424.00 L 707.80 417.54 L 751.25 417.54 Z" fill="none" stroke="#5c677d" stroke-width="2"/><path d="M 512.23 399.24 L 512.23 408.01 L 509.17 408.01 L 509.17 411.08 L 710.62 411.08 L 710.62 408.01 L 707.55 408.01 L 707.55 399.23 Z" fill="none" stroke="#5c677d" stroke-width="2"/><path d="M 751.25 174.15 L 754.18 174.15 L 754.38 174.36 L 754.38 183.63 L 754.18 183.84 L 751.22 183.84 L 751.22 186.86 L 751.02 187.07 L 730.31 187.07 L 730.32 193.32 L 730.12 193.53 L 720.05 193.53 L 719.85 193.32 L 719.85 189.44 L 711.75 189.44 L 711.55 189.23 L 711.55 187.07 L 708.00 187.07 L 707.80 186.86 L 707.80 183.84 L 704.94 183.84 L 704.64 183.52 L 704.64 174.58 L 705.04 174.15 L 707.80 174.15 L 707.80 180.62 L 751.25 180.62 Z" fill="none" stroke="#5c677d" stroke-width="2"/><text x="208.79" y="451.49" class="plan-text">2560*280</text>
<path d="M 202.20 426.15 L 458.95 426.15 L 458.95 486.46 L 202.20 486.46 Z" class="cabinet" data-handle="22017E"/><path d="M 458.95 426.15 L 707.80 426.15 L 707.80 486.46 L 458.95 486.46 Z" class="cabinet" data-handle="220182"/>
<circle cx="474.75" cy="471.46" r="14" class="marker"/>
<path d="M 490.75 463.46 L 599.75 401.46" class="leader"/>
<text x="607.75" y="393.46" class="marker-label">弱电箱 / 路由器柜位</text>
<text x="607.75" y="421.46" class="marker-note">IFC XY ≈ (4600.016, -735.369) mm</text>
<text x="65" y="700" class="footnote">蓝色轮廓：玄关高柜两柜格｜紫色：弱电标注引线落点｜橙色：原 CAD 电气图层</text>
<rect x="900" y="115" width="460" height="610" rx="16" class="panel"/>
<text x="930" y="160" class="section">取证结论</text>
<text x="930" y="205" class="body">1. “强电箱、弱电箱配置于过道高柜内”</text>
<text x="950" y="234" class="meta">TEXT #2598C0｜DIML【标注引线】</text>
<text x="930" y="285" class="body">2. “弱电配电箱(底边距地H+350mm)”</text>
<text x="950" y="314" class="meta">TEXT #224270｜EM-TEXT</text>
<text x="930" y="365" class="body">3. “弱电箱箱内预留五孔插座”</text>
<text x="950" y="394" class="meta">TEXT #224295｜EM-TEXT</text>
<text x="930" y="448" class="decision">已确认：路由器放玄关/过道高柜弱电箱柜位</text>
<text x="930" y="482" class="warning">未确认：路由器 Z、层板、产品、散热及检修净空</text>
<text x="930" y="516" class="warning">H+350 是弱电箱底边，不是路由器安装高度</text>
<text x="930" y="570" class="meta">01 平面系统图 DWG  ba355f6a90732ad0…</text>
<text x="930" y="599" class="meta">验证转换 DXF       706483de83d90e52…</text>
<text x="930" y="628" class="meta">02 立面图 DWG       80c0e01a3e713941…</text>
<text x="930" y="669" class="meta">02 文件已登记哈希；本平面定位证据取自 01 的 E-2 视口</text>
<style>
.title{font:700 32px Arial,'Noto Sans CJK SC',sans-serif;fill:#0f172a}.subtitle{font:18px Arial,'Noto Sans CJK SC',sans-serif;fill:#475569}
.panel{fill:#fff;stroke:#cbd5e1;stroke-width:2}.section{font:700 22px Arial,'Noto Sans CJK SC',sans-serif;fill:#0f172a}
.plan-text{font:16px Arial,'Noto Sans CJK SC',sans-serif;fill:#334155}.cabinet{fill:#dbeafe;fill-opacity:.55;stroke:#2563eb;stroke-width:5}
.marker{fill:#7c3aed;stroke:#4c1d95;stroke-width:5}.leader{fill:none;stroke:#7c3aed;stroke-width:4}.marker-label{font:700 19px Arial,'Noto Sans CJK SC',sans-serif;fill:#4c1d95}
.marker-note,.footnote{font:16px Arial,'Noto Sans CJK SC',sans-serif;fill:#475569}.body{font:18px Arial,'Noto Sans CJK SC',sans-serif;fill:#1e293b}
.meta{font:15px Menlo,'Noto Sans CJK SC',monospace;fill:#64748b}.decision{font:700 18px Arial,'Noto Sans CJK SC',sans-serif;fill:#166534}
.warning{font:700 17px Arial,'Noto Sans CJK SC',sans-serif;fill:#b91c1c}
</style></svg>