<svg xmlns="http://www.w3.org/2000/svg" xmlns:xlink="http://www.w3.org/1999/xlink" xmlns:ifc="http://www.ifcopenshell.org/ns" width="1000mm" height="1000mm" viewBox="0 0 1000 1000">
    <defs>
        <marker id="arrowend" markerWidth="10" markerHeight="7" refX="10" refY="3.5" orient="auto">
          <polygon points="0 0, 10 3.5, 0 7"/>
        </marker>
        <marker id="arrowstart" markerWidth="10" markerHeight="7" refX="0" refY="3.5" orient="auto">
          <polygon points="10 0, 0 3.5, 10 7"/>
        </marker>
    </defs>
    <g ifc:name="Elevation FFL PLAN" class="section" ifc:plane="[[1.000000,0.000000,0.000000,0.000000],[0.000000,1.000000,0.000000,0.000000],[0.000000,0.000000,1.000000,1.600000],[0.000000,0.000000,0.000000,1.000000]]" ifc:matrix3="[[20.000000,0.000000,499.999991],[0.000000,20.000000,499.999991],[0.000000,0.000000,1.000000]]">
        <g id="product-7bba813b-ea00-45f3-bb4a-8566ce0db900" class="IfcWall material-concrete projection" ifc:name="Wall" ifc:guid="1xke4xwW15yxjAXMRE3Ra0">
            <path d="M436.24620927745258,580.0789614295287 L444.2462084875138,580.07885019933451"/>
            <path d="M444.2462084875138,580.07885019933451 L444.24598602707442,564.07884811710267"/>
            <path d="M444.24598602707442,564.07884811710267 L436.24598681701315,564.07895934729686"/>
            <path d="M436.24598681701315,564.07895934729686 L436.24620927745258,580.0789614295287"/>
        </g>
        <g id="product-646ac799-fcc4-45e2-b68b-c8e8485ede94" class="IfcWall material-concrete projection" ifc:name="Wall" ifc:guid="1aQiUP$CH5uhQBoEX8NjwK">
            <path d="M504.24600134641912,396.08002122309364 L496.24600213558472,396.08001966543634"/>
            <path d="M496.24600213558472,396.08001966543634 L496.2459990204681,412.07900124142463"/>
            <path d="M496.2459990204681,412.07900124142463 L504.24599823130245,412.07900279908199"/>
            <path d="M504.24599823130245,412.07900279908199 L504.24600134641912,396.08002122309364"/>
        </g>
        <g id="product-06f82a6f-ffe7-4f13-92ef-2d3d64e8e7d3" class="IfcWall material-concrete projection" ifc:name="Wall" ifc:guid="06_2fl$_TF4vBlBJrawEVJ">
            <path d="M638.2460197495526,396.07901025205024 L630.2460205387199,396.07900487969601"/>
            <path d="M630.2460205387199,396.07900487969601 L630.24600979400907,412.07900696347076"/>
            <path d="M630.24600979400907,412.07900696347076 L638.24600900484177,412.07901233582498"/>
            <path d="M638.24600900484177,412.07901233582498 L638.2460197495526,396.07901025205024"/>
        </g>
        <g id="product-7ce20499-6a76-43e3-8653-c63afa78a9bb" class="IfcWall material-concrete projection" ifc:name="Wall" ifc:guid="1yuWIPQdP3uuPJnZhwUAcx">
            <path d="M366.24620833070628,568.08845335252624 L374.24620754154074,568.08845274854309"/>
            <path d="M374.24620754154074,568.08845274854309 L374.24620693755747,560.08845170665393"/>
            <path d="M374.24620693755747,560.08845170665393 L366.24620772672301,560.08845231063708"/>
            <path d="M366.24620772672301,560.08845231063708 L366.24620833070628,568.08845335252624"/>
        </g>
        <g id="product-c830c852-e6bf-4699-aa61-35401dc79e81" class="IfcWall material-concrete projection" ifc:name="Wall" ifc:guid="38CCXIvhz6cQfXDK0Tnvw1">
            <path d="M500.2462068932283,596.07896420149882 L500.24620568526393,580.07899141459495"/>
            <path d="M508.24620549371127,596.07896359751578 L500.2462068932283,596.07896420149882"/>
            <path d="M508.2462042857469,580.0789908106118 L508.24620549371127,596.07896359751578"/>
            <path d="M500.24620568526393,580.07899141459495 L508.2462042857469,580.0789908106118"/>
        </g>
        <g id="product-98bda461-31f6-4285-b874-5e618243feab" class="IfcWall material-concrete projection" ifc:name="Wall" ifc:guid="2OlQHXCVP2XRXqNc62G$wh">
            <path d="M572.24620528390722,580.07896394877559 L564.24620607307293,580.07896239111824"/>
            <path d="M564.24620607307293,580.07896239111824 L564.2462029577556,596.07897424052112"/>
            <path d="M564.2462029577556,596.07897424052112 L572.24620216859,596.07897579817836"/>
            <path d="M572.24620216859,596.07897579817836 L572.24620528390722,580.07896394877559"/>
        </g>
        <g id="product-4ce9c9a0-9d4b-4ac9-b6ce-5672603dc16d" class="IfcWall material-concrete projection" ifc:name="Wall" ifc:guid="1CwScWdKjAoRRELd9WFS5j">
            <path d="M378.24620866646865,408.07899022369457 L378.24620555115354,424.07899108676952"/>
            <path d="M370.24621006598579,408.07898866603739 L378.24620866646865,408.07899022369457"/>
            <path d="M370.24620695067068,424.07898952911233 L370.24621006598579,408.07898866603739"/>
            <path d="M378.24620555115354,424.07899108676952 L370.24620695067068,424.07898952911233"/>
        </g>
        <g id="product-8ebd304b-85e9-4ad4-82f0-5a4af6a6b958" class="IfcWall material-concrete projection" ifc:name="Wall" ifc:guid="2ElJ1BXUbAr8BmMahsfhbO">
            <path d="M410.24620604386479,408.07898789792182 L410.24620292854922,424.07899108676952"/>
            <path d="M403.2462055899756,408.07898653497142 L410.24620604386479,408.07898789792182"/>
            <path d="M403.24620247466004,424.07898972381918 L403.2462055899756,408.07898653497142"/>
            <path d="M410.24620292854922,424.07899108676952 L403.24620247466004,424.07898972381918"/>
        </g>
        <g id="product-79f299ae-70cf-483f-ae88-e5d294434cb0" class="IfcWall material-concrete projection" ifc:name="Wall" ifc:guid="1vyfckSCz8Fww8vTAKGqom">
            <path d="M406.24620743663593,476.078995169687 L406.24620683265334,468.07900297789581"/>
            <path d="M410.2462070452371,472.07899144439529 L406.24620743663593,476.078995169687"/>
            <path d="M410.24620674324632,468.07900267590418 L410.2462070452371,472.07899144439529"/>
            <path d="M406.24620683265334,468.07900297789581 L410.24620674324632,468.07900267590418"/>
        </g>
        <g id="product-48a2cc1a-6723-4d52-af9a-5320b8845a2f" class="IfcWall material-concrete projection" ifc:name="Wall" ifc:guid="18eimQPoDDKg_QKo2uX5el">
            <path d="M504.24597903850065,550.07895393816659 L504.24620565546161,580.07896280436614"/>
            <path d="M500.24597912802176,550.07898415375178 L504.24597903850065,550.07895393816659"/>
            <path d="M500.24620574498272,580.07899301995133 L500.24597912802176,550.07898415375178"/>
            <path d="M504.24620565546161,580.07896280436614 L500.24620574498272,580.07899301995133"/>
        </g>
        <g id="product-0555c8a4-f249-43c4-930d-b00073e8953f" class="IfcWall material-concrete projection" ifc:name="Wall" ifc:guid="05LSYayab3n9CDi01pw9K$">
            <path d="M370.2462085034889,560.08845484383437 L370.2462038226189,498.08845336861958"/>
            <path d="M374.24620841408193,560.08845454184279 L370.2462085034889,560.08845484383437"/>
            <path d="M374.24620373321193,498.08845306662801 L374.24620841408193,560.08845454184279"/>
            <path d="M370.2462038226189,498.08845336861958 L374.24620373321193,498.08845306662801"/>
        </g>
        <g id="product-5b7a7b84-3c97-4e89-8a11-d9519d2f950c" class="IfcWall material-concrete projection" ifc:name="Wall" ifc:guid="1RUdk4F9TEYOeHsL6TBvKC">
            <path d="M568.24620372025527,628.07897323517864 L568.24620130432254,596.07897579817836"/>
            <path d="M572.2462036308483,628.07897293318706 L568.24620372025527,628.07897323517864"/>
            <path d="M572.24620121491557,596.07897549618679 L572.2462036308483,628.07897293318706"/>
            <path d="M568.24620130432254,596.07897579817836 L572.24620121491557,596.07897549618679"/>
        </g>
        <g id="product-842b4a76-2a5f-4990-9e18-65aadb847168" class="IfcWall material-concrete projection" ifc:name="Wall" ifc:guid="24AqfsAbz9a9uOPQhRX75e">
            <path d="M444.24557835835986,476.07895893066296 L406.24620743663593,476.078995169687"/>
            <path d="M444.24557454366271,472.07895902007175 L444.24557835835986,476.07895893066296"/>
            <path d="M410.24620704523704,472.07899144439529 L444.24557454366271,472.07895902007175"/>
            <path d="M406.24620743663593,476.078995169687 L410.24620704523704,472.07899144439529"/>
        </g>
        <g id="product-81d55a83-34b5-439f-8ccc-432b026f67a9" class="IfcWall material-concrete projection" ifc:name="Wall" ifc:guid="21rLg3DBL3dupCGoi2RsUf">
            <path d="M584.24600799451957,394.08001208285424 L584.24600448978993,412.08001369383476"/>
            <path d="M580.24600808392654,394.0800113040255 L584.24600799451957,394.08001208285424"/>
            <path d="M580.24600535802551,408.08001378324172 L580.24600808392654,394.0800113040255"/>
            <path d="M584.24600448978993,412.08001369383476 L580.24600535802551,408.08001378324172"/>
        </g>
        <g id="product-315ee642-b892-4bd1-a4ec-bd403f387a5a" class="IfcWall material-concrete projection" ifc:name="Wall" ifc:guid="0nNkP2k99BqQJilK0$E7fQ">
            <path d="M568.24600103272076,504.07857818561268 L638.2460185415847,504.07900598793037"/>
            <path d="M572.24600124530718,508.07860254212233 L568.24600103272076,504.07857818561268"/>
            <path d="M638.24599409574466,508.07900589844871 L572.24600124530718,508.07860254212233"/>
            <path d="M638.2460185415847,504.07900598793037 L638.24599409574466,508.07900589844871"/>
        </g>
        <g id="product-2d564955-8be2-4c04-8678-1f77f6f784b6" class="IfcWall material-concrete projection" ifc:name="Wall" ifc:guid="0jLabLY_9C18Pu7tVszuIs">
            <path d="M584.24600448978993,412.08001369383476 L568.24600103272064,412.08001369383476"/>
            <path d="M580.24600535802551,408.08001378324172 L584.24600448978993,412.08001369383476"/>
            <path d="M568.24600103272064,408.08001378324172 L580.24600535802551,408.08001378324172"/>
            <path d="M568.24600103272064,412.08001369383476 L568.24600103272064,408.08001378324172"/>
        </g>
        <g id="product-f7f01bde-cdaa-4d0e-9881-f2900def2143" class="IfcWall material-concrete projection" ifc:name="Wall" ifc:guid="3ty1lUpQfD3fY1yf0Dxo53">
            <path d="M374.24621004328873,424.07897439747029 L374.24619991851483,476.07897609620164"/>
            <path d="M370.24621013269575,424.07897361864156 L374.24621004328873,424.07897439747029"/>
            <path d="M370.24620000792186,476.07897531737297 L370.24621013269575,424.07897361864156"/>
            <path d="M374.24619991851483,476.07897609620164 L370.24620000792186,476.07897531737297"/>
        </g>
        <g id="product-72906f50-8540-4ca3-87ff-0776e3589625" class="IfcWall material-concrete projection" ifc:name="Wall" ifc:guid="1oa6zGXK1CeuV$1tRZM9Ob">
            <path d="M568.24600473212035,553.07861095011526 L568.24600103272064,504.07857818561268"/>
            <path d="M572.24600464271327,553.07861064812369 L568.24600473212035,553.07861095011526"/>
            <path d="M572.24600124530718,508.07860254212238 L572.24600464271327,553.07861064812369"/>
            <path d="M568.24600103272064,504.07857818561268 L572.24600124530718,508.07860254212238"/>
        </g>
        <g id="product-d2eb7b6c-9422-406e-acbb-62386c86d8be" class="IfcWall material-concrete projection" ifc:name="Wall" ifc:guid="3Iwtjib290RgoxOZXiXjY_">
            <path d="M500.246010722356,476.07895893004905 L500.24599826110477,412.07900279908193"/>
            <path d="M504.24601063294892,476.07895815122032 L500.246010722356,476.07895893004905"/>
            <path d="M504.24599817169775,412.07900202025326 L504.24601063294892,476.07895815122032"/>
            <path d="M500.24599826110477,412.07900279908199 L504.24599817169775,412.07900202025326"/>
        </g>
        <g id="product-d2623223-fff1-4d44-9990-b2b0c4ea3dff" class="IfcWall material-concrete projection" ifc:name="Wall" ifc:guid="3IOZ8Z$$5DH9cGih34wZt$">
            <path d="M440.24600076258906,564.07895907480554 L440.24620225799697,536.07897475509719"/>
            <path d="M444.24600067307853,564.07898785987925 L440.24600076258906,564.07895907480554"/>
            <path d="M444.24620216848643,536.0790035401709 L444.24600067307853,564.07898785987925"/>
            <path d="M440.24620225799697,536.07897475509719 L444.24620216848643,536.0790035401709"/>
        </g>
        <g id="product-fa80308f-67be-4414-a983-f2be1c0a015e" class="IfcWall material-concrete projection" ifc:name="Wall" ifc:guid="3wW32FPxv45Ac3yhuS2W5U">
            <path d="M634.24602923284419,464.07978232352161 L634.24601290894577,412.07901233582498"/>
            <path d="M638.246029143437,464.07978106785572 L634.24602923284419,464.07978232352161"/>
            <path d="M638.24601281953869,412.07901108015909 L638.246029143437,464.07978106785572"/>
            <path d="M634.24601290894577,412.07901233582498 L638.24601281953869,412.07901108015909"/>
        </g>
        <g id="product-51cc780e-4fc8-4d88-857c-c1c2dec08d16" class="IfcWall material-null projection" ifc:name="Wall" ifc:guid="1Hp7WEJyXDY8LymSBUm8qM">
            <path d="M677.26538675499773,418.7433264568856 L677.2653829801028,468.74332533929834"/>
            <path d="M672.18538662631136,418.74332607335623 L677.26538675499773,418.7433264568856"/>
            <path d="M672.18538285141642,468.74332495576903 L672.18538662631136,418.74332607335623"/>
            <path d="M677.2653829801028,468.74332533929834 L672.18538285141642,468.74332495576903"/>
        </g>
    <g class="IfcWall 1oa6zGXK1CeuV$1tRZM9Ob 21rLg3DBL3dupCGoi2RsUf 1vyfckSCz8Fww8vTAKGqom 24AqfsAbz9a9uOPQhRX75e 0jLabLY_9C18Pu7tVszuIs 05LSYayab3n9CDi01pw9K$ material-concrete cut 1xke4xwW15yxjAXMRE3Ra0 18eimQPoDDKg_QKo2uX5el 3Iwtjib290RgoxOZXiXjY_ 1CwScWdKjAoRRELd9WFS5j 2OlQHXCVP2XRXqNc62G$wh 3ty1lUpQfD3fY1yf0Dxo53 2ElJ1BXUbAr8BmMahsfhbO 1RUdk4F9TEYOeHsL6TBvKC 38CCXIvhz6cQfXDK0Tnvw1 06_2fl$_TF4vBlBJrawEVJ 3wW32FPxv45Ac3yhuS2W5U 1aQiUP$CH5uhQBoEX8NjwK 0nNkP2k99BqQJilK0$E7fQ 1yuWIPQdP3uuPJnZhwUAcx 3IOZ8Z$$5DH9cGih34wZt$"><path d="M496.246,396.08 L496.246,403.546 L496.246,412.079 L499.979,412.079 L500.246,412.079 L500.246,441.946 L500.246,476.079 L502.113,476.079 L504.246,476.079 L504.246,446.212 L504.246,412.079 L504.246,404.613 L504.246,396.08 L500.513,396.08 Z"/></g><g class="IfcWall 1oa6zGXK1CeuV$1tRZM9Ob 21rLg3DBL3dupCGoi2RsUf 1vyfckSCz8Fww8vTAKGqom 24AqfsAbz9a9uOPQhRX75e 0jLabLY_9C18Pu7tVszuIs 05LSYayab3n9CDi01pw9K$ material-concrete cut 1xke4xwW15yxjAXMRE3Ra0 18eimQPoDDKg_QKo2uX5el 3Iwtjib290RgoxOZXiXjY_ 1CwScWdKjAoRRELd9WFS5j 2OlQHXCVP2XRXqNc62G$wh 3ty1lUpQfD3fY1yf0Dxo53 2ElJ1BXUbAr8BmMahsfhbO 1RUdk4F9TEYOeHsL6TBvKC 38CCXIvhz6cQfXDK0Tnvw1 06_2fl$_TF4vBlBJrawEVJ 3wW32FPxv45Ac3yhuS2W5U 1aQiUP$CH5uhQBoEX8NjwK 0nNkP2k99BqQJilK0$E7fQ 1yuWIPQdP3uuPJnZhwUAcx 3IOZ8Z$$5DH9cGih34wZt$"><path d="M370.246,415.546 L370.246,424.079 L370.246,448.346 L370.246,476.079 L372.113,476.079 L374.246,476.079 L374.246,451.812 L374.246,424.079 L378.246,424.079 L378.246,416.612 L378.246,408.079 L374.513,408.079 L370.246,408.079 Z"/></g><g class="IfcWall 1oa6zGXK1CeuV$1tRZM9Ob 21rLg3DBL3dupCGoi2RsUf 1vyfckSCz8Fww8vTAKGqom 24AqfsAbz9a9uOPQhRX75e 0jLabLY_9C18Pu7tVszuIs 05LSYayab3n9CDi01pw9K$ material-concrete cut 1xke4xwW15yxjAXMRE3Ra0 18eimQPoDDKg_QKo2uX5el 3Iwtjib290RgoxOZXiXjY_ 1CwScWdKjAoRRELd9WFS5j 2OlQHXCVP2XRXqNc62G$wh 3ty1lUpQfD3fY1yf0Dxo53 2ElJ1BXUbAr8BmMahsfhbO 1RUdk4F9TEYOeHsL6TBvKC 38CCXIvhz6cQfXDK0Tnvw1 06_2fl$_TF4vBlBJrawEVJ 3wW32FPxv45Ac3yhuS2W5U 1aQiUP$CH5uhQBoEX8NjwK 0nNkP2k99BqQJilK0$E7fQ 1yuWIPQdP3uuPJnZhwUAcx 3IOZ8Z$$5DH9cGih34wZt$"><path d="M403.246,415.546 L403.246,424.079 L406.513,424.079 L410.246,424.079 L410.246,416.612 L410.246,408.079 L406.98,408.079 L403.246,408.079 Z"/></g><g class="IfcWall 1oa6zGXK1CeuV$1tRZM9Ob 21rLg3DBL3dupCGoi2RsUf 1vyfckSCz8Fww8vTAKGqom 24AqfsAbz9a9uOPQhRX75e 0jLabLY_9C18Pu7tVszuIs 05LSYayab3n9CDi01pw9K$ material-concrete cut 1xke4xwW15yxjAXMRE3Ra0 18eimQPoDDKg_QKo2uX5el 3Iwtjib290RgoxOZXiXjY_ 1CwScWdKjAoRRELd9WFS5j 2OlQHXCVP2XRXqNc62G$wh 3ty1lUpQfD3fY1yf0Dxo53 2ElJ1BXUbAr8BmMahsfhbO 1RUdk4F9TEYOeHsL6TBvKC 38CCXIvhz6cQfXDK0Tnvw1 06_2fl$_TF4vBlBJrawEVJ 3wW32FPxv45Ac3yhuS2W5U 1aQiUP$CH5uhQBoEX8NjwK 0nNkP2k99BqQJilK0$E7fQ 1yuWIPQdP3uuPJnZhwUAcx 3IOZ8Z$$5DH9cGih34wZt$"><path d="M410.246,470.212 L410.246,468.079 L408.38,468.079 L406.246,468.079 L406.246,471.812 L406.246,476.079 L408.113,474.212 L410.246,472.079 Z"/></g><g class="IfcWall 1oa6zGXK1CeuV$1tRZM9Ob 21rLg3DBL3dupCGoi2RsUf 1vyfckSCz8Fww8vTAKGqom 24AqfsAbz9a9uOPQhRX75e 0jLabLY_9C18Pu7tVszuIs 05LSYayab3n9CDi01pw9K$ material-concrete cut 1xke4xwW15yxjAXMRE3Ra0 18eimQPoDDKg_QKo2uX5el 3Iwtjib290RgoxOZXiXjY_ 1CwScWdKjAoRRELd9WFS5j 2OlQHXCVP2XRXqNc62G$wh 3ty1lUpQfD3fY1yf0Dxo53 2ElJ1BXUbAr8BmMahsfhbO 1RUdk4F9TEYOeHsL6TBvKC 38CCXIvhz6cQfXDK0Tnvw1 06_2fl$_TF4vBlBJrawEVJ 3wW32FPxv45Ac3yhuS2W5U 1aQiUP$CH5uhQBoEX8NjwK 0nNkP2k99BqQJilK0$E7fQ 1yuWIPQdP3uuPJnZhwUAcx 3IOZ8Z$$5DH9cGih34wZt$"><path d="M428.379,472.079 L410.246,472.079 L408.38,473.946 L406.246,476.079 L423.979,476.079 L444.246,476.079 L444.246,474.212 L444.246,472.079 Z"/></g><g class="IfcWall 1oa6zGXK1CeuV$1tRZM9Ob 21rLg3DBL3dupCGoi2RsUf 1vyfckSCz8Fww8vTAKGqom 24AqfsAbz9a9uOPQhRX75e 0jLabLY_9C18Pu7tVszuIs 05LSYayab3n9CDi01pw9K$ material-concrete cut 1xke4xwW15yxjAXMRE3Ra0 18eimQPoDDKg_QKo2uX5el 3Iwtjib290RgoxOZXiXjY_ 1CwScWdKjAoRRELd9WFS5j 2OlQHXCVP2XRXqNc62G$wh 3ty1lUpQfD3fY1yf0Dxo53 2ElJ1BXUbAr8BmMahsfhbO 1RUdk4F9TEYOeHsL6TBvKC 38CCXIvhz6cQfXDK0Tnvw1 06_2fl$_TF4vBlBJrawEVJ 3wW32FPxv45Ac3yhuS2W5U 1aQiUP$CH5uhQBoEX8NjwK 0nNkP2k99BqQJilK0$E7fQ 1yuWIPQdP3uuPJnZhwUAcx 3IOZ8Z$$5DH9cGih34wZt$"><path d="M366.246,568.088 L369.98,568.088 L374.246,568.088 L374.246,564.355 L374.246,560.088 L374.246,531.155 L374.246,498.088 L372.38,498.088 L370.246,498.088 L370.246,527.022 L370.246,560.088 L366.246,560.088 L366.246,563.822 Z"/></g><g class="IfcWall 1oa6zGXK1CeuV$1tRZM9Ob 21rLg3DBL3dupCGoi2RsUf 1vyfckSCz8Fww8vTAKGqom 24AqfsAbz9a9uOPQhRX75e 0jLabLY_9C18Pu7tVszuIs 05LSYayab3n9CDi01pw9K$ material-concrete cut 1xke4xwW15yxjAXMRE3Ra0 18eimQPoDDKg_QKo2uX5el 3Iwtjib290RgoxOZXiXjY_ 1CwScWdKjAoRRELd9WFS5j 2OlQHXCVP2XRXqNc62G$wh 3ty1lUpQfD3fY1yf0Dxo53 2ElJ1BXUbAr8BmMahsfhbO 1RUdk4F9TEYOeHsL6TBvKC 38CCXIvhz6cQfXDK0Tnvw1 06_2fl$_TF4vBlBJrawEVJ 3wW32FPxv45Ac3yhuS2W5U 1aQiUP$CH5uhQBoEX8NjwK 0nNkP2k99BqQJilK0$E7fQ 1yuWIPQdP3uuPJnZhwUAcx 3IOZ8Z$$5DH9cGih34wZt$"><path d="M444.246,536.079 L442.38,536.079 L440.246,536.079 L440.246,549.146 L440.246,564.079 L436.246,564.079 L436.246,571.546 L436.246,580.079 L439.98,580.079 L444.246,580.079 L444.246,572.612 L444.246,564.079 L444.246,551.012 Z"/></g><g class="IfcWall 1oa6zGXK1CeuV$1tRZM9Ob 21rLg3DBL3dupCGoi2RsUf 1vyfckSCz8Fww8vTAKGqom 24AqfsAbz9a9uOPQhRX75e 0jLabLY_9C18Pu7tVszuIs 05LSYayab3n9CDi01pw9K$ material-concrete cut 1xke4xwW15yxjAXMRE3Ra0 18eimQPoDDKg_QKo2uX5el 3Iwtjib290RgoxOZXiXjY_ 1CwScWdKjAoRRELd9WFS5j 2OlQHXCVP2XRXqNc62G$wh 3ty1lUpQfD3fY1yf0Dxo53 2ElJ1BXUbAr8BmMahsfhbO 1RUdk4F9TEYOeHsL6TBvKC 38CCXIvhz6cQfXDK0Tnvw1 06_2fl$_TF4vBlBJrawEVJ 3wW32FPxv45Ac3yhuS2W5U 1aQiUP$CH5uhQBoEX8NjwK 0nNkP2k99BqQJilK0$E7fQ 1yuWIPQdP3uuPJnZhwUAcx 3IOZ8Z$$5DH9cGih34wZt$"><path d="M580.246,400.613 L580.246,408.08 L582.113,409.947 L584.246,412.08 L584.246,403.68 L584.246,394.08 L582.379,394.08 L580.246,394.08 Z"/></g><g class="IfcWall 1oa6zGXK1CeuV$1tRZM9Ob 21rLg3DBL3dupCGoi2RsUf 1vyfckSCz8Fww8vTAKGqom 24AqfsAbz9a9uOPQhRX75e 0jLabLY_9C18Pu7tVszuIs 05LSYayab3n9CDi01pw9K$ material-concrete cut 1xke4xwW15yxjAXMRE3Ra0 18eimQPoDDKg_QKo2uX5el 3Iwtjib290RgoxOZXiXjY_ 1CwScWdKjAoRRELd9WFS5j 2OlQHXCVP2XRXqNc62G$wh 3ty1lUpQfD3fY1yf0Dxo53 2ElJ1BXUbAr8BmMahsfhbO 1RUdk4F9TEYOeHsL6TBvKC 38CCXIvhz6cQfXDK0Tnvw1 06_2fl$_TF4vBlBJrawEVJ 3wW32FPxv45Ac3yhuS2W5U 1aQiUP$CH5uhQBoEX8NjwK 0nNkP2k99BqQJilK0$E7fQ 1yuWIPQdP3uuPJnZhwUAcx 3IOZ8Z$$5DH9cGih34wZt$"><path d="M630.246,396.079 L630.246,403.546 L630.246,412.079 L633.979,412.079 L634.246,412.079 L634.246,436.346 L634.246,464.08 L636.113,464.08 L638.246,464.08 L638.246,439.813 L638.246,412.079 L638.246,404.612 L638.246,396.079 L634.513,396.079 Z"/></g><g class="IfcWall 1oa6zGXK1CeuV$1tRZM9Ob 21rLg3DBL3dupCGoi2RsUf 1vyfckSCz8Fww8vTAKGqom 24AqfsAbz9a9uOPQhRX75e 0jLabLY_9C18Pu7tVszuIs 05LSYayab3n9CDi01pw9K$ material-concrete cut 1xke4xwW15yxjAXMRE3Ra0 18eimQPoDDKg_QKo2uX5el 3Iwtjib290RgoxOZXiXjY_ 1CwScWdKjAoRRELd9WFS5j 2OlQHXCVP2XRXqNc62G$wh 3ty1lUpQfD3fY1yf0Dxo53 2ElJ1BXUbAr8BmMahsfhbO 1RUdk4F9TEYOeHsL6TBvKC 38CCXIvhz6cQfXDK0Tnvw1 06_2fl$_TF4vBlBJrawEVJ 3wW32FPxv45Ac3yhuS2W5U 1aQiUP$CH5uhQBoEX8NjwK 0nNkP2k99BqQJilK0$E7fQ 1yuWIPQdP3uuPJnZhwUAcx 3IOZ8Z$$5DH9cGih34wZt$"><path d="M568.246,408.08 L568.246,409.947 L568.246,412.08 L575.713,412.08 L584.246,412.08 L582.379,410.213 L580.246,408.08 L574.646,408.08 Z"/></g><g class="IfcWall 1oa6zGXK1CeuV$1tRZM9Ob 21rLg3DBL3dupCGoi2RsUf 1vyfckSCz8Fww8vTAKGqom 24AqfsAbz9a9uOPQhRX75e 0jLabLY_9C18Pu7tVszuIs 05LSYayab3n9CDi01pw9K$ material-concrete cut 1xke4xwW15yxjAXMRE3Ra0 18eimQPoDDKg_QKo2uX5el 3Iwtjib290RgoxOZXiXjY_ 1CwScWdKjAoRRELd9WFS5j 2OlQHXCVP2XRXqNc62G$wh 3ty1lUpQfD3fY1yf0Dxo53 2ElJ1BXUbAr8BmMahsfhbO 1RUdk4F9TEYOeHsL6TBvKC 38CCXIvhz6cQfXDK0Tnvw1 06_2fl$_TF4vBlBJrawEVJ 3wW32FPxv45Ac3yhuS2W5U 1aQiUP$CH5uhQBoEX8NjwK 0nNkP2k99BqQJilK0$E7fQ 1yuWIPQdP3uuPJnZhwUAcx 3IOZ8Z$$5DH9cGih34wZt$"><path d="M603.046,508.079 L638.246,508.079 L638.246,506.212 L638.246,504.079 L605.579,504.079 L568.246,504.079 L570.113,505.945 L572.246,508.079 Z"/></g><g class="IfcWall 1oa6zGXK1CeuV$1tRZM9Ob 21rLg3DBL3dupCGoi2RsUf 1vyfckSCz8Fww8vTAKGqom 24AqfsAbz9a9uOPQhRX75e 0jLabLY_9C18Pu7tVszuIs 05LSYayab3n9CDi01pw9K$ material-concrete cut 1xke4xwW15yxjAXMRE3Ra0 18eimQPoDDKg_QKo2uX5el 3Iwtjib290RgoxOZXiXjY_ 1CwScWdKjAoRRELd9WFS5j 2OlQHXCVP2XRXqNc62G$wh 3ty1lUpQfD3fY1yf0Dxo53 2ElJ1BXUbAr8BmMahsfhbO 1RUdk4F9TEYOeHsL6TBvKC 38CCXIvhz6cQfXDK0Tnvw1 06_2fl$_TF4vBlBJrawEVJ 3wW32FPxv45Ac3yhuS2W5U 1aQiUP$CH5uhQBoEX8NjwK 0nNkP2k99BqQJilK0$E7fQ 1yuWIPQdP3uuPJnZhwUAcx 3IOZ8Z$$5DH9cGih34wZt$"><path d="M572.246,508.079 L570.379,506.212 L568.246,504.079 L568.246,526.945 L568.246,553.079 L570.113,553.079 L572.246,553.079 L572.246,532.079 Z"/></g><g class="IfcWall 1oa6zGXK1CeuV$1tRZM9Ob 21rLg3DBL3dupCGoi2RsUf 1vyfckSCz8Fww8vTAKGqom 24AqfsAbz9a9uOPQhRX75e 0jLabLY_9C18Pu7tVszuIs 05LSYayab3n9CDi01pw9K$ material-concrete cut 1xke4xwW15yxjAXMRE3Ra0 18eimQPoDDKg_QKo2uX5el 3Iwtjib290RgoxOZXiXjY_ 1CwScWdKjAoRRELd9WFS5j 2OlQHXCVP2XRXqNc62G$wh 3ty1lUpQfD3fY1yf0Dxo53 2ElJ1BXUbAr8BmMahsfhbO 1RUdk4F9TEYOeHsL6TBvKC 38CCXIvhz6cQfXDK0Tnvw1 06_2fl$_TF4vBlBJrawEVJ 3wW32FPxv45Ac3yhuS2W5U 1aQiUP$CH5uhQBoEX8NjwK 0nNkP2k99BqQJilK0$E7fQ 1yuWIPQdP3uuPJnZhwUAcx 3IOZ8Z$$5DH9cGih34wZt$"><path d="M500.246,580.079 L500.246,587.546 L500.246,596.079 L503.98,596.079 L508.246,596.079 L508.246,588.612 L508.246,580.079 L504.513,580.079 L504.246,580.079 L504.246,566.079 L504.246,550.079 L502.379,550.079 L500.246,550.079 L500.246,564.079 Z"/></g><g class="IfcWall 1oa6zGXK1CeuV$1tRZM9Ob 21rLg3DBL3dupCGoi2RsUf 1vyfckSCz8Fww8vTAKGqom 24AqfsAbz9a9uOPQhRX75e 0jLabLY_9C18Pu7tVszuIs 05LSYayab3n9CDi01pw9K$ material-concrete cut 1xke4xwW15yxjAXMRE3Ra0 18eimQPoDDKg_QKo2uX5el 3Iwtjib290RgoxOZXiXjY_ 1CwScWdKjAoRRELd9WFS5j 2OlQHXCVP2XRXqNc62G$wh 3ty1lUpQfD3fY1yf0Dxo53 2ElJ1BXUbAr8BmMahsfhbO 1RUdk4F9TEYOeHsL6TBvKC 38CCXIvhz6cQfXDK0Tnvw1 06_2fl$_TF4vBlBJrawEVJ 3wW32FPxv45Ac3yhuS2W5U 1aQiUP$CH5uhQBoEX8NjwK 0nNkP2k99BqQJilK0$E7fQ 1yuWIPQdP3uuPJnZhwUAcx 3IOZ8Z$$5DH9cGih34wZt$"><path d="M564.246,587.546 L564.246,596.079 L567.98,596.079 L568.246,596.079 L568.246,611.012 L568.246,628.079 L570.113,628.079 L572.246,628.079 L572.246,613.146 L572.246,596.079 L572.246,588.612 L572.246,580.079 L568.513,580.079 L564.246,580.079 Z"/></g><g class="1Hp7WEJyXDY8LymSBUm8qM IfcWall cut material-null"><path d="M677.265,442.077 L677.265,418.743 L674.556,418.743 L672.185,418.743 L672.185,445.41 L672.185,468.743 L674.895,468.743 L677.265,468.743 Z"/></g><g class="IfcWall 1oa6zGXK1CeuV$1tRZM9Ob 21rLg3DBL3dupCGoi2RsUf 1vyfckSCz8Fww8vTAKGqom 24AqfsAbz9a9uOPQhRX75e 0jLabLY_9C18Pu7tVszuIs 05LSYayab3n9CDi01pw9K$ material-concrete cut 1xke4xwW15yxjAXMRE3Ra0 18eimQPoDDKg_QKo2uX5el 3Iwtjib290RgoxOZXiXjY_ 1CwScWdKjAoRRELd9WFS5j 2OlQHXCVP2XRXqNc62G$wh 3ty1lUpQfD3fY1yf0Dxo53 2ElJ1BXUbAr8BmMahsfhbO layer-material-Concrete IfcMaterialLayer 1RUdk4F9TEYOeHsL6TBvKC 38CCXIvhz6cQfXDK0Tnvw1 06_2fl$_TF4vBlBJrawEVJ 3wW32FPxv45Ac3yhuS2W5U 1aQiUP$CH5uhQBoEX8NjwK 0nNkP2k99BqQJilK0$E7fQ 1yuWIPQdP3uuPJnZhwUAcx 3IOZ8Z$$5DH9cGih34wZt$"><path d="M496.246,396.08 L496.246,403.546 L496.246,412.079 L499.979,412.079 L500.246,412.079 L500.246,441.946 L500.246,476.079 L502.113,476.079 L504.246,476.079 L504.246,446.212 L504.246,412.079 L504.246,404.613 L504.246,396.08 L500.513,396.08 Z"/></g><g class="IfcWall 1oa6zGXK1CeuV$1tRZM9Ob 21rLg3DBL3dupCGoi2RsUf 1vyfckSCz8Fww8vTAKGqom 24AqfsAbz9a9uOPQhRX75e 0jLabLY_9C18Pu7tVszuIs 05LSYayab3n9CDi01pw9K$ material-concrete cut 1xke4xwW15yxjAXMRE3Ra0 18eimQPoDDKg_QKo2uX5el 3Iwtjib290RgoxOZXiXjY_ 1CwScWdKjAoRRELd9WFS5j 2OlQHXCVP2XRXqNc62G$wh 3ty1lUpQfD3fY1yf0Dxo53 2ElJ1BXUbAr8BmMahsfhbO layer-material-Concrete IfcMaterialLayer 1RUdk4F9TEYOeHsL6TBvKC 38CCXIvhz6cQfXDK0Tnvw1 06_2fl$_TF4vBlBJrawEVJ 3wW32FPxv45Ac3yhuS2W5U 1aQiUP$CH5uhQBoEX8NjwK 0nNkP2k99BqQJilK0$E7fQ 1yuWIPQdP3uuPJnZhwUAcx 3IOZ8Z$$5DH9cGih34wZt$"><path d="M370.246,415.546 L370.246,424.079 L370.246,448.346 L370.246,476.079 L372.113,476.079 L374.246,476.079 L374.246,451.812 L374.246,424.079 L378.246,424.079 L378.246,416.612 L378.246,408.079 L374.513,408.079 L370.246,408.079 Z"/></g><g class="IfcWall 1oa6zGXK1CeuV$1tRZM9Ob 21rLg3DBL3dupCGoi2RsUf 1vyfckSCz8Fww8vTAKGqom 24AqfsAbz9a9uOPQhRX75e 0jLabLY_9C18Pu7tVszuIs 05LSYayab3n9CDi01pw9K$ material-concrete cut 1xke4xwW15yxjAXMRE3Ra0 18eimQPoDDKg_QKo2uX5el 3Iwtjib290RgoxOZXiXjY_ 1CwScWdKjAoRRELd9WFS5j 2OlQHXCVP2XRXqNc62G$wh 3ty1lUpQfD3fY1yf0Dxo53 2ElJ1BXUbAr8BmMahsfhbO layer-material-Concrete IfcMaterialLayer 1RUdk4F9TEYOeHsL6TBvKC 38CCXIvhz6cQfXDK0Tnvw1 06_2fl$_TF4vBlBJrawEVJ 3wW32FPxv45Ac3yhuS2W5U 1aQiUP$CH5uhQBoEX8NjwK 0nNkP2k99BqQJilK0$E7fQ 1yuWIPQdP3uuPJnZhwUAcx 3IOZ8Z$$5DH9cGih34wZt$"><path d="M403.246,415.546 L403.246,424.079 L406.513,424.079 L410.246,424.079 L410.246,416.612 L410.246,408.079 L406.98,408.079 L403.246,408.079 Z"/></g><g class="IfcWall 1oa6zGXK1CeuV$1tRZM9Ob 21rLg3DBL3dupCGoi2RsUf 1vyfckSCz8Fww8vTAKGqom 24AqfsAbz9a9uOPQhRX75e 0jLabLY_9C18Pu7tVszuIs 05LSYayab3n9CDi01pw9K$ material-concrete cut 1xke4xwW15yxjAXMRE3Ra0 18eimQPoDDKg_QKo2uX5el 3Iwtjib290RgoxOZXiXjY_ 1CwScWdKjAoRRELd9WFS5j 2OlQHXCVP2XRXqNc62G$wh 3ty1lUpQfD3fY1yf0Dxo53 2ElJ1BXUbAr8BmMahsfhbO layer-material-Concrete IfcMaterialLayer 1RUdk4F9TEYOeHsL6TBvKC 38CCXIvhz6cQfXDK0Tnvw1 06_2fl$_TF4vBlBJrawEVJ 3wW32FPxv45Ac3yhuS2W5U 1aQiUP$CH5uhQBoEX8NjwK 0nNkP2k99BqQJilK0$E7fQ 1yuWIPQdP3uuPJnZhwUAcx 3IOZ8Z$$5DH9cGih34wZt$"><path d="M410.246,470.212 L410.246,468.079 L408.38,468.079 L406.246,468.079 L406.246,471.812 L406.246,476.079 L408.113,474.212 L410.246,472.079 Z"/></g><g class="IfcWall 1oa6zGXK1CeuV$1tRZM9Ob 21rLg3DBL3dupCGoi2RsUf 1vyfckSCz8Fww8vTAKGqom 24AqfsAbz9a9uOPQhRX75e 0jLabLY_9C18Pu7tVszuIs 05LSYayab3n9CDi01pw9K$ material-concrete cut 1xke4xwW15yxjAXMRE3Ra0 18eimQPoDDKg_QKo2uX5el 3Iwtjib290RgoxOZXiXjY_ 1CwScWdKjAoRRELd9WFS5j 2OlQHXCVP2XRXqNc62G$wh 3ty1lUpQfD3fY1yf0Dxo53 2ElJ1BXUbAr8BmMahsfhbO layer-material-Concrete IfcMaterialLayer 1RUdk4F9TEYOeHsL6TBvKC 38CCXIvhz6cQfXDK0Tnvw1 06_2fl$_TF4vBlBJrawEVJ 3wW32FPxv45Ac3yhuS2W5U 1aQiUP$CH5uhQBoEX8NjwK 0nNkP2k99BqQJilK0$E7fQ 1yuWIPQdP3uuPJnZhwUAcx 3IOZ8Z$$5DH9cGih34wZt$"><path d="M428.379,472.079 L410.246,472.079 L408.38,473.946 L406.246,476.079 L423.979,476.079 L444.246,476.079 L444.246,474.212 L444.246,472.079 Z"/></g><g class="IfcWall 1oa6zGXK1CeuV$1tRZM9Ob 21rLg3DBL3dupCGoi2RsUf 1vyfckSCz8Fww8vTAKGqom 24AqfsAbz9a9uOPQhRX75e 0jLabLY_9C18Pu7tVszuIs 05LSYayab3n9CDi01pw9K$ material-concrete cut 1xke4xwW15yxjAXMRE3Ra0 18eimQPoDDKg_QKo2uX5el 3Iwtjib290RgoxOZXiXjY_ 1CwScWdKjAoRRELd9WFS5j 2OlQHXCVP2XRXqNc62G$wh 3ty1lUpQfD3fY1yf0Dxo53 2ElJ1BXUbAr8BmMahsfhbO layer-material-Concrete IfcMaterialLayer 1RUdk4F9TEYOeHsL6TBvKC 38CCXIvhz6cQfXDK0Tnvw1 06_2fl$_TF4vBlBJrawEVJ 3wW32FPxv45Ac3yhuS2W5U 1aQiUP$CH5uhQBoEX8NjwK 0nNkP2k99BqQJilK0$E7fQ 1yuWIPQdP3uuPJnZhwUAcx 3IOZ8Z$$5DH9cGih34wZt$"><path d="M366.246,568.088 L369.98,568.088 L374.246,568.088 L374.246,564.355 L374.246,560.088 L374.246,531.155 L374.246,498.088 L372.38,498.088 L370.246,498.088 L370.246,527.022 L370.246,560.088 L366.246,560.088 L366.246,563.822 Z"/></g><g class="IfcWall 1oa6zGXK1CeuV$1tRZM9Ob 21rLg3DBL3dupCGoi2RsUf 1vyfckSCz8Fww8vTAKGqom 24AqfsAbz9a9uOPQhRX75e 0jLabLY_9C18Pu7tVszuIs 05LSYayab3n9CDi01pw9K$ material-concrete cut 1xke4xwW15yxjAXMRE3Ra0 18eimQPoDDKg_QKo2uX5el 3Iwtjib290RgoxOZXiXjY_ 1CwScWdKjAoRRELd9WFS5j 2OlQHXCVP2XRXqNc62G$wh 3ty1lUpQfD3fY1yf0Dxo53 2ElJ1BXUbAr8BmMahsfhbO layer-material-Concrete IfcMaterialLayer 1RUdk4F9TEYOeHsL6TBvKC 38CCXIvhz6cQfXDK0Tnvw1 06_2fl$_TF4vBlBJrawEVJ 3wW32FPxv45Ac3yhuS2W5U 1aQiUP$CH5uhQBoEX8NjwK 0nNkP2k99BqQJilK0$E7fQ 1yuWIPQdP3uuPJnZhwUAcx 3IOZ8Z$$5DH9cGih34wZt$"><path d="M444.246,536.079 L442.38,536.079 L440.246,536.079 L440.246,549.146 L440.246,564.079 L436.246,564.079 L436.246,571.546 L436.246,580.079 L439.98,580.079 L444.246,580.079 L444.246,572.612 L444.246,564.079 L444.246,551.012 Z"/></g><g class="IfcWall 1oa6zGXK1CeuV$1tRZM9Ob 21rLg3DBL3dupCGoi2RsUf 1vyfckSCz8Fww8vTAKGqom 24AqfsAbz9a9uOPQhRX75e 0jLabLY_9C18Pu7tVszuIs 05LSYayab3n9CDi01pw9K$ material-concrete cut 1xke4xwW15yxjAXMRE3Ra0 18eimQPoDDKg_QKo2uX5el 3Iwtjib290RgoxOZXiXjY_ 1CwScWdKjAoRRELd9WFS5j 2OlQHXCVP2XRXqNc62G$wh 3ty1lUpQfD3fY1yf0Dxo53 2ElJ1BXUbAr8BmMahsfhbO layer-material-Concrete IfcMaterialLayer 1RUdk4F9TEYOeHsL6TBvKC 38CCXIvhz6cQfXDK0Tnvw1 06_2fl$_TF4vBlBJrawEVJ 3wW32FPxv45Ac3yhuS2W5U 1aQiUP$CH5uhQBoEX8NjwK 0nNkP2k99BqQJilK0$E7fQ 1yuWIPQdP3uuPJnZhwUAcx 3IOZ8Z$$5DH9cGih34wZt$"><path d="M580.246,400.613 L580.246,408.08 L582.113,409.947 L584.246,412.08 L584.246,403.68 L584.246,394.08 L582.379,394.08 L580.246,394.08 Z"/></g><g class="IfcWall 1oa6zGXK1CeuV$1tRZM9Ob 21rLg3DBL3dupCGoi2RsUf 1vyfckSCz8Fww8vTAKGqom 24AqfsAbz9a9uOPQhRX75e 0jLabLY_9C18Pu7tVszuIs 05LSYayab3n9CDi01pw9K$ material-concrete cut 1xke4xwW15yxjAXMRE3Ra0 18eimQPoDDKg_QKo2uX5el 3Iwtjib290RgoxOZXiXjY_ 1CwScWdKjAoRRELd9WFS5j 2OlQHXCVP2XRXqNc62G$wh 3ty1lUpQfD3fY1yf0Dxo53 2ElJ1BXUbAr8BmMahsfhbO layer-material-Concrete IfcMaterialLayer 1RUdk4F9TEYOeHsL6TBvKC 38CCXIvhz6cQfXDK0Tnvw1 06_2fl$_TF4vBlBJrawEVJ 3wW32FPxv45Ac3yhuS2W5U 1aQiUP$CH5uhQBoEX8NjwK 0nNkP2k99BqQJilK0$E7fQ 1yuWIPQdP3uuPJnZhwUAcx 3IOZ8Z$$5DH9cGih34wZt$"><path d="M630.246,396.079 L630.246,403.546 L630.246,412.079 L633.979,412.079 L634.246,412.079 L634.246,436.346 L634.246,464.08 L636.113,464.08 L638.246,464.08 L638.246,439.813 L638.246,412.079 L638.246,404.612 L638.246,396.079 L634.513,396.079 Z"/></g><g class="IfcWall 1oa6zGXK1CeuV$1tRZM9Ob 21rLg3DBL3dupCGoi2RsUf 1vyfckSCz8Fww8vTAKGqom 24AqfsAbz9a9uOPQhRX75e 0jLabLY_9C18Pu7tVszuIs 05LSYayab3n9CDi01pw9K$ material-concrete cut 1xke4xwW15yxjAXMRE3Ra0 18eimQPoDDKg_QKo2uX5el 3Iwtjib290RgoxOZXiXjY_ 1CwScWdKjAoRRELd9WFS5j 2OlQHXCVP2XRXqNc62G$wh 3ty1lUpQfD3fY1yf0Dxo53 2ElJ1BXUbAr8BmMahsfhbO layer-material-Concrete IfcMaterialLayer 1RUdk4F9TEYOeHsL6TBvKC 38CCXIvhz6cQfXDK0Tnvw1 06_2fl$_TF4vBlBJrawEVJ 3wW32FPxv45Ac3yhuS2W5U 1aQiUP$CH5uhQBoEX8NjwK 0nNkP2k99BqQJilK0$E7fQ 1yuWIPQdP3uuPJnZhwUAcx 3IOZ8Z$$5DH9cGih34wZt$"><path d="M568.246,408.08 L568.246,409.947 L568.246,412.08 L575.713,412.08 L584.246,412.08 L582.379,410.213 L580.246,408.08 L574.646,408.08 Z"/></g><g class="IfcWall 1oa6zGXK1CeuV$1tRZM9Ob 21rLg3DBL3dupCGoi2RsUf 1vyfckSCz8Fww8vTAKGqom 24AqfsAbz9a9uOPQhRX75e 0jLabLY_9C18Pu7tVszuIs 05LSYayab3n9CDi01pw9K$ material-concrete cut 1xke4xwW15yxjAXMRE3Ra0 18eimQPoDDKg_QKo2uX5el 3Iwtjib290RgoxOZXiXjY_ 1CwScWdKjAoRRELd9WFS5j 2OlQHXCVP2XRXqNc62G$wh 3ty1lUpQfD3fY1yf0Dxo53 2ElJ1BXUbAr8BmMahsfhbO layer-material-Concrete IfcMaterialLayer 1RUdk4F9TEYOeHsL6TBvKC 38CCXIvhz6cQfXDK0Tnvw1 06_2fl$_TF4vBlBJrawEVJ 3wW32FPxv45Ac3yhuS2W5U 1aQiUP$CH5uhQBoEX8NjwK 0nNkP2k99BqQJilK0$E7fQ 1yuWIPQdP3uuPJnZhwUAcx 3IOZ8Z$$5DH9cGih34wZt$"><path d="M603.046,508.079 L638.246,508.079 L638.246,506.212 L638.246,504.079 L605.579,504.079 L568.246,504.079 L570.113,505.945 L572.246,508.079 Z"/></g><g class="IfcWall 1oa6zGXK1CeuV$1tRZM9Ob 21rLg3DBL3dupCGoi2RsUf 1vyfckSCz8Fww8vTAKGqom 24AqfsAbz9a9uOPQhRX75e 0jLabLY_9C18Pu7tVszuIs 05LSYayab3n9CDi01pw9K$ material-concrete cut 1xke4xwW15yxjAXMRE3Ra0 18eimQPoDDKg_QKo2uX5el 3Iwtjib290RgoxOZXiXjY_ 1CwScWdKjAoRRELd9WFS5j 2OlQHXCVP2XRXqNc62G$wh 3ty1lUpQfD3fY1yf0Dxo53 2ElJ1BXUbAr8BmMahsfhbO layer-material-Concrete IfcMaterialLayer 1RUdk4F9TEYOeHsL6TBvKC 38CCXIvhz6cQfXDK0Tnvw1 06_2fl$_TF4vBlBJrawEVJ 3wW32FPxv45Ac3yhuS2W5U 1aQiUP$CH5uhQBoEX8NjwK 0nNkP2k99BqQJilK0$E7fQ 1yuWIPQdP3uuPJnZhwUAcx 3IOZ8Z$$5DH9cGih34wZt$"><path d="M572.246,508.079 L570.379,506.212 L568.246,504.079 L568.246,526.945 L568.246,553.079 L570.113,553.079 L572.246,553.079 L572.246,532.079 Z"/></g><g class="IfcWall 1oa6zGXK1CeuV$1tRZM9Ob 21rLg3DBL3dupCGoi2RsUf 1vyfckSCz8Fww8vTAKGqom 24AqfsAbz9a9uOPQhRX75e 0jLabLY_9C18Pu7tVszuIs 05LSYayab3n9CDi01pw9K$ material-concrete cut 1xke4xwW15yxjAXMRE3Ra0 18eimQPoDDKg_QKo2uX5el 3Iwtjib290RgoxOZXiXjY_ 1CwScWdKjAoRRELd9WFS5j 2OlQHXCVP2XRXqNc62G$wh 3ty1lUpQfD3fY1yf0Dxo53 2ElJ1BXUbAr8BmMahsfhbO layer-material-Concrete IfcMaterialLayer 1RUdk4F9TEYOeHsL6TBvKC 38CCXIvhz6cQfXDK0Tnvw1 06_2fl$_TF4vBlBJrawEVJ 3wW32FPxv45Ac3yhuS2W5U 1aQiUP$CH5uhQBoEX8NjwK 0nNkP2k99BqQJilK0$E7fQ 1yuWIPQdP3uuPJnZhwUAcx 3IOZ8Z$$5DH9cGih34wZt$"><path d="M500.246,580.079 L500.246,587.546 L500.246,596.079 L503.98,596.079 L508.246,596.079 L508.246,588.612 L508.246,580.079 L504.513,580.079 L504.246,580.079 L504.246,566.079 L504.246,550.079 L502.379,550.079 L500.246,550.079 L500.246,564.079 Z"/></g><g class="IfcWall 1oa6zGXK1CeuV$1tRZM9Ob 21rLg3DBL3dupCGoi2RsUf 1vyfckSCz8Fww8vTAKGqom 24AqfsAbz9a9uOPQhRX75e 0jLabLY_9C18Pu7tVszuIs 05LSYayab3n9CDi01pw9K$ material-concrete cut 1xke4xwW15yxjAXMRE3Ra0 18eimQPoDDKg_QKo2uX5el 3Iwtjib290RgoxOZXiXjY_ 1CwScWdKjAoRRELd9WFS5j 2OlQHXCVP2XRXqNc62G$wh 3ty1lUpQfD3fY1yf0Dxo53 2ElJ1BXUbAr8BmMahsfhbO layer-material-Concrete IfcMaterialLayer 1RUdk4F9TEYOeHsL6TBvKC 38CCXIvhz6cQfXDK0Tnvw1 06_2fl$_TF4vBlBJrawEVJ 3wW32FPxv45Ac3yhuS2W5U 1aQiUP$CH5uhQBoEX8NjwK 0nNkP2k99BqQJilK0$E7fQ 1yuWIPQdP3uuPJnZhwUAcx 3IOZ8Z$$5DH9cGih34wZt$"><path d="M564.246,587.546 L564.246,596.079 L567.98,596.079 L568.246,596.079 L568.246,611.012 L568.246,628.079 L570.113,628.079 L572.246,628.079 L572.246,613.146 L572.246,596.079 L572.246,588.612 L572.246,580.079 L568.513,580.079 L564.246,580.079 Z"/></g><g class="1Hp7WEJyXDY8LymSBUm8qM IfcWall cut IfcMaterialLayer layer-material-CONCRETEWALL material-null"><path d="M677.265,442.077 L677.265,418.743 L674.556,418.743 L672.185,418.743 L672.185,445.41 L672.185,468.743 L674.895,468.743 L677.265,468.743 Z"/></g></g>
</svg>