<svg xmlns="http://www.w3.org/2000/svg" xmlns:xlink="http://www.w3.org/1999/xlink" xmlns:ifc="http://www.ifcopenshell.org/ns" width="127.991mm" height="144mm" viewBox="0 0 127.991 144">
    <defs>
        <marker id="arrowend" markerWidth="10" markerHeight="7" refX="10" refY="3.5" orient="auto">
          <polygon points="0 0, 10 3.5, 0 7"/>
        </marker>
        <marker id="arrowstart" markerWidth="10" markerHeight="7" refX="0" refY="3.5" orient="auto">
          <polygon points="10 0, 0 3.5, 10 7"/>
        </marker>
    </defs>
    <g ifc:name="Elevation GESSI316-54294-MAIN-BATH-FRONT" class="section target-view-ELEVATIONVIEW scale-25" ifc:plane="[[0.000000,0.000000,1.000000,-4.450000],[1.000000,0.000000,0.000000,0.000000],[0.000000,1.000000,0.000000,0.000000],[0.000000,0.000000,0.000000,1.000000]]" ifc:matrix3="[[39.999999,0.000000,7.995302],[0.000000,39.999999,120.000001],[0.000000,0.000000,1.000000]]">
        <g id="product-dfa96ccc-ca78-4e28-97ec-75f6526b099b" class="IfcWall material-Concrete200 projection" ifc:name="Wall" ifc:guid="3VgMpCodXEA9ViTVPIQmcR">
            <path d="M24.001620653939085,19.200003570846647 L23.995301608059911,19.200003570846647"/>
            <path d="M23.995301608059915,120.00000131779107 L23.995301608059915,19.200003570846647"/>
        </g>
        <g id="product-62a47994-2567-4ac8-b6f9-a540cbbf8712" class="IfcSlab material-CAS130RF projection" ifc:name="Slab" ifc:guid="1Yf7cK9MTAoBRvfK3BluSI">
            <path d="M16.11530178419164,4.0000000893769538e-06 L24.001620653939067,4.0000000893769538e-06"/>
            <path d="M23.995301608059915,6.0000038658896528 L24.001620653939067,6.0000038658896528"/>
        </g>
        <g id="product-06f1f4d6-285f-41a6-b8ce-0840f366f488" class="IfcBeam material-BGB projection" ifc:name="Beam" ifc:guid="06yVJMA5z1fhZE243pPlI8">
            <path d="M8.0016191042184648,4.0000000893769538e-06 L8.1153019630055745,4.0000000893769538e-06"/>
            <path d="M8.0016191042184648,16.000003642372217 L8.0016191042184648,4.0000000893769538e-06"/>
            <path d="M8.1153019630055745,16.000003642372217 L8.0016191042184648,16.000003642372217"/>
        </g>
        <g id="product-ddab04ad-490c-43b1-afc9-356e74360c9f" class="IfcBeam material-BPB projection" ifc:name="Beam" ifc:guid="3TgmIjIGn3iQ$9DMvqDWoV">
            <path d="M24.001620653939067,19.200003570846647 L24.001620653939067,4.0000000893769538e-06"/>
            <path d="M111.99529964110664,4.0000000893769538e-06 L24.001620653939067,4.0000000893769538e-06"/>
            <path d="M111.99529964110664,19.200003570846647 L24.001620653939067,19.200003570846647"/>
        </g>
        <g id="product-02a21fe3-160d-4de3-8efa-052bf1e9fdb6" class="IfcSlab material-FLR180 projection" ifc:name="Slab" ifc:guid="02eX$Z5WrDuuxw1IlnwVss">
            <path d="M16.001791540451997,122.00000127308759 L16.001791540452015,120.00000131779107"/>
            <path d="M16.11530178419164,120.00000131779107 L135.99518729589053,120.00000131779107"/>
            <path d="M144.00178867942907,120.00000131779107 L135.99518729589053,120.00000131779107"/>
            <path d="M135.99518729589053,120.00000131779107 L135.99518729589059,122.00000127308759"/>
            <path d="M135.99518729589059,122.00000127308759 L16.001791540452015,122.00000127308759"/>
            <path d="M16.001791540452015,127.20000115685853 L16.001791540452015,122.00000127308759"/>
            <path d="M144.00178867942907,127.20000115685853 L16.001791540452015,127.20000115685853"/>
            <path d="M144.00178867942907,120.00000131779107 L144.00178867942907,127.20000115685853"/>
        </g>
        <g id="product-360b79b1-8f06-420d-acfd-13d863fdf9c0" class="IfcSlab material-Aircrete projection" ifc:name="Slab" ifc:guid="0s2tcnZmP23Qpz4zXZ$Vd0">
            <path d="M80.001649919819258,142.00000082605277 L80.001649919819258,127.20000115685853"/>
            <path d="M112.00164920456352,142.00000082605277 L112.00164920456352,127.20000115685853"/>
            <path d="M80.001649919819258,142.00000082605277 L112.00164920456352,142.00000082605277"/>
        </g>
        <g id="product-5eb3bc73-c5a9-491f-ae17-290d5dc164e7" class="IfcSlab material-Aircrete projection" ifc:name="Slab" ifc:guid="1UixnpnQb97wuNAGrTmMJd">
            <path d="M16.001791540452004,122.00000127308759 L16.001782957383398,122.00000127308759"/>
            <path d="M16.001782957383398,126.00000118368062 L16.001791540452015,126.00000118368062"/>
            <path d="M16.001656953167039,127.20000115685853 L16.001656953167039,142.00000082605277"/>
            <path d="M16.001656953167039,142.00000082605277 L80.001649919819258,142.00000082605277"/>
        </g>
        <g id="product-3a95447f-f9ad-42f8-a12b-cd4d8065587a" class="IfcSlab material-FLR180 projection" ifc:name="Slab" ifc:guid="0wbKH$_Qr2_A4hpKs0PLXw">
            <path d="M-167.99821292989611,120.00000131779107 L8.0017831361973357,120.00000131779107"/>
            <path d="M-175.99821275108221,120.00000131779107 L-175.99821275108221,127.20000115685853"/>
            <path d="M-175.99821275108221,127.20000115685853 L16.001782957383409,127.20000115685853"/>
            <path d="M16.001782957383398,127.20000115685853 L16.001782957383398,120.00000131779107"/>
            <path d="M8.0017831361973357,120.00000131779107 L16.001782957383398,120.00000131779107"/>
            <path d="M8.0017831361973357,122.00000127308759 L8.0017831361973357,120.00000131779107"/>
            <path d="M-167.99821292989611,122.00000127308759 L8.0017831361973357,122.00000127308759"/>
            <path d="M-167.99821292989611,120.00000131779107 L-167.99821292989611,122.00000127308759"/>
            <path d="M-175.99821275108221,120.00000131779107 L-167.99821292989611,120.00000131779107"/>
        </g>
        <g id="product-420afa22-4a54-4f3c-bb00-88e0f8f6335f" class="IfcWall material-BWW03 projection" ifc:name="Wall" ifc:guid="122leYIbHFFBi0YE3uzZDV">
            <path d="M143.9952989258509,100.8000308799915 L143.99613876958213,100.80000174694452"/>
            <path d="M143.99613876958213,100.80000174694452 L143.99613876958213,96.800001836351484"/>
            <path d="M143.99613876958213,96.800001836351484 L145.99611431081669,96.800001836351484"/>
            <path d="M145.99611431081669,96.800001836351484 L145.99611431081669,93.200001916817754"/>
            <path d="M145.99611431081669,93.200001916817754 L143.9952989258509,93.066632350070719"/>
        </g>
        <g id="product-04d7600e-36dc-423b-9efc-dce69cee06cb" class="IfcWall material-WAL170 projection" ifc:name="Wall" ifc:guid="04rs0EDjn2EvxytEQSxWRB">
            <path d="M7.9953019656877835,20.80000353508386 L5.1953020282726605,20.80000353508386"/>
            <path d="M7.9953019656877844,120.00000131779107 L5.1953020282726605,120.00000131779107"/>
            <path d="M5.1953020282726605,120.00000131779107 L5.1953020282726605,20.80000353508386"/>
        </g>
        <g id="product-79f299ae-70cf-483f-ae88-e5d294434cb0" class="IfcWall material-WAL200B projection" ifc:name="Wall" ifc:guid="1vyfckSCz8Fww8vTAKGqom">
            <path d="M23.995301608059915,4.0000000893769538e-06 L16.11530178419164,4.0000000893769538e-06"/>
            <path d="M23.995301608059915,120.00000131779107 L23.995301608059915,4.0000000893769538e-06"/>
        </g>
        <g id="product-f7f01bde-cdaa-4d0e-9881-f2900def2143" class="IfcWall material-WAL200B projection" ifc:name="Wall" ifc:guid="3ty1lUpQfD3fY1yf0Dxo53">
            <path d="M14.001618970108186,4.0000000893769538e-06 L11.99530187628082,4.0000000893769538e-06"/>
        </g>
        <g id="product-842b4a76-2a5f-4990-9e18-65aadb847168" class="IfcWall material-WAL200B projection" ifc:name="Wall" ifc:guid="24AqfsAbz9a9uOPQhRX75e">
            <path d="M16.11530178419164,4.0000000893769538e-06 L8.1153019630055745,4.0000000893769538e-06"/>
            <path d="M8.1153019630055745,120.00000131779107 L8.1153019630055745,4.0000000893769538e-06"/>
            <path d="M16.11530178419164,120.00000131779107 L8.1153019630055745,120.00000131779107"/>
            <path d="M16.11530178419164,4.0000000893769538e-06 L16.11530178419164,120.00000131779107"/>
        </g>
        <g id="product-486aba45-266d-4d30-af3f-da67d8314242" class="IfcWall material-WAL350B projection" ifc:name="Wall" ifc:guid="18Qhf59crDCAy$scVOCK92">
            <path d="M143.9952989258509,4.0000000893769538e-06 L111.99529964110664,4.0000000893769538e-06"/>
            <path d="M111.99529964110664,120.00000131779107 L111.99529964110664,4.0000000893769538e-06"/>
            <path d="M143.9952989258509,120.00000131779107 L143.9952989258509,4.0000000893769538e-06"/>
        </g>
        <g id="product-54631426-5c8c-49b8-95e2-f75e60775111" class="IfcCovering material-TerrazzoMosaicTile projection" ifc:name="Covering" ifc:guid="1KOnGcN8n9k9NYzrvWTr4H">
            <path d="M16.001791540452011,120.13581405846011 L16.001782957383398,120.13581396857515"/>
            <path d="M16.001791540452007,120.93585790748658 L16.001782957383398,120.93585781760162"/>
        </g>
        <g id="product-31bd14a7-91fd-5f1f-b494-da2875922324" class="IfcWall material-null projection" ifc:name="A102 D01 &#25286;&#38500;&#22681; 700&#215;100&#215;3000 mm" ifc:guid="0nlHIdaVrV7xIKsYXraYCa">
            <path d="M8.0016191042184666,4.0000000893769538e-06 L7.9953019656877835,4.0000000893769538e-06"/>
            <path d="M8.0017831361973357,120.00000131779107 L7.9953019656877835,120.00000131779107"/>
            <path d="M7.9953019656877835,120.00000131779107 L7.9953019656877835,4.0000000893769538e-06"/>
        </g>
        <g id="product-e0a2eb64-a1ec-41d2-9546-c9b05488df82" class="IfcCovering material-WW20BR projection" ifc:name="Covering" ifc:guid="3WekjaeUn1qfL6oR1KYD_2">
            <path d="M16.001791540452015,120.00000131779107 L16.001782957383409,120.00000131779107"/>
        </g>
    <g class="02eX$Z5WrDuuxw1IlnwVss 0wbKH$_Qr2_A4hpKs0PLXw IfcSlab cut material-FLR180"><path d="M125.294,122.0 L16.002,122.0 L16.002,121.526 L16.002,120.0 L13.881,120.0 L8.002,120.0 L8.002,121.47 L8.002,122.0 L7.993,122.0 L-23.785,122.0 L-133.151,122.0 L-167.998,122.0 L-167.998,121.242 L-167.998,120.0 L-170.855,120.0 L-175.998,120.0 L-175.998,124.378 L-175.998,127.2 L-100.747,127.2 L16.002,127.2 L34.578,127.2 L144.002,127.2 L144.002,121.045 L144.002,120.0 L136.685,120.0 L135.995,120.0 L135.995,120.178 L135.995,122.0 Z"/></g><g class="24AqfsAbz9a9uOPQhRX75e cut IfcWall material-WAL200B"><path d="M10.014,0.0 L8.115,0.0 L8.115,28.484 L8.115,120.0 L14.934,120.0 L16.115,120.0 L16.115,102.282 L16.115,0.0 Z"/></g><g class="02eX$Z5WrDuuxw1IlnwVss layer-material-category-Architectural 0wbKH$_Qr2_A4hpKs0PLXw layer-material-Aircrete IfcMaterialLayer IfcSlab cut material-FLR180"><path d="M125.294,122.0 L16.002,122.0 L16.002,121.526 L16.002,120.0 L13.881,120.0 L8.002,120.0 L8.002,121.47 L8.002,122.0 L7.993,122.0 L-23.785,122.0 L-133.151,122.0 L-167.998,122.0 L-167.998,121.242 L-167.998,120.0 L-170.855,120.0 L-175.998,120.0 L-175.998,124.378 L-175.998,127.2 L-100.747,127.2 L16.002,127.2 L34.578,127.2 L144.002,127.2 L144.002,121.045 L144.002,120.0 L136.685,120.0 L135.995,120.0 L135.995,120.178 L135.995,122.0 Z"/></g><g class="layer-material-category-Architectural material-WAL200B layer-material-Concrete IfcMaterialLayer 24AqfsAbz9a9uOPQhRX75e cut IfcWall"><path d="M10.014,0.0 L8.115,0.0 L8.115,28.484 L8.115,120.0 L14.934,120.0 L16.115,120.0 L16.115,102.282 L16.115,0.0 Z"/></g><path d="M4.411957499560186,8.000001907348633 L-40.00470376295202,8.000001907348633 L-40.00470376295202,24.33333396911621 L-40.00470376295202,120.0 L-32.42137170118444,120.0 L11.995294329699346,120.0 L11.995294329699346,103.66666793823242 L11.995294329699346,8.000001907348633 Z" class="IfcSpace material-null"/><path d="M125.06196760850796,8.000001907348633 L11.995294329699346,8.000001907348633 L11.995294329699346,21.066665649414062 L11.995294329699346,120.0 L26.928622958239387,120.0 L139.995296237048,120.0 L139.995296237048,106.93334102630615 L139.995296237048,8.000001907348633 Z" class="IfcSpace material-null"/></g>
</svg>